<?xml version="1.0" standalone="no"?>
<!DOCTYPE svg PUBLIC "-//W3C//DTD SVG 1.1//EN" "http://www.w3.org/Graphics/SVG/1.1/DTD/svg11.dtd" >
<svg>
<metadata>
Created by FontForge 20090914 at Tue Jan  7 19:02:04 2020
 By www-data
Based on Audi Type which was designed by Paul van der Laan &#38; Pieter van Rosmalen 2008. Produced by LucasFonts GmbH. For exclusive use by AUDI AG and its affiliates only.
</metadata>
<defs>
<font id="AudiTypeScreen-Light" horiz-adv-x="2646" >
  <font-face 
    font-family="Audi Type Screen Light"
    font-weight="300"
    font-stretch="normal"
    units-per-em="4096"
    panose-1="2 11 3 3 4 2 2 2 2 3"
    ascent="3113"
    descent="-983"
    x-height="2101"
    cap-height="2966"
    bbox="-770 -963.006 9085 4014"
    underline-thickness="205"
    underline-position="-206"
    unicode-range="U+000D-U+FB04"
  />
<missing-glyph horiz-adv-x="3543" 
d="M3133 -590h-2723v4244h2723v-4244zM659 -369h2225v3801h-2225v-3801zM1520 766l-25 486.998l385 394c98 100.667 174.833 192 230.5 274s94.667 157.833 117 227.5s33.5 139.834 33.5 210.5c0 82.667 -17 156 -51 220s-88.833 115 -164.5 153s-173.167 57 -292.5 57
c-122 0 -234.167 -13.5 -336.5 -40.5s-215.5 -69.5 -339.5 -127.5v218c107.333 53.333 218.5 94.5 333.5 123.5s234.5 43.5 358.5 43.5c162 0 299.667 -25.167 413 -75.5s199.166 -122.166 257.5 -215.5c58.333 -93.333 87.5 -203.666 87.5 -330.999
c0 -100.667 -14 -194 -42 -280s-70.167 -169.167 -126.5 -249.5s-129.833 -166.166 -220.5 -257.499l-385 -380l-20 -451h-213zM1462 -0.00195312v377h328v-377h-328z" />
    <glyph glyph-name="uniFB00" unicode="ff" horiz-adv-x="3121" 
d="M2118 0l0.00195312 1892h-1225v-1892h-250v1892h-553v209h553v262c0 248 59.167 436.333 177.5 565s291.166 193 518.499 193c73.333 0 148.666 -6 225.999 -18s148.333 -29 213 -51v-205c-66.667 18.667 -138.5 33.5 -215.5 44.5s-150.167 16.5 -219.5 16.5
c-174 0 -292.5 -44.833 -355.5 -134.5s-94.5 -234.5 -94.5 -434.5v-238h1225v262c0 248 61.167 436.333 183.5 565s301.5 193 537.5 193c75.333 0 153.333 -6 234 -18s154 -29 220 -51v-205c-68 18.667 -142.5 33.5 -223.5 44.5s-157.833 16.5 -230.5 16.5
c-182 0 -306.167 -44.833 -372.5 -134.5s-99.5 -234.5 -99.5 -434.5v-238h742v-209h-742v-1892h-249z" />
    <glyph glyph-name="fi" unicode="fi" horiz-adv-x="2781" 
d="M2114 0l0.00195312 1892h-1221v-1892h-250v1892h-553v209h553v262c0 248 59.167 436.333 177.5 565s291.166 193 518.499 193c73.333 0 148.666 -6 225.999 -18s148.333 -29 213 -51v-205c-66.667 18.667 -138.5 33.5 -215.5 44.5s-150.167 16.5 -219.5 16.5
c-174 0 -292.5 -44.833 -355.5 -134.5s-94.5 -234.5 -94.5 -434.5v-238h1470v-2101h-249zM2114 2605v361h249v-361h-249z" />
    <glyph glyph-name="fl" unicode="fl" horiz-adv-x="2892" 
d="M643 0l-0.000976562 1892h-553v209h553v262c0 248 61.333 436.333 184 565s301.667 193 537 193c75.333 0 153.333 -6 234 -18s154.334 -29 221.001 -51v-205c-68.667 18.667 -143.5 33.5 -224.5 44.5s-157.833 16.5 -230.5 16.5c-182 0 -306 -44.833 -372 -134.5
s-99 -234.5 -99 -434.5v-238h741v-209h-741v-1892h-250zM2810 29c-114.667 -32.667 -219.667 -49 -315 -49c-144 0 -253 34 -327 102s-111 184 -111 348v2650h249v-2625c0 -88 14.667 -153.667 44 -197s83 -65 161 -65c99.333 0 199 10.667 299 32v-196z" />
    <glyph glyph-name="uniFB03" unicode="ffi" horiz-adv-x="4256" 
d="M3588 0l0.00195312 1892h-1221v-1892h-249v1892h-1225v-1892h-250v1892h-553v209h553v262c0 248 59.167 436.333 177.5 565s291.166 193 518.499 193c73.333 0 148.666 -6 225.999 -18s148.333 -29 213 -51v-205c-66.667 18.667 -138.5 33.5 -215.5 44.5
s-150.167 16.5 -219.5 16.5c-174 0 -292.5 -44.833 -355.5 -134.5s-94.5 -234.5 -94.5 -434.5v-238h1225v262c0 248 59.167 436.333 177.5 565s291.166 193 518.5 193c72.667 0 147.834 -6 225.5 -18c77.667 -12 148.5 -29 212.5 -51v-205
c-66 18.667 -137.667 33.5 -215 44.5s-150.333 16.5 -219 16.5c-174 0 -292.667 -44.833 -356 -134.5s-95 -234.5 -95 -434.5v-238h1471v-2101h-250zM3588 2605v361h250v-361h-250z" />
    <glyph glyph-name="uniFB04" unicode="ffl" horiz-adv-x="4366" 
d="M2118 0l0.00195312 1892h-1225v-1892h-250v1892h-553v209h553v262c0 248 59.167 436.333 177.5 565s291.166 193 518.499 193c73.333 0 148.666 -6 225.999 -18s148.333 -29 213 -51v-205c-66.667 18.667 -138.5 33.5 -215.5 44.5s-150.167 16.5 -219.5 16.5
c-174 0 -292.5 -44.833 -355.5 -134.5s-94.5 -234.5 -94.5 -434.5v-238h1225v262c0 248 61.167 436.333 183.5 565s301.5 193 537.5 193c75.333 0 153.333 -6 234 -18s154 -29 220 -51v-205c-68 18.667 -142.5 33.5 -223.5 44.5s-157.833 16.5 -230.5 16.5
c-182 0 -306.167 -44.833 -372.5 -134.5s-99.5 -234.5 -99.5 -434.5v-238h742v-209h-742v-1892h-249zM4284 29c-114.666 -32.667 -219.666 -49 -315 -49c-144 0 -253 34 -327 102s-111 184 -111 348v2650h249v-2625c0 -88 14.667 -153.667 44 -197s83 -65 161 -65
c99.333 0 199 10.667 299 32v-196z" />
    <glyph glyph-name=".notdef" horiz-adv-x="3543" 
d="M3133 -590h-2723v4244h2723v-4244zM659 -369h2225v3801h-2225v-3801zM1520 766l-25 486.998l385 394c98 100.667 174.833 192 230.5 274s94.667 157.833 117 227.5s33.5 139.834 33.5 210.5c0 82.667 -17 156 -51 220s-88.833 115 -164.5 153s-173.167 57 -292.5 57
c-122 0 -234.167 -13.5 -336.5 -40.5s-215.5 -69.5 -339.5 -127.5v218c107.333 53.333 218.5 94.5 333.5 123.5s234.5 43.5 358.5 43.5c162 0 299.667 -25.167 413 -75.5s199.166 -122.166 257.5 -215.5c58.333 -93.333 87.5 -203.666 87.5 -330.999
c0 -100.667 -14 -194 -42 -280s-70.167 -169.167 -126.5 -249.5s-129.833 -166.166 -220.5 -257.499l-385 -380l-20 -451h-213zM1462 -0.00195312v377h328v-377h-328z" />
    <glyph glyph-name=".null" horiz-adv-x="0" 
 />
    <glyph glyph-name=".null" horiz-adv-x="0" 
 />
    <glyph glyph-name="nonmarkingreturn" unicode="&#xd;" horiz-adv-x="1057" 
 />
    <glyph glyph-name="space" unicode=" " horiz-adv-x="1057" 
 />
    <glyph glyph-name="exclam" unicode="!" horiz-adv-x="1360" 
d="M590 766l-25 455c-13.333 238.667 -20 543 -20 913v832h270v-832c0 -370 -6.66699 -674.333 -20 -913l-25 -455h-180zM516 0v377h328v-377h-328z" />
    <glyph glyph-name="quotedbl" unicode="&#x22;" horiz-adv-x="1610" 
d="M410 2032l-29 151c-19.333 106.667 -29 212 -29 316v467h258v-467c0 -108 -9.33301 -213.333 -28 -316l-29 -151h-143zM1057 2032l-29 151c-19.333 106.667 -29 212 -29 316v467h258v-467c0 -108 -9.33301 -213.333 -28 -316l-29 -151h-143z" />
    <glyph glyph-name="numbersign" unicode="#" horiz-adv-x="2728" 
d="M1556 188l74 721h-635l-73 -721h-226l74 721h-385v197h401l78 799h-479v196h500l61 611h225l-61 -611h635l61 611h226l-62 -611h373v-196h-393l-78 -799h471v-197h-488l-73 -721h-226zM1724 1905h-634l-78 -799h635z" />
    <glyph glyph-name="dollar" unicode="$" 
d="M1143 -295l0.00390625 377.003c-138 4 -273.833 22.167 -407.5 54.5s-247.834 71.5 -342.501 117.5v233c110 -53.333 244.333 -98 403 -134s314 -54 466 -54c172.667 0 313.667 21.833 423 65.5s189 104 239 181s75 166.833 75 269.5
c0 114.667 -26.167 207.167 -78.5 277.5s-126.333 126.5 -222 168.5s-224.834 83 -387.501 123c-197.333 49.333 -359.166 104.166 -485.499 164.499s-225.833 141.333 -298.5 243s-109 232.167 -109 391.5c0 129.333 32.167 244.666 96.5 346
c64.333 101.333 156.666 182.333 276.999 243s262.166 96.334 425.499 107v381h237v-376c112.667 -4.66699 228.5 -22.167 347.5 -52.5s220.167 -67.5 303.5 -111.5v-226c-107.333 52 -225.666 93.667 -354.999 125s-258 47 -386 47c-153.333 0 -281 -19.5 -383 -58.5
s-177.667 -93.667 -227 -164s-74 -153.166 -74 -248.5c0 -114 26.167 -206 78.5 -276s126 -125.5 221 -166.5s224.5 -81.833 388.5 -122.5c195.333 -48.667 356.666 -103.5 483.999 -164.5s227.333 -142.833 299.999 -245.5c72.667 -102.667 109 -233.667 109 -393
c0 -141.333 -36.167 -266.333 -108.5 -375s-175 -194.834 -308 -258.501s-287.833 -100.834 -464.5 -111.501v-377h-237z" />
    <glyph glyph-name="percent" unicode="%" horiz-adv-x="3822" 
d="M991 1556c-153.333 0 -280 30.668 -380 92.001s-173.667 146.166 -221 254.499s-71 234.5 -71 378.5c0 142 24.167 267.333 72.5 376s122.666 194 222.999 256s225.833 93 376.5 93c153.333 0 280 -30.667 380 -92s173.667 -146.166 221 -254.5
c47.333 -108.333 71 -234.5 71 -378.5c0 -142 -24.167 -267.333 -72.5 -376s-122.666 -194 -222.999 -256s-225.833 -93 -376.5 -93zM991 1761c95.333 0 174.166 21.833 236.499 65.5s108.166 104.334 137.499 182.001s44 168.5 44 272.5s-15 195 -45 273
s-76.167 138.833 -138.5 182.5s-140.5 65.5 -234.5 65.5c-95.333 0 -174.166 -21.833 -236.499 -65.5s-108.166 -104.334 -137.499 -182c-29.333 -77.667 -44 -168.834 -44 -273.5c0 -104 15 -194.833 45 -272.5s76.167 -138.334 138.5 -182.001s140.5 -65.5 234.5 -65.5z
M2830 -40.999c-153.333 0 -280 30.667 -380 92s-173.5 146.166 -220.5 254.499s-70.5 234.5 -70.5 378.5c0 142 24 267.333 72 376s122.167 194 222.5 256s225.833 93 376.5 93c153.333 0 280 -30.667 380 -92s173.667 -146.166 221 -254.499s71 -234.5 71 -378.5
c0 -142 -24.167 -267.333 -72.5 -376s-122.666 -194 -223 -256c-100.333 -62 -225.833 -93 -376.5 -93zM2830 164.001c95.333 0 174.166 21.833 236.5 65.5c62.333 43.667 108.166 104.334 137.5 182.001c29.333 77.667 44 168.5 44 272.5s-15 194.833 -45 272.5
s-76.167 138.334 -138.5 182.001s-140.5 65.5 -234.5 65.5c-95.333 0 -174 -21.833 -236 -65.5s-107.667 -104.334 -137 -182.001s-44 -168.5 -44 -272.5s15 -194.833 45 -272.5s76 -138.334 138 -182.001s140 -65.5 234 -65.5zM786 0.000976562l1962 2966h287l-1962 -2966
h-287z" />
    <glyph glyph-name="ampersand" unicode="&#x26;" horiz-adv-x="3301" 
d="M2740 0l-401 369.002c-134 -128 -290.5 -228.333 -469.5 -301s-377.5 -109 -595.5 -109c-211.333 0 -393.666 31.667 -546.999 95s-270.5 153.166 -351.5 269.499s-121.5 252.833 -121.5 409.5c0 132.667 24.833 249.167 74.5 349.5s127.167 192 232.5 275
s246 165.833 422 248.5c-121.333 111.333 -214.333 207.666 -279 288.999s-109.5 157 -134.5 227s-37.5 146.333 -37.5 229c0 124.667 31 236.5 93 335.5s153 177 273 234s264.333 85.5 433 85.5c178.667 0 327 -29.333 445 -88s204.5 -135.167 259.5 -229.5
s82.5 -195.833 82.5 -304.5c0 -116.667 -28.667 -223.334 -86 -320.001s-137.833 -185.167 -241.5 -265.5s-230.834 -158.166 -381.501 -233.499l913 -840c64 98.667 113.5 214 148.5 346s52.5 269.333 52.5 412v217h615v-217h-357c-4 -183.333 -29 -351.833 -75 -505.5
s-113.667 -292.5 -203 -416.5l614 -561h-377zM1159 1446c-158 -76.667 -281.832 -147.5 -371.499 -212.5s-156 -136.333 -199 -214s-64.5 -170.5 -64.5 -278.5c0 -102 29.833 -195.667 89.5 -281s147.167 -153.333 262.5 -204s253.333 -76 414 -76
c176.667 0 339.667 30 489 90s278.666 144.667 387.999 254zM1233 1724c144 70.667 261.166 140.33 351.499 208.997s156.666 138.167 198.999 208.501c42.333 70.333 63.5 144.166 63.5 221.5c0 66.667 -18.667 132.334 -56 197
c-37.333 64.667 -95.166 118.334 -173.499 161c-78.333 42.667 -175.166 64 -290.499 64c-106.667 0 -199.667 -18.5 -279 -55.5s-140 -87.667 -182 -152s-63 -137.166 -63 -218.499c0 -67.333 11.5 -128.5 34.5 -183.5s64.5 -116.667 124.5 -185
s150.333 -157.166 271 -266.499z" />
    <glyph glyph-name="quotesingle" unicode="'" horiz-adv-x="963" 
d="M410 2032l-29 151c-19.333 106.667 -29 212 -29 316v467h258v-467c0 -108 -9.33301 -213.333 -28 -316l-29 -151h-143z" />
    <glyph glyph-name="parenleft" unicode="(" horiz-adv-x="1495" 
d="M1061 -381c-144.667 158 -267.166 331.666 -367.499 520.999s-176.166 387.333 -227.499 594s-77 415.334 -77 626.001c0 212 25.667 421.5 77 628.5s126.833 405.333 226.5 595s221.167 363.5 364.5 521.5h258c-146.667 -161.333 -269.834 -337.333 -369.501 -528
s-174.334 -388.5 -224.001 -593.5s-74.5 -411.5 -74.5 -619.5c0 -210 25 -417.667 75 -623s125 -403.333 225 -594s224 -366.667 372 -528h-258z" />
    <glyph glyph-name="parenright" unicode=")" horiz-adv-x="1495" 
d="M180 -381c146.667 161.333 269.833 337.167 369.5 527.5s174.334 388 224.001 593s74.5 411.833 74.5 620.5c0 209.333 -25 416.833 -75 622.5s-125 403.834 -225 594.501s-224 366.667 -372 528h258c144.667 -158 267.167 -331.667 367.5 -521
s176.166 -387.333 227.499 -594s77 -415.334 77 -626.001c0 -212 -25.667 -421.5 -77 -628.5s-126.833 -405.333 -226.5 -595s-221.167 -363.5 -364.5 -521.5h-258z" />
    <glyph glyph-name="asterisk" unicode="*" horiz-adv-x="1868" 
d="M1176 1741l-152.001 266c-38 65.333 -68 139 -90 221c-24 -86 -54 -159.667 -90 -221l-152 -266l-192 102l155 271c33.333 58 82.666 122 147.999 192c-102 -22 -181.333 -33 -238 -33h-319v217h319c54.667 0 134 -10.667 238 -32c-65.333 70 -114.666 134 -147.999 192
l-155 270l192 103l152 -266c36 -63.333 66 -137.333 90 -222c22 81.333 52 155.333 90 222l152 266l192 -103l-156 -270c-32 -57.333 -81 -121.333 -147 -192c104 21.333 183.333 32 238 32h319v-217h-319c-51.333 0 -130.666 11 -237.999 33
c66 -70.667 115 -134.667 147 -192l156 -271z" />
    <glyph glyph-name="plus" unicode="+" horiz-adv-x="2458" 
d="M1114 193v929h-881v201h881v901h229v-901h881v-201h-881v-929h-229z" />
    <glyph glyph-name="comma" unicode="," horiz-adv-x="1274" 
d="M205 -590l310.999 590l-61 377h196c58 0 101.833 -16.167 131.5 -48.5s44.5 -77.5 44.5 -135.5c0 -84.667 -18.667 -168.5 -56 -251.5s-112.666 -205.5 -225.999 -367.5l-115 -164h-225z" />
    <glyph glyph-name="hyphen" unicode="-" horiz-adv-x="1565" 
d="M246 1098v245h1073v-245h-1073z" />
    <glyph glyph-name="period" unicode="." horiz-adv-x="1245" 
d="M459 0v377h327v-377h-327z" />
    <glyph glyph-name="slash" unicode="/" horiz-adv-x="1864" 
d="M102 0l1397 3080h262l-1396 -3080h-263z" />
    <glyph glyph-name="zero" unicode="0" 
d="M1319 -41c-244.667 0 -445.833 61.999 -603.5 185.999s-273.334 299 -347.001 525s-110.5 495.667 -110.5 809c0 310.667 38 579.834 114 807.501s193.667 404.5 353 530.5s360 189 602 189c244.667 0 445.834 -62 603.501 -186s273.334 -298.833 347 -524.5
c73.667 -225.667 110.5 -495.167 110.5 -808.5c0 -310.667 -38 -580 -114 -808s-193.667 -405 -353 -531s-360 -189 -602 -189zM1323 179.999c182.667 0 333 52.167 451 156.5s204.833 253.333 260.5 447s83.5 426.834 83.5 699.501s-27.833 505.667 -83.5 699
s-142.5 342.166 -260.5 446.5c-118 104.333 -268.333 156.5 -451 156.5s-333 -52.167 -451 -156.5s-204.833 -253.166 -260.5 -446.5c-55.667 -193.333 -83.5 -426.333 -83.5 -699s27.833 -505.834 83.5 -699.501s142.5 -342.667 260.5 -447s268.333 -156.5 451 -156.5z" />
    <glyph glyph-name="one" unicode="1" 
d="M1389 0v2740l-779 -200v221l803 205h234v-2966h-258z" />
    <glyph glyph-name="two" unicode="2" 
d="M332 0l-0.00195312 221.001l823 819c170.667 171.333 307.5 320.5 410.5 447.5s180.5 247.167 232.5 360.5s78 226.333 78 338.999c0 120.667 -24.333 225.667 -73 315s-123 158.833 -223 208.5s-225.333 74.5 -376 74.5c-135.333 0 -269.166 -15 -401.499 -45
s-256.5 -71 -372.5 -123v230c108.667 48.667 230.834 87.334 366.501 116c135.667 28.667 275.834 43 420.501 43c208 0 381.167 -32 519.5 -96s241.166 -156.333 308.499 -277s101 -266.667 101 -438c0 -148.667 -33.167 -292.5 -99.5 -431.5s-157 -275.667 -272 -410
s-265.5 -290.5 -451.5 -468.5l-688 -664h1630v-221h-1933z" />
    <glyph glyph-name="three" unicode="3" 
d="M336 340c116 -50.667 234.834 -89.998 356.501 -117.998s259.5 -42 413.5 -42c179.333 0 327 27.333 443 82s200.833 129.667 254.5 225s80.5 206 80.5 332c0 130 -26.333 239.667 -79 329s-137.334 157.833 -254.001 205.5s-269 71.5 -457 71.5h-242v217h229
c138.667 0 257.667 22.667 357 68s175.333 110.666 228 195.999s79 187.333 79 305.999c0 109.333 -25 207.333 -75 294s-123.667 154.834 -221 204.5c-97.333 49.667 -214.333 74.5 -351 74.5c-114.667 0 -232.667 -15.333 -354 -46s-230 -71.334 -326 -122.001v226
c94.667 51.333 202 91.333 322 120s242 43 366 43c186 0 347.333 -31.333 484 -94s241.667 -153 315 -271s110 -258.333 110 -421c0 -154.667 -36.167 -288.167 -108.5 -400.5s-176.833 -195.833 -313.5 -250.5c193.333 -51.333 335.166 -142.166 425.499 -272.499
s135.5 -288.166 135.5 -473.499c0 -172.667 -38.5 -323.834 -115.5 -453.501s-194.167 -230.5 -351.5 -302.5s-352.333 -108 -585 -108c-157.333 0 -300.166 13.333 -428.499 40s-240.833 64 -337.5 112v229z" />
    <glyph glyph-name="four" unicode="4" 
d="M1700 0v705h-1573v221l1540 2040h291v-2040h516v-221h-516v-705h-258zM1700 2347c0 86.667 2.66699 196 8 328c-64.667 -96.667 -131.667 -191 -201 -283l-1106 -1466h1299v1421z" />
    <glyph glyph-name="five" unicode="5" 
d="M381 344c120.667 -47.333 253.501 -86.5 398.501 -117.5s294.833 -46.5 449.5 -46.5c176.667 0 321 26.667 433 80s194.167 130 246.5 230s78.5 222 78.5 366c0 146 -42.5 265.5 -127.5 358.5s-197.833 163.667 -338.5 212s-292.834 81.5 -456.501 99.5
s-347.834 29.667 -552.501 35l53 1405h1561v-222h-1331l-37 -970c183.333 -6 359.333 -23 528 -51s326.834 -75.167 474.501 -141.5s267.334 -159.333 359.001 -279s137.5 -268.5 137.5 -446.5s-37.333 -334.167 -112 -468.5s-189.334 -239.333 -344.001 -315
s-348 -113.5 -580 -113.5c-159.333 0 -311 14.833 -455 44.5s-272.333 68.167 -385 115.5v225z" />
    <glyph glyph-name="six" unicode="6" 
d="M2253 2703c-104.667 25.333 -206.503 45.333 -305.503 60s-197.833 22 -296.5 22c-225.333 0 -414.166 -44.833 -566.499 -134.5s-269.666 -225.334 -351.999 -407c-82.333 -181.667 -131.166 -410.834 -146.499 -687.501c114 84.667 243 153.667 387 207
s296.333 80 457 80c213.333 0 393.166 -39.167 539.499 -117.5s256 -188.166 329 -329.499s109.5 -306.333 109.5 -495c0 -166.667 -36.667 -321.5 -110 -464.5s-185 -258.333 -335 -346s-334.667 -131.5 -554 -131.5c-238.667 0 -439.667 52.333 -603 157
s-286.666 260.167 -369.999 466.5s-125 461.5 -125 765.5c0 360 48.667 662.833 146 908.5s245.5 432 444.5 559s450.167 190.5 753.5 190.5c103.333 0 207.5 -7.5 312.5 -22.5s200.167 -34.5 285.5 -58.5v-222zM581.997 1323c4 -274 40.333 -495.499 109 -664.499
s163.834 -291 285.501 -366s267.167 -112.5 436.5 -112.5c148.667 0 277.5 29.167 386.5 87.5s192.667 141.5 251 249.5s87.5 234.667 87.5 380c0 148 -26.5 276.167 -79.5 384.5s-133 192.166 -240 251.499s-239.5 89 -397.5 89
c-146.667 0 -292.834 -26.167 -438.501 -78.5s-279.167 -125.833 -400.5 -220.5z" />
    <glyph glyph-name="seven" unicode="7" 
d="M569 0l1459 2736h-1692v230h1974v-230l-1446 -2736h-295z" />
    <glyph glyph-name="eight" unicode="8" 
d="M1786 1552c187.333 -56.667 332.502 -150.167 435.502 -280.5s154.5 -283.833 154.5 -460.5c0 -166.667 -37.5 -313.834 -112.5 -441.501s-191.5 -228 -349.5 -301s-356.333 -109.5 -595 -109.5c-240.667 0 -439.334 36.167 -596.001 108.5
s-271.334 171.166 -344.001 296.499s-109 269 -109 431c0 180.667 51.833 335.834 155.5 465.501s248.5 226.834 434.5 291.501c-154.667 64.667 -272.5 155.167 -353.5 271.5s-121.5 248.5 -121.5 396.5c0 162 35.833 301.833 107.5 419.5s178.334 208.167 320.001 271.5
s314.5 95 518.5 95c206.667 0 379.667 -30.667 519 -92s243.333 -149.166 311.999 -263.5c68.667 -114.333 103 -250.833 103 -409.5c0 -155.333 -40.833 -291.5 -122.5 -408.5s-200.5 -210.5 -356.5 -280.5zM2105 803c0 116 -28.333 221.333 -85 316
s-143.334 170.167 -260.001 226.5s-261 84.5 -433 84.5s-317 -28.167 -435 -84.5s-206 -131.833 -264 -226.5s-87 -200 -87 -316c0 -126 28.167 -235.5 84.5 -328.5s142.666 -165.333 258.999 -217s262.5 -77.5 438.5 -77.5c176.667 0 323.334 26 440.001 78
s202.834 124.667 258.501 218s83.5 202.333 83.5 327zM1995 2232c0 118 -26.832 218.335 -80.499 301.002s-130.834 145.334 -231.501 188c-100.667 42.667 -220.667 64 -360 64c-140 0 -260 -21.5 -360 -64.5s-176.333 -106 -229 -189s-79 -182.833 -79 -299.5
c0 -114 26.333 -214.833 79 -302.5s129.5 -156 230.5 -205s221.833 -73.5 362.5 -73.5c106 0 200.667 13.667 284 41s153.5 66.666 210.5 117.999s100.167 112.666 129.5 183.999s44 150.666 44 238z" />
    <glyph glyph-name="nine" unicode="9" 
d="M393 262c104.667 -25.333 206.502 -45.334 305.502 -60.001s197.833 -22 296.5 -22c228 0 419.333 46.167 574 138.5s273.5 234.666 356.5 426.999s129.167 438.166 138.5 737.499c-113.333 -86.667 -243.5 -157.5 -390.5 -212.5s-297.833 -82.5 -452.5 -82.5
c-213.333 0 -393.833 38.833 -541.5 116.5s-258.167 184.334 -331.5 320.001s-110 290.5 -110 464.5c0 160.667 37.5 310.834 112.5 450.5c75 139.667 187.667 252.334 338 338.001s333.166 128.5 548.499 128.5c238.667 0 439.667 -52.333 603 -157
s286.666 -260.167 369.999 -466.5s125 -461.166 125 -764.499c0 -360 -48.667 -663 -146 -909s-245.5 -432.5 -444.5 -559.5s-450.167 -190.5 -753.5 -190.5c-102.667 0 -206.5 7.66699 -311.5 23s-200.5 35 -286.5 59v221zM2064 1712
c-9.33301 253.333 -48.332 459.333 -116.999 617.999c-68.667 158.667 -163 274.167 -283 346.5s-263.667 108.5 -431 108.5c-146.667 0 -274.667 -29 -384 -87s-193.5 -139.333 -252.5 -244s-88.5 -225 -88.5 -361c0 -134 26.667 -252.333 80 -355s134 -183.167 242 -241.5
s241 -87.5 399 -87.5c140.667 0 284.667 26.833 432 80.5s281.666 127.834 402.999 222.501z" />
    <glyph glyph-name="colon" unicode=":" horiz-adv-x="1274" 
d="M459 1724v377h327v-377h-327zM459 0v377h327v-377h-327z" />
    <glyph glyph-name="semicolon" unicode=";" horiz-adv-x="1274" 
d="M459 1724v377h327v-377h-327zM205 -590l310.999 590l-61 377h196c58 0 101.833 -16.167 131.5 -48.5s44.5 -77.5 44.5 -135.5c0 -84.667 -18.667 -168.5 -56 -251.5s-112.666 -205.5 -225.999 -367.5l-115 -164h-225z" />
    <glyph glyph-name="less" unicode="&#x3c;" horiz-adv-x="2458" 
d="M1729 180l-1369 1032l1369 1033h368l-1372 -1033l1372 -1032h-368z" />
    <glyph glyph-name="equal" unicode="=" horiz-adv-x="2458" 
d="M295 717v201h1868v-201h-1868zM295 1532v201h1868v-201h-1868z" />
    <glyph glyph-name="greater" unicode="&#x3e;" horiz-adv-x="2458" 
d="M729 180h-369l1373 1032l-1373 1033h369l1368 -1033z" />
    <glyph glyph-name="question" unicode="?" horiz-adv-x="2085" 
d="M717 766l-28.999 500.002l373 352c150.667 141.333 265.5 271.333 344.5 390s118.5 240 118.5 364c0 76 -20.333 145.667 -61 209s-102.334 113.833 -185.001 151.5s-183.667 56.5 -303 56.5c-125.333 0 -246.5 -14.167 -363.5 -42.5s-234.833 -70.166 -353.5 -125.5v218
c104 52 220.333 92.833 349 122.5s256.667 44.5 384 44.5c162 0 303.167 -25 423.5 -75s213 -120.333 278 -211s97.5 -196 97.5 -316c0 -160.667 -38.833 -306.334 -116.5 -437.001s-197.167 -270.334 -358.5 -419.001l-393 -364l-25 -418h-180zM647.001 0.00195312v377h328
v-377h-328z" />
    <glyph glyph-name="at" unicode="@" horiz-adv-x="4276" 
d="M1855 131c-138.667 0 -260.334 27.665 -365.001 82.998s-186 137.333 -244 246s-87 240.667 -87 396c0 202 43.667 395.667 131 581s214.666 336.166 381.999 452.499s365 174.5 593 174.5c95.333 0 188.666 -12.667 280 -38
c91.333 -25.333 168.666 -61.666 232 -108.999l53 106h197l-320 -1409c-19.333 -86.667 -14.833 -153.334 13.5 -200.001s90.833 -70 187.5 -70c123.333 0 251.166 41.5 383.5 124.5c132.333 83 244.166 212.5 335.5 388.5c91.333 176 137 395.667 137 659
c0 222.667 -51.833 431.167 -155.5 625.5s-261.667 351.5 -474 471.5s-473.5 180 -783.5 180c-373.333 0 -699.166 -81.667 -977.499 -245s-492.166 -389.833 -641.499 -679.5s-224 -618.834 -224 -987.501c0 -309.333 59.667 -575.333 179 -798
s299.333 -393.834 540 -513.501s539 -179.5 895 -179.5c116.667 0 232 7.16699 346 21.5s221 35.833 321 64.5v-205c-104 -29.333 -214.167 -51.666 -330.5 -66.999s-236.833 -23 -361.5 -23c-405.333 0 -743.5 71 -1014.5 213s-472 338.5 -603 589.5
s-196.5 541.833 -196.5 872.5c0 420 85.167 792.333 255.5 1117s412.5 577.334 726.5 758.001s680 271 1098 271c360 0 662.167 -71 906.5 -213s425.5 -325.167 543.5 -549.5s177 -460.166 177 -707.499c0 -318 -57.5 -582.333 -172.5 -793s-256.667 -364.667 -425 -462
s-333.833 -146 -496.5 -146c-121.333 0 -219 22.333 -293 67s-119.667 104.334 -137 179.001c-66.667 -73.333 -155.334 -132.666 -266 -177.999c-110.667 -45.333 -225.667 -68 -345 -68zM1872 343.998c125.333 0 233.498 23.333 324.498 70s176.833 113.334 257.5 200.001
l253 1123c-58 35.333 -122.333 63.166 -193 83.499s-149.667 30.5 -237 30.5c-177.333 0 -330.666 -45.5 -459.999 -136.5s-227.666 -211.5 -294.999 -361.5s-101 -311.667 -101 -485c0 -120 19 -219 57 -297s90.667 -135.333 158 -172s146 -55 236 -55z" />
    <glyph glyph-name="A" unicode="A" horiz-adv-x="2720" 
d="M2343 0l-307 836h-1368l-308 -836h-270l1122 2966h299l1119 -2966h-287zM1442 2462c-34.667 94.667 -63.333 180.667 -86 258c-28 -92.667 -56.667 -178.667 -86 -258l-520 -1409h1208z" />
    <glyph glyph-name="B" unicode="B" horiz-adv-x="2654" 
d="M451 0l0.000976562 2966h802c211.333 0 390.166 -30 536.499 -90s257.333 -148.333 333 -265s113.5 -259.334 113.5 -428.001c0 -104 -16.333 -199.167 -49 -285.5s-79.834 -159.666 -141.5 -219.999c-61.667 -60.333 -134.5 -104.833 -218.5 -133.5
c124 -32 226.833 -83.167 308.5 -153.5s142.167 -155.166 181.5 -254.499s59 -209 59 -329c0 -166.667 -37.5 -310.167 -112.5 -430.5s-189.167 -213.166 -342.5 -278.499s-344.333 -98 -573 -98h-897zM1356 220.998c173.333 0 315.501 23.333 426.501 70
s192.5 113.5 244.5 200.5s78 192.167 78 315.5c0 124 -26.5 229.5 -79.5 316.5s-135.333 153.667 -247 200s-253.834 69.5 -426.501 69.5h-643v-1172h647zM1225 1610c170.667 0 310.999 22.832 420.999 68.499s190.833 110.334 242.5 194.001s77.5 184.5 77.5 302.5
s-25.667 219.333 -77 304s-132.666 150 -243.999 196s-254 69 -428 69h-508v-1134h516z" />
    <glyph glyph-name="C" unicode="C" horiz-adv-x="2519" 
d="M2298 119c-103.333 -44 -226.329 -81.666 -368.996 -112.999s-283.334 -47 -422.001 -47c-271.333 0 -497.333 61.5 -678 184.5s-314.834 297.833 -402.501 524.5s-131.5 497 -131.5 811c0 313.333 45.5 584.166 136.5 812.499s227.667 404.5 410 528.5
s407.166 186 674.499 186c132.667 0 267.334 -15 404.001 -45s249 -68 337 -114v-230c-118.667 53.333 -240.834 94.666 -366.501 124c-125.667 29.333 -252.167 44 -379.5 44c-210 0 -385.5 -51.167 -526.5 -153.5s-246.167 -250.333 -315.5 -444s-104 -428.5 -104 -704.5
c0 -271.333 34.167 -504 102.5 -698s173.166 -343.333 314.499 -448s319.333 -157 534 -157c134 0 268.833 14 404.5 42s261.5 66 377.5 114v-217z" />
    <glyph glyph-name="D" unicode="D" horiz-adv-x="2900" 
d="M451 0v2966h860c304.667 0 553 -62.167 745 -186.5s331.5 -296.333 418.5 -516s130.5 -478.5 130.5 -776.5c0 -300 -44.667 -560.333 -134 -781s-233 -393.5 -431 -518.5s-454.667 -187.5 -770 -187.5h-819zM1282 221c247.333 0 448.832 49.667 604.499 149
s269.334 241.833 341.001 427.5s107.5 412.834 107.5 681.501c0 271.333 -35 500.166 -105 686.499s-183.5 329.333 -340.5 429s-363.5 149.5 -619.5 149.5h-561v-2523h573z" />
    <glyph glyph-name="E" unicode="E" horiz-adv-x="2462" 
d="M451 0v2966h1822v-222h-1564v-1118h1343v-217h-1343v-1188h1564v-221h-1822z" />
    <glyph glyph-name="F" unicode="F" horiz-adv-x="2318" 
d="M451 0v2966h1712v-222h-1454v-1183h1347v-222h-1347v-1339h-258z" />
    <glyph glyph-name="G" unicode="G" horiz-adv-x="2908" 
d="M1516 -41c-280 0 -510.835 63.333 -692.502 190s-315.167 303.167 -400.5 529.5s-128 493.166 -128 800.499c0 325.333 49.5 602 148.5 830s244.833 401.167 437.5 519.5s427.334 177.5 704.001 177.5c128.667 0 267 -14.167 415 -42.5s274.667 -65.833 380 -112.5v-217
c-124.667 46.667 -259.167 83.5 -403.5 110.5s-280.166 40.5 -407.499 40.5c-220.667 0 -405.5 -48 -554.5 -144s-261.167 -240.667 -336.5 -434s-113 -434.666 -113 -723.999c0 -265.333 33 -495 99 -689s170.167 -344.833 312.5 -452.5s324.833 -161.5 547.5 -161.5
c240.667 0 479.667 42.333 717 127v1073h-787v217h1045v-1417c-327.333 -147.333 -655 -221 -983 -221z" />
    <glyph glyph-name="H" unicode="H" horiz-adv-x="3047" 
d="M2339 0v1409h-1630v-1409h-258v2966h258v-1336h1630v1336h258v-2966h-258z" />
    <glyph glyph-name="I" unicode="I" horiz-adv-x="1159" 
d="M451 0v2966h258v-2966h-258z" />
    <glyph glyph-name="J" unicode="J" horiz-adv-x="1421" 
d="M4 -291c54.667 -10.667 112 -16.001 172 -16.001c116 0 213.5 23.833 292.5 71.5s139.5 124.334 181.5 230.001s63 244.167 63 415.5v2334h-463v222h721v-2540c0 -224 -33.167 -406.833 -99.5 -548.5s-158 -244.667 -275 -309s-254.5 -96.5 -412.5 -96.5
c-70 0 -130 6.66699 -180 20v217z" />
    <glyph glyph-name="K" unicode="K" horiz-adv-x="2666" 
d="M2220 0l-1511 1421v-1421h-258v2966h258v-1389l1499 1389h348l-1348 -1246l-245 -200l208 -185l1430 -1335h-381z" />
    <glyph glyph-name="L" unicode="L" horiz-adv-x="2146" 
d="M451 0v2966h258v-2745h1355v-221h-1613z" />
    <glyph glyph-name="M" unicode="M" horiz-adv-x="3617" 
d="M451 2966h315l926 -1532c52 -84.667 94.333 -164 127 -238c30.667 72 73 151.333 127 238l925 1532h295v-2966h-258v2302c0 113.333 4 225.333 12 336c-43.333 -102.667 -96.333 -205 -159 -307l-860 -1426h-185l-860 1426c-64.667 105.333 -118 207.666 -160 307
c8.66699 -106.667 13 -218.667 13 -336v-2302h-258v2966z" />
    <glyph glyph-name="N" unicode="N" horiz-adv-x="3129" 
d="M2400 0l-1442 2171c-110 170 -198.667 325.667 -266 467c11.333 -136 17 -298.667 17 -488v-2150h-258v2966h282l1438 -2163c110 -170 198.667 -325.667 266 -467c-10.667 138.667 -16 301 -16 487v2143h258v-2966h-279z" />
    <glyph glyph-name="O" unicode="O" horiz-adv-x="2994" 
d="M1491 -41c-273.333 0 -499.165 64.5 -677.498 193.5s-309.333 307 -393 534s-125.5 491.167 -125.5 792.5c0 298.667 43.167 562.5 129.5 791.5s219.666 408.833 399.999 539.5s406.5 196 678.5 196c273.333 0 499.166 -64.5 677.499 -193.5s309.333 -307 393 -534
s125.5 -490.833 125.5 -791.5c0 -299.333 -43.167 -563.5 -129.5 -792.5s-219.666 -408.833 -400 -539.5c-180.333 -130.667 -406.5 -196 -678.5 -196zM1499 180c212 0 387.167 54.666 525.5 163.999s240.333 261.333 306 456s98.5 422.334 98.5 683.001
s-32.833 488.167 -98.5 682.5s-168 346.166 -307 455.5c-139 109.333 -315.167 164 -528.5 164c-212 0 -387.167 -54.667 -525.5 -164s-240.333 -261.166 -306 -455.499s-98.5 -421.833 -98.5 -682.5s32.833 -488.334 98.5 -683.001s168 -346.667 307 -456
s315.167 -164 528.5 -164z" />
    <glyph glyph-name="P" unicode="P" horiz-adv-x="2486" 
d="M451 0v2966h901c217.333 0 398.666 -36.667 543.999 -110s253.5 -176.666 324.5 -310c71 -133.333 106.5 -291 106.5 -473c0 -170 -34.167 -322.167 -102.5 -456.5s-176.666 -241.333 -324.999 -321s-337.833 -119.5 -568.5 -119.5h-622v-1176h-258zM1343 1397
c162.667 0 297.166 28.168 403.499 84.501s184.5 134.666 234.5 234.999s75 217.5 75 351.5c0 138.667 -25.333 258.167 -76 358.5s-130.667 178.333 -240 234s-249.666 83.5 -420.999 83.5h-610v-1347h634z" />
    <glyph glyph-name="Q" unicode="Q" horiz-adv-x="2994" 
d="M2331 -516c-18 0 -33 2.83301 -45 8.5s-24.333 15.167 -37 28.5l-475 467c-87.333 -19.333 -181.666 -29 -282.999 -29c-273.333 0 -499.166 64.5 -677.499 193.5s-309.333 307 -393 534s-125.5 491.167 -125.5 792.5c0 298.667 43.167 562.5 129.5 791.5
s219.666 408.833 399.999 539.5s406.5 196 678.5 196c273.333 0 499.166 -64.5 677.499 -193.5s309.333 -307 393 -534s125.5 -490.833 125.5 -791.5c0 -231.333 -25.333 -441 -76 -629s-127 -349.5 -229 -484.5s-228.333 -237.5 -379 -307.5
c62 -40 112.667 -79.667 152 -119l475 -463h-311zM1499 180c212 0 387.167 54.666 525.5 163.999s240.333 261.333 306 456s98.5 422.334 98.5 683.001s-32.833 488.167 -98.5 682.5s-168 346.166 -307 455.5c-139 109.333 -315.167 164 -528.5 164
c-212 0 -387.167 -54.667 -525.5 -164s-240.333 -261.166 -306 -455.499s-98.5 -421.833 -98.5 -682.5s32.833 -488.334 98.5 -683.001s168 -346.667 307 -456s315.167 -164 528.5 -164z" />
    <glyph glyph-name="R" unicode="R" horiz-adv-x="2724" 
d="M2208 0l-717 1032c-63.333 90.667 -124.5 155 -183.5 193s-131.5 57 -217.5 57h-381v-1282h-258v2966h843c223.333 0 409 -34.667 557 -104s257.5 -166.666 328.5 -292c71 -125.333 106.5 -273.333 106.5 -444c0 -160 -31.167 -298.167 -93.5 -414.5
s-149.166 -208 -260.499 -275s-240.666 -108.833 -387.999 -125.5c37.333 -21.333 76.666 -53.833 117.999 -97.5s82.666 -94.5 123.999 -152.5l741 -1061h-319zM1294 1499c148.667 0 276.667 22.167 384 66.5s190.333 112.833 249 205.5s88 209.667 88 351
c0 125.333 -25.333 234.333 -76 327s-130.167 165 -238.5 217s-246.5 78 -414.5 78h-577v-1245h585z" />
    <glyph glyph-name="S" unicode="S" horiz-adv-x="2400" 
d="M254 389c113.333 -58.667 250.998 -108.167 412.998 -148.5s319.333 -60.5 472 -60.5c176.667 0 321 24.5 433 73.5s193.333 116.5 244 202.5s76 186.667 76 302c0 126 -26.667 227.833 -80 305.5s-128.833 139.5 -226.5 185.5s-230.167 91 -397.5 135
c-199.333 52 -363.666 110.667 -492.999 176s-231 153 -305 263s-111 250.667 -111 422c0 144.667 35.5 274.334 106.5 389c71 114.667 178.667 205.334 323 272c144.333 66.667 321.833 100 532.5 100c133.333 0 267.833 -16.5 403.5 -49.5s252.5 -76.5 350.5 -130.5v-233
c-110 58 -231 104.5 -363 139.5s-263.667 52.5 -395 52.5c-155.333 0 -285 -22 -389 -66s-181.167 -105.5 -231.5 -184.5s-75.5 -171.5 -75.5 -277.5c0 -126 26.667 -227.833 80 -305.5s128.833 -139.5 226.5 -185.5s230.167 -91.333 397.5 -136
c198.667 -52 362.834 -110.5 492.501 -175.5s231.5 -152.5 305.5 -262.5s111 -250.667 111 -422c0 -158 -39.167 -298 -117.5 -420s-194.5 -217.667 -348.5 -287s-340 -104 -558 -104c-172.667 0 -334.167 17.167 -484.5 51.5s-280.833 81.5 -391.5 141.5v237z" />
    <glyph glyph-name="T" unicode="T" horiz-adv-x="2454" 
d="M1098 0v2744h-971v222h2200v-222h-971v-2744h-258z" />
    <glyph glyph-name="U" unicode="U" horiz-adv-x="2916" 
d="M2241 2966l258.002 0.00195312v-1999c0 -236 -41.667 -428.667 -125 -578s-202.333 -258.333 -357 -327s-342.334 -103 -563.001 -103c-223.333 0 -411.5 33.833 -564.5 101.5s-269.833 174.167 -350.5 319.5s-121 332.666 -121 561.999v2024h258v-1999
c0 -265.333 64.167 -462.833 192.5 -592.5s326.166 -194.5 593.499 -194.5c263.333 0 459 64.167 587 192.5s192 322.166 192 581.499v2012z" />
    <glyph glyph-name="V" unicode="V" horiz-adv-x="2679" 
d="M1188 0l-1106 2966h287l888 -2462c34.667 -94.667 63.334 -180.667 86.001 -258c25.333 82 54.333 168 87 258l897 2462h270l-1110 -2966h-299z" />
    <glyph glyph-name="W" unicode="W" horiz-adv-x="4407" 
d="M3047 0l-770 2290c-40 121.333 -70 231.666 -90 331c-24 -121.333 -52.667 -231.666 -86 -331l-737 -2290h-279l-995 2966h279l753 -2290c49.333 -146.667 86.333 -269.667 111 -369c30 124.667 65.333 247.667 106 369l738 2290h250l753 -2290
c49.333 -146.667 86.333 -269.667 111 -369c30 124.667 65.333 247.667 106 369l754 2290h266l-995 -2966h-275z" />
    <glyph glyph-name="X" unicode="X" horiz-adv-x="2499" 
d="M2105 0l-708 1090c-56 84 -105.333 163 -148 237l-155 -242l-717 -1085h-295l1012 1520l-955 1446h312l651 -996c72.667 -110 123 -192 151 -246c29.333 54.667 80 136.667 152 246l655 996h295l-950 -1430l1012 -1536h-312z" />
    <glyph glyph-name="Y" unicode="Y" horiz-adv-x="2441" 
d="M1090 0l-0.00195312 1176l-1041 1790h299l762 -1332c52.667 -90.667 92.334 -163 119.001 -217c26.667 54 66.334 126.333 119.001 217l761 1332h283l-1044 -1799v-1167h-258z" />
    <glyph glyph-name="Z" unicode="Z" horiz-adv-x="2507" 
d="M176 0v221l1790 2523h-1745v222h2048v-222l-1790 -2523h1852v-221h-2155z" />
    <glyph glyph-name="bracketleft" unicode="[" horiz-adv-x="1495" 
d="M512 -381v3486h750v-205h-504v-3076h504v-205h-750z" />
    <glyph glyph-name="backslash" unicode="\" horiz-adv-x="1864" 
d="M1499 0l-1397 3080h263l1396 -3080h-262z" />
    <glyph glyph-name="bracketright" unicode="]" horiz-adv-x="1495" 
d="M233 -381v205h504v3076h-504v205h750v-3486h-750z" />
    <glyph glyph-name="asciicircum" unicode="^" horiz-adv-x="1819" 
d="M1438 1794l-529 987l-524 -987h-242l611 1172h315l606 -1172h-237z" />
    <glyph glyph-name="underscore" unicode="_" horiz-adv-x="1675" 
d="M-29 -209v209h1733v-209h-1733z" />
    <glyph glyph-name="grave" unicode="`" horiz-adv-x="1790" 
d="M1044 2454l-520 552h348l422 -552h-250z" />
    <glyph glyph-name="a" unicode="a" horiz-adv-x="2335" 
d="M1704 0l-12.002 201c-94.667 -72.667 -202.334 -131.167 -323.001 -175.5s-248 -66.5 -382 -66.5c-145.333 0 -272 23 -380 69s-191.167 112.167 -249.5 198.5s-87.5 188.166 -87.5 305.499c0 143.333 41.167 263.5 123.5 360.5s207.5 170.5 375.5 220.5s380 75 636 75
c87.333 0 180 -1.33301 278 -4v192c0 129.333 -19.167 234.5 -57.5 315.5s-98.166 140.833 -179.499 179.5s-188 58 -320 58c-143.333 0 -272.166 -16.167 -386.499 -48.5s-221.5 -72.166 -321.5 -119.499v213c101.333 50.667 212.333 91.334 333 122.001
s251.334 46 392.001 46c157.333 0 294.5 -23.167 411.5 -69.5s209.333 -122.333 277 -228s101.5 -243.834 101.5 -414.501v-1430h-229zM1683 979l-278 -0.00292969c-208.667 0 -377.5 -16.667 -506.5 -50s-223 -82.166 -282 -146.499s-88.5 -144.833 -88.5 -241.5
c0 -73.333 17.333 -137.666 52 -192.999s89 -98.5 163 -129.5s167.667 -46.5 281 -46.5c116 0 229.667 19.833 341 59.5s217.333 97.834 318 174.501v573z" />
    <glyph glyph-name="b" unicode="b" horiz-adv-x="2540" 
d="M418 0l-0.00195312 3080h250v-1179c100.667 77.333 205.667 136.833 315 178.5s224 62.5 344 62.5c194.667 0 361.834 -41 501.501 -123s246.667 -203.5 321 -364.5s111.5 -357.5 111.5 -589.5c0 -238 -39.333 -439.833 -118 -605.5s-188.667 -290.5 -330 -374.5
s-306 -126 -494 -126c-124 0 -241.167 18 -351.5 54s-213.166 86.333 -308.499 151l-12 -164h-229zM667.998 381c95.333 -68 195.832 -119.832 301.499 -155.499s215.167 -53.5 328.5 -53.5c151.333 0 279 32.667 383 98s183 163.666 237 294.999s81 295.333 81 492
c0 192.667 -26.667 353.667 -80 483s-131.666 226.5 -234.999 291.5s-230.333 97.5 -381 97.5c-113.333 0 -221 -20 -323 -60s-206 -100.333 -312 -181v-1307z" />
    <glyph glyph-name="c" unicode="c" horiz-adv-x="2073" 
d="M1839 119c-78.667 -48 -171.327 -86.665 -277.994 -115.998s-221.334 -44 -344.001 -44c-198.667 0 -368.334 43.667 -509.001 131s-247.334 212.666 -320.001 375.999s-109 357.666 -109 582.999c0 212.667 35.5 401.167 106.5 565.5s178.667 293.333 323 387
s323.166 140.5 536.499 140.5c102 0 202.5 -11.167 301.5 -33.5s182.833 -50.833 251.5 -85.5v-225c-68.667 36 -155.334 66.833 -260.001 92.5s-206.334 38.5 -305.001 38.5c-154.667 0 -283.5 -36 -386.5 -108s-179.667 -173.167 -230 -303.5s-75.5 -283.833 -75.5 -460.5
c0 -190.667 26.5 -352 79.5 -484s130.5 -231.833 232.5 -299.5s226 -101.5 372 -101.5c110.667 0 216.667 13.667 318 41s200 67 296 119v-213z" />
    <glyph glyph-name="d" unicode="d" horiz-adv-x="2540" 
d="M1892 0l-15.998 204.999c-102.667 -79.333 -208.834 -140.166 -318.501 -182.499s-224.834 -63.5 -345.501 -63.5c-194 0 -360.833 41 -500.5 123s-246.667 203.5 -321 364.5s-111.5 357.5 -111.5 589.5c0 238 39.333 439.833 118 605.5s188.667 290.5 330 374.5
s306 126 494 126c123.333 0 240 -17.833 350 -53.5s210.333 -84.5 301 -146.5v1138h250v-3080h-230zM1872 1720c-95.333 68 -196.001 119.832 -302.001 155.499s-215.667 53.5 -329 53.5c-150.667 0 -278 -32.667 -382 -98s-183 -163.666 -237 -294.999
s-81 -295.333 -81 -492c0 -192.667 26.5 -353.667 79.5 -483s131.333 -226.5 235 -291.5s230.834 -97.5 381.501 -97.5c112.667 0 220.167 20.167 322.5 60.5s206.5 100.833 312.5 181.5v1306z" />
    <glyph glyph-name="e" unicode="e" horiz-adv-x="2343" 
d="M1970 127c-85.333 -48 -190.667 -87.999 -316 -119.999s-267 -48 -425 -48c-219.333 0 -399.5 43.833 -540.5 131.5s-244.5 213 -310.5 376s-99 359.833 -99 590.5c0 211.333 35 398.833 105 562.5s174 291.667 312 384s304.667 138.5 500 138.5
c189.333 0 349.833 -42.833 481.5 -128.5s230.5 -203.167 296.5 -352.5s99 -319.333 99 -510c0 -44.667 -3 -85.667 -9 -123h-1523c4 -196.667 30.167 -357.5 78.5 -482.5s124 -218.5 227 -280.5s238.5 -93 406.5 -93c139.333 0 260 12.167 362 36.5
s220.333 64.166 355 119.499v-201zM1815 1237c-6 140 -34.002 262 -84.002 366s-120.833 184.333 -212.5 241s-200.5 85 -326.5 85c-122.667 0 -231.167 -28.5 -325.5 -85.5s-169.166 -137.667 -224.499 -242s-87.666 -225.833 -96.999 -364.5h1270z" />
    <glyph glyph-name="f" unicode="f" horiz-adv-x="1647" 
d="M643 0l-0.000976562 1892h-553v209h553v262c0 248 61.333 436.333 184 565s301.667 193 537 193c75.333 0 153.333 -6 234 -18s154.334 -29 221.001 -51v-205c-68.667 18.667 -143.5 33.5 -224.5 44.5s-157.833 16.5 -230.5 16.5c-182 0 -306 -44.833 -372 -134.5
s-99 -234.5 -99 -434.5v-238h741v-209h-741v-1892h-250z" />
    <glyph glyph-name="g" unicode="g" horiz-adv-x="2540" 
d="M1872 201c-101.333 -77.333 -206.667 -137.003 -316 -179.003s-224 -63 -344 -63c-194 0 -360.833 41 -500.5 123s-246.667 203.5 -321 364.5s-111.5 357.5 -111.5 589.5c0 238 39.333 439.833 118 605.5s188.667 290.5 330 374.5s306 126 494 126
c124 0 241.167 -18 351.5 -54s212.833 -86.333 307.5 -151l12 164h230v-2101c0 -207.333 -37 -381.666 -111 -522.999s-183.667 -247.833 -329 -319.5s-325 -107.5 -539 -107.5c-138 0 -268.167 12.167 -390.5 36.5s-229.833 55.833 -322.5 94.5v217
c94.667 -39.333 202.5 -71.666 323.5 -96.999s250.833 -38 389.5 -38c171.333 0 310.5 27.5 417.5 82.5s185.667 138.333 236 250s75.5 254.834 75.5 429.501v176zM1872 1720c-95.333 68 -196.001 119.832 -302.001 155.499s-215.667 53.5 -329 53.5
c-150.667 0 -278 -32.667 -382 -98s-183 -163.666 -237 -294.999s-81 -295.333 -81 -492c0 -192.667 26.5 -353.667 79.5 -483s131.333 -226.5 235 -291.5s230.834 -97.5 381.501 -97.5c112.667 0 220.167 20.167 322.5 60.5s206.5 100.833 312.5 181.5v1306z" />
    <glyph glyph-name="h" unicode="h" horiz-adv-x="2540" 
d="M1888 0l-0.000976562 1438c0 121.333 -19.833 218 -59.5 290s-97.167 123.5 -172.5 154.5s-170 46.5 -284 46.5c-134 0 -258 -19.667 -372 -59s-224.667 -100 -332 -182v-1688h-250v3080h250v-1179c94.667 72.667 203.334 131 326.001 175s252.667 66 390 66
c157.333 0 292 -22.667 404 -68s198.333 -116.5 259 -213.5s91 -221.5 91 -373.5v-1487h-250z" />
    <glyph glyph-name="i" unicode="i" horiz-adv-x="1085" 
d="M418 0v2101h250v-2101h-250zM418 2605v361h250v-361h-250z" />
    <glyph glyph-name="j" unicode="j" horiz-adv-x="1085" 
d="M-197 -721c49.333 -10.667 102.666 -16 159.999 -16c107.333 0 194.333 25.833 261 77.5s115.667 131.5 147 239.5s47 248 47 420v2101h250v-2146c0 -204 -27 -373.333 -81 -508s-132 -234.5 -234 -299.5s-225 -97.5 -369 -97.5c-65.333 0 -125.666 6.66699 -180.999 20
v209zM418 2605v361h250v-361h-250z" />
    <glyph glyph-name="k" unicode="k" horiz-adv-x="2154" 
d="M1769 0l-1101 1024v-1024h-250v3080h250v-1929l1040 950h320l-955 -868c-52.667 -48.667 -103 -91 -151 -127c82.667 -62.667 149.334 -117.334 200.001 -164.001l1020 -942h-373z" />
    <glyph glyph-name="l" unicode="l" horiz-adv-x="1245" 
d="M1163 29c-114.667 -32.667 -219.667 -49 -315 -49c-144 0 -253 34 -327 102s-111 184 -111 348v2650h249v-2625c0 -88 14.667 -153.667 44 -197s83 -65 161 -65c99.333 0 199 10.667 299 32v-196z" />
    <glyph glyph-name="m" unicode="m" horiz-adv-x="3977" 
d="M3326 0v1438c0 121.333 -19.667 218 -59 290s-96.166 123.5 -170.5 154.5c-74.333 31 -167.166 46.5 -278.5 46.5c-88.667 0 -172.667 -8.66699 -252 -26s-156.833 -44.666 -232.5 -81.999s-151.834 -86 -228.5 -146c6 -24.667 10.333 -53.5 13 -86.5s4 -66.833 4 -101.5
v-1487h-250v1438c0 121.333 -19.667 218 -59 290s-96.166 123.5 -170.499 154.5s-167.166 46.5 -278.499 46.5c-130.667 0 -252.667 -19.667 -366 -59s-223.333 -100 -330 -182v-1688h-250v2101h229l17 -205c96 74.667 205 134.334 327 179.001s250.333 67 385 67
c165.333 0 303.666 -25 414.999 -75s195.666 -126 252.999 -228c116 100 240.5 175.5 373.5 226.5s270.5 76.5 412.5 76.5c154.667 0 287.334 -22.667 398 -68c110.667 -45.333 196.334 -116.5 257 -213.5c60.667 -97 91 -221.5 91 -373.5v-1487h-250z" />
    <glyph glyph-name="n" unicode="n" horiz-adv-x="2540" 
d="M1888 0v1438c0 121.333 -19.833 218 -59.5 290s-97.167 123.5 -172.5 154.5s-170 46.5 -284 46.5c-134 0 -258 -19.667 -372 -59s-224.667 -100 -332 -182v-1688h-250v2101h229l17 -205c96 74.667 205.5 134.334 328.5 179.001s253.5 67 391.5 67
c157.333 0 292 -22.667 404 -68s198.333 -116.5 259 -213.5s91 -221.5 91 -373.5v-1487h-250z" />
    <glyph glyph-name="o" unicode="o" horiz-adv-x="2494" 
d="M1245 -41c-217.333 0 -397.998 46.3311 -541.998 138.998s-250.667 220.5 -320 383.5s-104 352.167 -104 567.5c0 212.667 35.5 401.167 106.5 565.5s179.167 293.333 324.5 387s325 140.5 539 140.5c217.333 0 398.166 -46.167 542.499 -138.5
s251.166 -220.166 320.499 -383.499s104 -352.333 104 -567c0 -213.333 -35.5 -402.166 -106.5 -566.499s-179.167 -293.333 -324.5 -387s-325.333 -140.5 -540 -140.5zM1245 171.998c162.667 0 296.667 36.001 402 108.001s182.833 173.5 232.5 304.5
s74.5 287.167 74.5 468.5c0 179.333 -25 334.166 -75 464.499s-127.5 231.5 -232.5 303.5s-237.5 108 -397.5 108c-162 0 -295.667 -36 -401 -108s-182.833 -173.5 -232.5 -304.5s-74.5 -286.833 -74.5 -467.5c0 -179.333 25 -334.333 75 -465s127.5 -232 232.5 -304
s237.167 -108 396.5 -108z" />
    <glyph glyph-name="p" unicode="p" horiz-adv-x="2540" 
d="M418 -922l-0.00195312 3023h229l17 -205c102.667 79.333 208.667 140.166 318 182.499s224.333 63.5 345 63.5c194.667 0 361.834 -41 501.501 -123s246.667 -203.5 321.001 -364.5c74.333 -161 111.5 -357.5 111.5 -589.5c0 -238 -39.333 -439.833 -118 -605.5
s-188.667 -290.5 -330 -374.5s-306 -126 -494 -126c-122 0 -238.5 17.833 -349.5 53.5s-211.5 84.834 -301.5 147.501v-1082h-250zM667.998 381c95.333 -68 195.832 -119.832 301.499 -155.499s215.167 -53.5 328.5 -53.5c151.333 0 279 32.667 383 98
s183 163.666 237 294.999s81 295.333 81 492c0 192.667 -26.667 353.667 -80 483s-131.666 226.5 -234.999 291.5s-230.333 97.5 -381 97.5c-113.333 0 -221 -20 -323 -60s-206 -100.333 -312 -181v-1307z" />
    <glyph glyph-name="q" unicode="q" horiz-adv-x="2548" 
d="M1872 -922l-0.000976562 1123c-101.333 -77.333 -206.666 -137 -315.999 -179s-224 -63 -344 -63c-194 0 -360.833 41 -500.5 123s-246.667 203.5 -321 364.5s-111.5 357.5 -111.5 589.5c0 238 39.333 439.833 118 605.5s188.667 290.5 330 374.5s306 126 494 126
c124 0 241.167 -18 351.5 -54s212.833 -86.333 307.5 -151l12 164h230v-3023h-250zM1872 1720c-95.333 68 -196.001 119.832 -302.001 155.499s-215.667 53.5 -329 53.5c-150.667 0 -278 -32.667 -382 -98s-183 -163.666 -237 -294.999s-81 -295.333 -81 -492
c0 -192.667 26.5 -353.667 79.5 -483s131.333 -226.5 235 -291.5s230.834 -97.5 381.501 -97.5c112.667 0 220.167 20.167 322.5 60.5s206.5 100.833 312.5 181.5v1306z" />
    <glyph glyph-name="r" unicode="r" horiz-adv-x="1720" 
d="M418 0l0.000976562 2101h229l17 -319c42.667 66.667 94 126.834 154 180.501s131.167 97 213.5 130s174.166 49.5 275.499 49.5c62 0 118.5 -5.33301 169.5 -16s96.833 -24.334 137.5 -41.001v-238c-50 15.333 -104.833 28.166 -164.5 38.499s-114.167 15.5 -163.5 15.5
c-98 0 -183.833 -17.167 -257.5 -51.5s-139 -85.166 -196 -152.499s-111.833 -153.666 -164.5 -258.999v-1438h-250z" />
    <glyph glyph-name="s" unicode="s" horiz-adv-x="2048" 
d="M262 319c90 -41.333 198.498 -76.1719 325.498 -104.505s250.5 -42.5 370.5 -42.5c136.667 0 248.834 15.5 336.501 46.5s151.834 74.833 192.501 131.5s61 124.334 61 203.001c0 80.667 -21 145.334 -63 194.001s-99.5 87 -172.5 115s-174.5 57.333 -304.5 88
c-166 39.333 -300.333 82.166 -403 128.499s-182 108 -238 185s-84 176.167 -84 297.5c0 112 27.167 211.5 81.5 298.5s139.166 155.833 254.499 206.5s261.333 76 438 76c110 0 219.5 -12.167 328.5 -36.5s202.833 -57.166 281.5 -98.5v-213
c-88 40.667 -185.667 73.334 -293 98.001s-214.333 37 -321 37c-121.333 0 -220.666 -14.333 -297.999 -43s-133.833 -69 -169.5 -121s-53.5 -114.667 -53.5 -188c0 -80.667 21 -145.5 63 -194.5s99.667 -87.5 173 -115.5s175 -57 305 -87
c166 -39.333 300.333 -82.166 403 -128.499s182 -108 238 -185s84 -176.167 84 -297.5s-31 -227.666 -93 -318.999s-156.5 -162.666 -283.5 -213.999s-284.167 -77 -471.5 -77c-130 0 -255.167 12.833 -375.5 38.5s-224.5 60.5 -312.5 104.5v217z" />
    <glyph glyph-name="t" unicode="t" horiz-adv-x="1749" 
d="M1597 49c-51.333 -24.667 -119.502 -45.833 -204.502 -63.5s-170.833 -26.5 -257.5 -26.5c-122.667 0 -227.167 15.833 -313.5 47.5s-154.666 88.667 -204.999 171s-75.5 196.5 -75.5 342.5v1372h-430v209h430l12 623h238v-623h847v-209h-847v-1343
c0 -103.333 15.333 -182.5 46 -237.5s72.834 -92 126.501 -111s121.5 -28.5 203.5 -28.5c80 0 156.333 7.83301 229 23.5s139.667 36.5 201 62.5v-209z" />
    <glyph glyph-name="u" unicode="u" horiz-adv-x="2523" 
d="M1876 0l-15.9961 205c-96.667 -74.667 -206 -134.334 -328 -179.001s-250.333 -67 -385 -67c-154.667 0 -287.334 22.667 -398.001 68s-196.334 116.5 -257.001 213.5s-91 221.5 -91 373.5v1487h250v-1437c0 -121.333 19.667 -218.166 59 -290.499
s96.166 -124 170.499 -155s167.166 -46.5 278.499 -46.5c130.667 0 252.667 19.833 366 59.5s223.333 100.5 330 182.5v1687h250v-2101h-229z" />
    <glyph glyph-name="v" unicode="v" horiz-adv-x="2044" 
d="M881 0l-820 2101h275l594 -1577c44 -117.333 76.667 -223.666 98 -318.999c26.667 97.333 60.667 202.333 102 315l582 1581h270l-823 -2101h-278z" />
    <glyph glyph-name="w" unicode="w" horiz-adv-x="3310" 
d="M2224 0l-483 1487c-24.667 66.667 -53.334 165 -86.001 295c-18 -68.667 -46.667 -167 -86 -295l-484 -1487h-294l-713 2101h270l520 -1601c18.667 -56.667 47.334 -155 86.001 -295c14.667 71.333 40.667 169.666 78 294.999l520 1601h217l521 -1601
c37.333 -125.333 63 -223.666 77 -294.999c44 154 73 252.333 87 295l507 1601h271l-713 -2101h-295z" />
    <glyph glyph-name="x" unicode="x" horiz-adv-x="2122" 
d="M1692 0l-627 905l-651 -905h-303l798 1077l-757 1024h315l590 -848l610 848h295l-754 -1020l803 -1081h-319z" />
    <glyph glyph-name="y" unicode="y" horiz-adv-x="2044" 
d="M12 -725c37.333 -8 85.335 -11.999 144.002 -11.999c108 0 204.667 20.667 290 62s163.666 110.333 234.999 207s136.666 226.667 195.999 390l16 45l-832 2134h275l594 -1577c44 -117.333 76.667 -223.666 98 -318.999c26.667 97.333 60.667 202.333 102 315l582 1581
h270l-884 -2257c-71.333 -184.667 -151 -335.334 -239 -452.001s-187.5 -202.834 -298.5 -258.501s-236.5 -83.5 -376.5 -83.5c-64.667 0 -122 6.66699 -172 20v205z" />
    <glyph glyph-name="z" unicode="z" horiz-adv-x="2097" 
d="M225 0v209l1311 1683h-1266v209h1557v-205l-1311 -1687h1356v-209h-1647z" />
    <glyph glyph-name="braceleft" unicode="{" horiz-adv-x="1638" 
d="M1176 -381c-127.333 0 -228.666 18.3301 -303.999 54.9971s-130.333 95 -165 175s-52 187.667 -52 323v807c0 74 -10.5 131.5 -31.5 172.5s-53.333 69.667 -97 86s-101.834 24.5 -174.501 24.5h-119v204h119c72.667 0 130.834 8.16699 174.501 24.5s76 45 97 86
s31.5 98.5 31.5 172.5v803c0 135.333 17.333 243 52 323s89.667 138.333 165 175s176.666 55 303.999 55h229v-205h-229c-77.333 0 -135.5 -12 -174.5 -36s-65.5 -62 -79.5 -114s-21 -126.333 -21 -223v-774c0 -95.333 -20.667 -175.166 -62 -239.499
s-105.333 -112.833 -192 -145.5c85.333 -29.333 149 -77.666 191 -144.999s63 -148.666 63 -243.999v-782c0 -96.667 7 -171 21 -223s40.5 -90 79.5 -114s97.167 -36 174.5 -36h229v-205h-229z" />
    <glyph glyph-name="bar" unicode="|" horiz-adv-x="1450" 
d="M606 -922v4002h238v-4002h-238z" />
    <glyph glyph-name="braceright" unicode="}" horiz-adv-x="1638" 
d="M233 -381v205.003h230c77.333 0 135.5 12 174.5 36s65.333 62 79 114s20.5 126.333 20.5 223v778c0 95.333 20.667 175.166 62 239.499s105.333 112.833 192 145.5c-85.333 29.333 -149 77.666 -191 144.999s-63 148.666 -63 243.999v778
c0 96.667 -6.83301 171 -20.5 223s-40 90 -79 114s-97.167 36 -174.5 36h-230v205h230c127.333 0 228.666 -18.333 303.999 -55s130.166 -95 164.499 -175s51.5 -187.667 51.5 -323v-803c0 -74 10.5 -131.5 31.5 -172.5s53.333 -69.667 97 -86s101.834 -24.5 174.501 -24.5
h119v-204h-119c-72.667 0 -130.834 -8.16699 -174.501 -24.5s-76 -45 -97 -86s-31.5 -98.5 -31.5 -172.5v-807c0 -135.333 -17.167 -243 -51.5 -323s-89.166 -138.333 -164.499 -175s-176.666 -55 -303.999 -55h-230z" />
    <glyph glyph-name="asciitilde" unicode="~" horiz-adv-x="1749" 
d="M1634 1462c0 -66.667 -8.66992 -128.17 -26.0029 -184.503s-43.666 -105.166 -78.999 -146.499s-80.333 -73.666 -135 -96.999s-119.334 -35 -194.001 -35c-49.333 0 -95 6.33301 -137 19s-81.5 28.667 -118.5 48s-72.333 40 -106 62l-99 62
c-32.333 19.333 -64.833 35.333 -97.5 48s-66.334 19 -101.001 19c-39.333 0 -72.166 -5.33301 -98.499 -16s-47.833 -26.834 -64.5 -48.501s-28.5 -48.667 -35.5 -81s-10.5 -69.833 -10.5 -112.5h-217c0 66.667 8.66699 128.334 26 185.001s43.666 105.5 78.999 146.5
s80.333 73.167 135 96.5s119.334 35 194.001 35c49.333 0 95 -6.33301 137 -19s81.5 -28.667 118.5 -48s72.333 -40 106 -62l99 -62c32.333 -19.333 64.833 -35.333 97.5 -48s66.334 -19 101.001 -19c38.667 0 71.334 5.33301 98.001 16s48.334 26.834 65.001 48.501
s28.5 48.5 35.5 80.5s10.5 69.667 10.5 113h217z" />
    <glyph glyph-name="uni00A0" unicode="&#xa0;" horiz-adv-x="1057" 
 />
    <glyph glyph-name="exclamdown" unicode="&#xa1;" horiz-adv-x="1360" 
d="M545 -864v831c0 370 6.66699 674.667 20 914l25 454h180l25 -454c13.333 -239.333 20 -544 20 -914v-831h-270zM516 1724v377h328v-377h-328z" />
    <glyph glyph-name="cent" unicode="&#xa2;" 
d="M1303 -143l-0.000976562 461.999c-201.333 12.667 -375.833 63.834 -523.5 153.501s-262 219 -343 388s-121.5 375.167 -121.5 618.5c0 222 38.667 417.167 116 585.5s190 302 338 401s326 156.5 534 172.5v471h237v-467c106.667 -6 209 -19.667 307 -41
s182.667 -48.666 254 -82v-229c-83.333 39.333 -188.5 73 -315.5 101s-249.833 42 -368.5 42c-187.333 0 -343.666 -39.5 -468.999 -118.5s-218.333 -189.167 -279 -330.5s-91 -307 -91 -497c0 -206.667 32.167 -381.5 96.5 -524.5s158.166 -251.167 281.499 -324.5
s273 -110 449 -110c134 0 262.167 14.833 384.5 44.5s242.5 72.167 360.5 127.5v-213c-82.667 -47.333 -176.667 -85 -282 -113s-214.666 -46.333 -327.999 -55v-462h-237z" />
    <glyph glyph-name="sterling" unicode="&#xa3;" 
d="M393 0l-0.00292969 221h45c74 0 137.667 19 191 57s94.333 94.333 123 169s43 166 43 274v635h-369v217h369v541c0 221.333 34 398 102 530s159.333 225.333 274 280s247.334 82 398.001 82c90 0 178.667 -7.83301 266 -23.5s172 -37.834 254 -66.5v-221
c-79.333 27.333 -164.833 49.166 -256.5 65.5c-91.667 16.333 -182.167 24.5 -271.5 24.5c-115.333 0 -210.166 -22.167 -284.499 -66.5s-130.166 -116.5 -167.499 -216.5s-56 -233.667 -56 -401v-528h921v-217h-921v-623c0 -126 -19.833 -230.833 -59.5 -314.5
s-92.167 -149.5 -157.5 -197.5h1503v-221h-1946z" />
    <glyph glyph-name="currency" unicode="&#xa4;" 
d="M1876 782c-78 -59.333 -164.667 -104.833 -260 -136.5s-193 -47.5 -293 -47.5s-197.667 15.833 -293 47.5s-182 77.167 -260 136.5l-278 -299l-189 181l307 278c-60 72.667 -107 156.834 -141 252.501s-51 195.834 -51 300.501s17 204.834 51 300.501
s81 179.834 141 252.501l-307 279l189 180l278 -299c78 59.333 164.5 104.833 259.5 136.5s192.833 47.5 293.5 47.5s198.5 -15.833 293.5 -47.5s181.5 -77.167 259.5 -136.5l278 299l189 -180l-307 -279c60 -72.667 107 -156.834 141 -252.501s51 -195.834 51 -300.501
s-17 -204.834 -51 -300.501s-81 -179.834 -141 -252.501l307 -278l-189 -181zM1323 819c120.667 0 231.334 30.5 332.001 91.5s180.334 143.333 239.001 247s88 216.167 88 337.5s-29.333 233.833 -88 337.5s-138.334 186 -239.001 247s-211.334 91.5 -332.001 91.5
s-231.334 -30.5 -332.001 -91.5s-180.334 -143.333 -239.001 -247s-88 -216.167 -88 -337.5s29.333 -233.833 88 -337.5s138.334 -186 239.001 -247s211.334 -91.5 332.001 -91.5z" />
    <glyph glyph-name="yen" unicode="&#xa5;" 
d="M1450 659v-659h-258v659h-897v218h897v356l-53 94h-844v217h717l-828 1422h299l729 -1274c49.333 -86 89 -158.333 119 -217c30 58.667 69.667 131 119 217l729 1274h283l-828 -1422h713v-217h-840l-57 -102v-348h897v-218h-897z" />
    <glyph glyph-name="brokenbar" unicode="&#xa6;" horiz-adv-x="1450" 
d="M606 -381v1372h238v-1372h-238zM606 1733v1372h238v-1372h-238z" />
    <glyph glyph-name="section" unicode="&#xa7;" 
d="M1245 -319c-142.667 0 -282.673 16.333 -420.006 49s-255.333 76.334 -354 131.001v233c111.333 -58.667 233.833 -105.334 367.5 -140.001s271.834 -52 414.501 -52c158 0 286.167 13.667 384.5 41s169.5 65.833 213.5 115.5s66 109.5 66 179.5
c0 71.333 -17 130.333 -51 177s-99.333 92.5 -196 137.5s-243.667 97.167 -441 156.5c-248.667 74 -436 144.833 -562 212.5s-211.333 139.667 -256 216s-67 172.166 -67 287.499c0 118.667 37.833 231.334 113.5 338.001s156.5 186.667 242.5 240
c-76 50.667 -134.5 109.5 -175.5 176.5s-61.5 152.833 -61.5 257.5c0 112 32.167 210.667 96.5 296s162.333 152.166 294 200.5c131.667 48.333 294.834 72.5 489.501 72.5c129.333 0 261.833 -15 397.5 -45s254.5 -68 356.5 -114v-234
c-117.333 50.667 -241.166 92 -371.499 124s-259.166 48 -386.499 48c-142 0 -258.667 -13.833 -350 -41.5s-158.166 -66.334 -200.499 -116c-42.333 -49.667 -63.5 -109.167 -63.5 -178.5c0 -71.333 17 -130.333 51 -177s99.5 -92.667 196.5 -138
s243.833 -97.333 440.5 -156c248.667 -74 436 -144.833 562 -212.5s211.333 -139.667 256 -216s67 -172.166 67 -287.499c0 -118.667 -37.833 -231.334 -113.5 -338.001s-156.5 -186.667 -242.5 -240c78.667 -52 137.834 -112 177.501 -180s59.5 -152.667 59.5 -254
c0 -112.667 -33 -211.667 -99 -297s-168.667 -152 -308 -200s-315 -72 -527 -72zM2035.99 1253c0 78.667 -17.667 142.833 -53 192.5s-100.833 96.667 -196.5 141s-241.834 95.833 -438.501 154.5c-110 33.333 -202.333 63 -277 89s-134 49.667 -178 71
c-90.667 -69.333 -161.167 -146.833 -211.5 -232.5s-75.5 -163.834 -75.5 -234.501c0 -78.667 17.667 -142.834 53 -192.501s100.833 -96.667 196.5 -141s241.834 -95.833 438.501 -154.5c102.667 -30.667 191.5 -59.167 266.5 -85.5s137.833 -51.166 188.5 -74.499
c90.667 69.333 161.167 146.833 211.5 232.5s75.5 163.834 75.5 234.501z" />
    <glyph glyph-name="dieresis" unicode="&#xa8;" horiz-adv-x="1790" 
d="M356 2605v361h250v-361h-250zM1176 2605v361h249v-361h-249z" />
    <glyph glyph-name="copyright" unicode="&#xa9;" horiz-adv-x="3564" 
d="M2281 737c-64.667 -38 -139.497 -68.666 -224.497 -91.999s-176.5 -35 -274.5 -35c-160.667 0 -297.334 34 -410.001 102s-198.167 167.167 -256.5 297.5s-87.5 288.166 -87.5 473.499c0 170.667 28.167 321.5 84.5 452.5s142.666 233.667 258.999 308
s261.166 111.5 434.499 111.5c81.333 0 161.5 -8.66699 240.5 -26s146.5 -40 202.5 -68v-217c-51.333 26.667 -117 49.667 -197 69s-157.667 29 -233 29c-118.667 0 -217.334 -27.333 -296.001 -82s-137.167 -131 -175.5 -229s-57.5 -212.667 -57.5 -344
c0 -142.667 20.333 -263.5 61 -362.5s99.834 -174 177.501 -225s171.5 -76.5 281.5 -76.5c86 0 168 10.167 246 30.5s153 49.833 225 88.5v-205zM1790 3006c304.667 0 568.168 -65.334 790.501 -196.001s392 -311.167 509 -541.5s175.5 -492.166 175.5 -785.499
c0 -289.333 -60.167 -549.5 -180.5 -780.5s-293.166 -412.667 -518.5 -545c-225.333 -132.333 -489.333 -198.5 -792 -198.5c-304.667 0 -568.167 65.333 -790.5 196s-392 311.167 -509 541.5s-175.5 492.5 -175.5 786.5c0 289.333 60.167 549.333 180.5 780
s293.166 412.167 518.499 544.5s489.333 198.5 792 198.5zM1778 2798c-259.333 0 -483.499 -55.833 -672.499 -167.5s-333.167 -266.667 -432.5 -465s-149 -425.833 -149 -682.5s49.833 -484.334 149.5 -683.001s244.5 -353.667 434.5 -465s416 -167 678 -167
c259.333 0 483.333 55.833 671.999 167.5c188.667 111.667 332.667 266.667 432 465s149 425.833 149 682.5s-49.833 484.334 -149.5 683.001s-244.334 353.667 -434 465c-189.667 111.333 -415.5 167 -677.5 167z" />
    <glyph glyph-name="ordfeminine" unicode="&#xaa;" horiz-adv-x="2036" 
d="M1491 1286l-12.001 159.999c-76 -56.667 -162 -101.5 -258 -134.5s-197 -49.5 -303 -49.5c-129.333 0 -239.666 17.667 -330.999 53s-160.833 86.833 -208.5 154.5s-71.5 149.834 -71.5 246.501c0 114.667 34.5 211.167 103.5 289.5s174.333 137.833 316 178.5
s320.167 61 535.5 61h208v143c0 95.333 -15.5 172.166 -46.5 230.5c-31 58.333 -79.667 101.333 -146 129s-153.5 41.5 -261.5 41.5c-117.333 0 -224.833 -12.667 -322.5 -38s-185.5 -56.333 -263.5 -93v197c82 40 172.833 72.5 272.5 97.5s208.167 37.5 325.5 37.5
c133.333 0 249.5 -18.667 348.5 -56s177 -99.166 234 -185.5c57 -86.333 85.5 -199.833 85.5 -340.5v-1122h-205zM306.999 564.999v197h1401v-197h-1401zM1470 2052l-228.999 -0.00292969c-165.333 0 -299.333 -12.667 -402 -38s-177.334 -62.166 -224.001 -110.499
s-70 -108.166 -70 -179.499c0 -86 32.167 -151.833 96.5 -197.5s157.833 -68.5 280.5 -68.5c99.333 0 194 16.333 284 49s178 79.334 264 140.001v405z" />
    <glyph glyph-name="guillemotleft" unicode="&#xab;" horiz-adv-x="2310" 
d="M983 467l-688 762l688 762h270l-647 -762l647 -762h-270zM1745 467l-688 762l688 762h270l-647 -762l647 -762h-270z" />
    <glyph glyph-name="logicalnot" unicode="&#xac;" horiz-adv-x="2458" 
d="M1958 532v590h-1725v201h1946v-791h-221z" />
    <glyph glyph-name="uni00AD" unicode="&#xad;" horiz-adv-x="1565" 
d="M246 1098v245h1073v-245h-1073z" />
    <glyph glyph-name="registered" unicode="&#xae;" horiz-adv-x="2761" 
d="M2486 2028c0 -197.333 -50.167 -379.833 -150.5 -547.5s-235.333 -300.667 -405 -399s-353.167 -147.5 -550.5 -147.5s-380.833 49.167 -550.5 147.5s-304.667 231.333 -405 399s-150.5 350.167 -150.5 547.5c0 196.667 50.167 378.834 150.5 546.5
c100.333 167.667 235.333 300.667 405 399s353.167 147.5 550.5 147.5c192.667 0 374 -49.333 544 -148s306.167 -231.834 408.5 -399.5c102.333 -167.667 153.5 -349.5 153.5 -545.5zM1380 1098c167.333 0 321.332 41.833 461.999 125.5s251.834 196.667 333.501 339
s122.5 297.5 122.5 465.5s-40.833 323.167 -122.5 465.5s-192.667 255.166 -333 338.5c-140.333 83.333 -294.5 125 -462.5 125c-167.333 0 -321.166 -41.667 -461.499 -125s-251.333 -196.166 -333 -338.5c-81.667 -142.333 -122.5 -297.5 -122.5 -465.5
s40.833 -323.167 122.5 -465.5s192.667 -255.333 333 -339s294.166 -125.5 461.499 -125.5zM1688 1434l-250.001 388.996c-27.333 41.333 -48.833 67.333 -64.5 78s-40.834 16 -75.501 16h-155v-483h-205v1200h446c90.667 0 170.334 -12.167 239.001 -36.5
s122.5 -62.166 161.5 -113.499s58.5 -116 58.5 -194c0 -66.667 -13.167 -123.667 -39.5 -171s-60.666 -84.166 -102.999 -110.499s-88.833 -43.166 -139.5 -50.499c34 -19.333 66.667 -53.666 98 -102.999l278 -421h-249zM1364 2081c58 0 106.833 6.83301 146.5 20.5
s70.167 35.834 91.5 66.5c21.333 30.667 32 71.334 32 122c0 60 -21 105 -63 135s-108.333 45 -199 45h-229v-389h221z" />
    <glyph glyph-name="macron" unicode="&#xaf;" horiz-adv-x="1790" 
d="M348 2605v205h1094v-205h-1094z" />
    <glyph glyph-name="degree" unicode="&#xb0;" horiz-adv-x="1720" 
d="M1536 2343c0 -120.667 -29.333 -230.667 -88 -330s-139.5 -177.666 -242.5 -234.999s-218.167 -86 -345.5 -86s-242.5 28.667 -345.5 86s-183.833 135.666 -242.5 234.999s-88 209.333 -88 330c0 120 29.333 229.667 88 329s139.5 177.833 242.5 235.5
s218.167 86.5 345.5 86.5s242.5 -28.833 345.5 -86.5s183.833 -136.167 242.5 -235.5s88 -209 88 -329zM860 1901c86 0 162 19.668 228 59.001s116.833 92.833 152.5 160.499c35.667 67.667 53.5 141.834 53.5 222.5c0 80.667 -17.833 154.834 -53.5 222.5
c-35.667 67.667 -86.5 121.167 -152.5 160.5s-142 59 -228 59s-162 -19.667 -228 -59s-116.833 -92.833 -152.5 -160.5s-53.5 -141.834 -53.5 -222.5c0 -80.667 17.833 -154.834 53.5 -222.5c35.667 -67.667 86.5 -121.167 152.5 -160.5s142 -59 228 -59z" />
    <glyph glyph-name="plusminus" unicode="&#xb1;" horiz-adv-x="2458" 
d="M1343 1389v-861h-229v861h-827v200h827v840h229v-840h828v-200h-828zM287 0v201h1884v-201h-1884z" />
    <glyph glyph-name="twosuperior" unicode="&#xb2;" horiz-adv-x="1630" 
d="M217 1478v192l434 360c100.667 84 182.334 159.667 245.001 227s109.167 131 139.5 191s45.5 119 45.5 177c0 58.667 -12.167 109.5 -36.5 152.5s-62 76.167 -113 99.5s-115.833 35 -194.5 35c-77.333 0 -156.333 -7.83301 -237 -23.5s-156 -37.834 -226 -66.5v196
c67.333 26 141.166 46.833 221.499 62.5s160.833 23.5 241.5 23.5c132 0 241 -19.5 327 -58.5s149.333 -93.667 190 -164s61 -153.166 61 -248.5c0 -97.333 -23.833 -188 -71.5 -272s-108.667 -161.167 -183 -231.5s-173.833 -153.833 -298.5 -250.5l-266 -209h888v-192
h-1167z" />
    <glyph glyph-name="threesuperior" unicode="&#xb3;" horiz-adv-x="1630" 
d="M238 1736c59.333 -25.333 132.669 -46.666 220.002 -63.999s177.666 -26 270.999 -26c82.667 0 152.5 11.333 209.5 34s99.833 54.667 128.5 96s43 89.666 43 144.999c0 88 -35.5 158.5 -106.5 211.5s-177.5 79.5 -319.5 79.5h-168v192h168
c119.333 0 210.666 22.833 273.999 68.5s95 111.5 95 197.5c0 52 -13.833 96.167 -41.5 132.5s-66.667 63.666 -117 82c-50.333 18.333 -109.5 27.5 -177.5 27.5c-66.667 0 -139.167 -8 -217.5 -24s-151.833 -38 -220.5 -66v196c66.667 26 139.334 46.833 218.001 62.5
s154.667 23.5 228 23.5c122.667 0 225.667 -16 309 -48s146.166 -79 188.499 -141s63.5 -138.333 63.5 -229c0 -80.667 -21.333 -152 -64 -214s-103.334 -110.667 -182.001 -146c98.667 -34 173.834 -86.333 225.501 -157s77.5 -152 77.5 -244
c0 -94 -23.5 -176.333 -70.5 -247s-116.667 -125.667 -209 -165s-203.833 -59 -334.5 -59c-94.667 0 -185.167 8.66699 -271.5 26s-159.5 40 -219.5 68v188z" />
    <glyph glyph-name="acute" unicode="&#xb4;" horiz-adv-x="1790" 
d="M508 2454l422 552h348l-520 -552h-250z" />
    <glyph glyph-name="mu" unicode="&#xb5;" horiz-adv-x="2580" 
d="M2249 -33c-82.667 0 -156.497 21.334 -221.497 64.001s-108.833 102 -131.5 178c-102 -76 -216 -136.667 -342 -182s-256.333 -68 -391 -68c-108.667 0 -204.834 12.167 -288.501 36.5s-158.167 64.166 -223.5 119.499c11.333 -110.667 17 -232.334 17 -365.001v-672
h-250v3023h250v-1437c0 -121.333 19.667 -218.166 59 -290.499s96.166 -124 170.499 -155s167.166 -46.5 278.499 -46.5c130.667 0 252.667 19.833 366 59.5s223.333 100.5 330 182.5v1687h250v-1679c0 -87.333 13.5 -149.5 40.5 -186.5s68.167 -55.5 123.5 -55.5
c69.333 0 140.333 8.33301 213 25v-193c-74.667 -30 -158 -45 -250 -45z" />
    <glyph glyph-name="paragraph" unicode="&#xb6;" horiz-adv-x="3006" 
d="M2298 -922v3679h-627v-3679h-258v2052h-53c-266 0 -486.333 38.667 -661 116s-303.5 184.666 -386.5 321.999s-124.5 297.333 -124.5 480c0 183.333 41 343.5 123 480.5s210.5 244.167 385.5 321.5s397.5 116 667.5 116h1192v-3888h-258z" />
    <glyph glyph-name="periodcentered" unicode="&#xb7;" horiz-adv-x="1245" 
d="M459 1044v377h327v-377h-327z" />
    <glyph glyph-name="cedilla" unicode="&#xb8;" horiz-adv-x="1790" 
d="M782 -938c-83.333 0 -161.001 11.0039 -233.001 33.0039v176c60.667 -14 134.334 -21 221.001 -21c34.667 0 67.667 4.66699 99 14s57.5 26.166 78.5 50.499s31.5 57.5 31.5 99.5c0 44.667 -14 82.167 -42 112.5s-63.5 54.166 -106.5 71.499
s-93.167 32.666 -150.5 45.999l221 397h197l-160 -287c89.333 -32 159.5 -76 210.5 -132s76.5 -122.667 76.5 -200c0 -83.333 -20.5 -151.833 -61.5 -205.5s-94.833 -92.834 -161.5 -117.501s-140 -37 -220 -37z" />
    <glyph glyph-name="onesuperior" unicode="&#xb9;" horiz-adv-x="1630" 
d="M729 1478v1393l-369 -90v196l414 103h189v-1602h-234z" />
    <glyph glyph-name="ordmasculine" unicode="&#xba;" horiz-adv-x="2302" 
d="M1151 1262c-182.667 0 -333.5 36.498 -452.5 109.498s-206.5 174 -262.5 303s-84 279.5 -84 451.5c0 168.667 28.5 317.834 85.5 447.501s145.167 231.5 264.5 305.5s269 111 449 111c182.667 0 333.5 -36.5 452.5 -109.5s206.5 -174 262.5 -303s84 -279.5 84 -451.5
c0 -169.333 -28.5 -318.666 -85.5 -447.999s-145.167 -231 -264.5 -305s-269 -111 -449 -111zM1151 1463c128.667 0 234.667 27.168 318 81.501s144.666 130.666 183.999 228.999s59 214.5 59 348.5c0 133.333 -19.833 249.833 -59.5 349.5s-101.334 177.5 -185.001 233.5
s-189.167 84 -316.5 84c-128.667 0 -234.667 -27.333 -318 -82s-144.666 -131.167 -183.999 -229.5s-59 -214.166 -59 -347.499c0 -134.667 19.833 -251.834 59.5 -351.501s101.334 -177.167 185.001 -232.5s189.167 -83 316.5 -83zM352 564.999v197h1598v-197h-1598z" />
    <glyph glyph-name="guillemotright" unicode="&#xbb;" horiz-adv-x="2310" 
d="M295 467l647 762l-647 762h270l688 -762l-688 -762h-270zM1057 467l647 762l-647 762h270l688 -762l-688 -762h-270z" />
    <glyph glyph-name="onequarter" unicode="&#xbc;" horiz-adv-x="3719" 
d="M639 -20l2003 3006h254l-2003 -3006h-254zM729 1364v1393l-369 -90v196l414 103h189v-1602h-234zM3080 0v361h-880v192l831 1049h283v-1049h274v-192h-274v-361h-234zM3080 1364l-639 -811h639v811z" />
    <glyph glyph-name="onehalf" unicode="&#xbd;" horiz-adv-x="3719" 
d="M729 1364v1393l-369 -90v196l414 103h189v-1602h-234zM606 -20l2003 3006h254l-2003 -3006h-254zM2306 0v192l434 360c100.667 84 182.334 159.667 245 227c62.667 67.333 109.167 131 139.5 191s45.5 119 45.5 177c0 58.667 -12.167 109.5 -36.5 152.5
s-62 76.167 -113 99.5s-115.833 35 -194.5 35c-77.333 0 -156.333 -7.83301 -237 -23.5s-156 -37.834 -226 -66.501v196c67.333 26 141.166 46.833 221.5 62.5c80.333 15.667 160.833 23.5 241.5 23.5c132 0 241 -19.5 327 -58.5s149.333 -93.667 190 -164
s61 -153.166 61 -248.499c0 -97.333 -23.833 -188 -71.5 -272s-108.667 -161.167 -183 -231.5s-173.833 -153.833 -298.5 -250.5l-266 -209h888v-192h-1167z" />
    <glyph glyph-name="threequarters" unicode="&#xbe;" horiz-adv-x="3969" 
d="M860 -20l2003 3006h254l-2003 -3006h-254zM238 1622c59.333 -25.333 132.669 -46.666 220.002 -63.999s177.666 -26 270.999 -26c82.667 0 152.5 11.333 209.5 34s99.833 54.667 128.5 96s43 89.666 43 144.999c0 88 -35.5 158.5 -106.5 211.5s-177.5 79.5 -319.5 79.5
h-168v192h168c119.333 0 210.666 22.833 273.999 68.5s95 111.5 95 197.5c0 52 -13.833 96.167 -41.5 132.5s-66.667 63.666 -117 82c-50.333 18.333 -109.5 27.5 -177.5 27.5c-66.667 0 -139.167 -8 -217.5 -24s-151.833 -38 -220.5 -66v196
c66.667 26 139.334 46.833 218.001 62.5s154.667 23.5 228 23.5c122.667 0 225.667 -16 309 -48s146.166 -79 188.499 -141s63.5 -138.333 63.5 -229c0 -80.667 -21.333 -152 -64 -214s-103.334 -110.667 -182.001 -146c98.667 -34 173.834 -86.333 225.501 -157
s77.5 -152 77.5 -244c0 -94 -23.5 -176.333 -70.5 -247s-116.667 -125.667 -209 -165s-203.833 -59 -334.5 -59c-94.667 0 -185.167 8.66699 -271.5 26s-159.5 40 -219.5 68v188zM3330 0v361h-880v192l831 1049h283v-1049h274v-192h-274v-361h-234zM3330 1364l-639 -811h639
v811z" />
    <glyph glyph-name="questiondown" unicode="&#xbf;" horiz-adv-x="2085" 
d="M1827 -737c-104 -52 -220.334 -92.999 -349.001 -122.999s-256.667 -45 -384 -45c-162 0 -303.167 25 -423.5 75s-213 120.333 -278 211s-97.5 196 -97.5 316c0 160.667 38.833 306.5 116.5 437.5s197.167 270.5 358.5 418.5l393 365l25 417h180l29 -499l-373 -353
c-150.667 -141.333 -265.5 -271.333 -344.5 -390s-118.5 -239.667 -118.5 -363c0 -76.667 20.333 -146.667 61 -210s102.334 -113.833 185.001 -151.5s183.667 -56.5 303 -56.5c125.333 0 246.333 14.167 363 42.5s234.667 70.166 354 125.499v-217zM1110 1724v377h328v-377
h-328z" />
    <glyph glyph-name="Agrave" unicode="&#xc0;" horiz-adv-x="2720" 
d="M2343 0l-307 836h-1368l-308 -836h-270l1122 2966h299l1119 -2966h-287zM1442 2462c-34.667 94.667 -63.333 180.667 -86 258c-28 -92.667 -56.667 -178.667 -86 -258l-520 -1409h1208zM1228 3215l-520 553h348l422 -553h-250z" />
    <glyph glyph-name="Aacute" unicode="&#xc1;" horiz-adv-x="2720" 
d="M2343 0l-307 836h-1368l-308 -836h-270l1122 2966h299l1119 -2966h-287zM1442 2462c-34.667 94.667 -63.333 180.667 -86 258c-28 -92.667 -56.667 -178.667 -86 -258l-520 -1409h1208zM1663 3768h348l-520 -553h-250z" />
    <glyph glyph-name="Acircumflex" unicode="&#xc2;" horiz-adv-x="2720" 
d="M2343 0l-307 836h-1368l-308 -836h-270l1122 2966h299l1119 -2966h-287zM1442 2462c-34.667 94.667 -63.333 180.667 -86 258c-28 -92.667 -56.667 -178.667 -86 -258l-520 -1409h1208zM1700 3215l-340 369l-340 -369h-242l434 553h299l435 -553h-246z" />
    <glyph glyph-name="Atilde" unicode="&#xc3;" horiz-adv-x="2720" 
d="M2343 0l-307 836h-1368l-308 -836h-270l1122 2966h299l1119 -2966h-287zM1442 2462c-34.667 94.667 -63.333 180.667 -86 258c-28 -92.667 -56.667 -178.667 -86 -258l-520 -1409h1208zM2031 3678c0 -66.667 -7.5 -128.167 -22.5 -184.5s-38 -105.166 -69 -146.5
c-31 -41.333 -70 -73.666 -117 -97c-47 -23.333 -102.833 -35 -167.5 -35c-44 0 -84.833 6.33301 -122.5 19s-73.167 28.667 -106.5 48s-65 40 -95 62l-87 62c-28 19.333 -55.333 35.333 -82 48s-53.667 19 -81 19c-58 0 -99.833 -21.333 -125.5 -64
s-38.5 -107.334 -38.5 -194h-205c0 66.667 7.5 128.334 22.5 185c15 56.667 38 105.5 69 146.5s70.167 73.167 117.5 96.5s103.333 35 168 35c43.333 0 84 -6.33301 122 -19s73.667 -28.667 107 -48s65 -40 95 -62l86.5 -62c27.667 -19.333 55 -35.333 82 -48
s54.167 -19 81.5 -19c57.333 0 99 21.333 125 64s39 107.334 39 194h204z" />
    <glyph glyph-name="Adieresis" unicode="&#xc4;" horiz-adv-x="2720" 
d="M2343 0l-307 836h-1368l-308 -836h-270l1122 2966h299l1119 -2966h-287zM1442 2462c-34.667 94.667 -63.333 180.667 -86 258c-28 -92.667 -56.667 -178.667 -86 -258l-520 -1409h1208zM827.001 3342v361h250v-361h-250zM1647 3342v361h249v-361h-249z" />
    <glyph glyph-name="Aring" unicode="&#xc5;" horiz-adv-x="2720" 
d="M2343 0l-307 836h-1368l-308 -836h-270l1122 2966h299l1119 -2966h-287zM1442 2462c-34.667 94.667 -63.333 180.667 -86 258c-28 -92.667 -56.667 -178.667 -86 -258l-520 -1409h1208zM1819 3596c0 -74.667 -17.667 -144.167 -53 -208.5s-87.666 -116 -156.999 -155
s-152.333 -58.5 -249 -58.5c-98 0 -181.667 19.167 -251 57.5s-121.333 89.333 -156 153s-52 132.834 -52 207.5c0 74.667 17.667 144.167 53 208.5s87.666 116 156.999 155s152.333 58.5 249 58.5c98 0 181.667 -19.167 251 -57.5s121.333 -89.333 156 -153
s52 -132.834 52 -207.5zM1614 3592c0 43.333 -9.66699 83.833 -29 121.5s-48.166 67.834 -86.499 90.5c-38.333 22.667 -84.5 34 -138.5 34c-54.667 0 -101.167 -11.333 -139.5 -34s-67 -52.334 -86 -89c-19 -36.667 -28.5 -76.334 -28.5 -119
c0 -43.333 9.66699 -83.666 29 -121c19.333 -37.333 48.166 -67.333 86.499 -90s84.5 -34 138.5 -34c54.667 0 101.167 11.167 139.5 33.5s67 51.833 86 88.5s28.5 76.334 28.5 119z" />
    <glyph glyph-name="AE" unicode="&#xc6;" horiz-adv-x="3891" 
d="M1921 0v836h-1188l-381 -836h-278l1380 2966h2249v-222h-1524v-1118h1303v-217h-1303v-1188h1524v-221h-1782zM1921 2744h-319l-771 -1691h1090v1691z" />
    <glyph glyph-name="Ccedilla" unicode="&#xc7;" horiz-adv-x="2519" 
d="M1090 -729c60.667 -14 134.333 -20.9951 221 -20.9951c34.667 0 67.667 4.66699 99 14s57.5 26.166 78.5 50.499s31.5 57.5 31.5 99.5c0 44.667 -14 82.167 -42 112.5s-63.5 54.166 -106.5 71.499s-93.167 32.666 -150.5 45.999l176 319
c-238.667 14.667 -440.167 83.334 -604.5 206.001s-288.333 294.5 -372 515.5s-125.5 485.833 -125.5 794.5c0 313.333 45.5 584.166 136.5 812.499s227.667 404.5 410 528.5s407.166 186 674.499 186c132.667 0 267.334 -15 404.001 -45s249 -68 337 -114v-230
c-118.667 53.333 -240.834 94.666 -366.501 124c-125.667 29.333 -252.167 44 -379.5 44c-210 0 -385.5 -51.167 -526.5 -153.5s-246.167 -250.333 -315.5 -444s-104 -428.5 -104 -704.5c0 -271.333 34.167 -504 102.5 -698s173.166 -343.333 314.499 -448
s319.333 -157 534 -157c134 0 268.833 14 404.5 42s261.5 66 377.5 114v-217c-98 -41.333 -210.667 -76.666 -338 -105.999s-249.666 -46 -366.999 -50l-114 -209c58.667 -20.667 109.334 -46.834 152.001 -78.501s75.667 -68.834 99 -111.501s35 -90 35 -142
c0 -83.333 -20.5 -151.833 -61.5 -205.5s-94.667 -92.834 -161 -117.501s-139.5 -37 -219.5 -37c-83.333 0 -161 11 -233 33v176z" />
    <glyph glyph-name="Egrave" unicode="&#xc8;" horiz-adv-x="2462" 
d="M451 0v2966h1822v-222h-1564v-1118h1343v-217h-1343v-1188h1564v-221h-1822zM1314 3215l-520 553h348l422 -553h-250z" />
    <glyph glyph-name="Eacute" unicode="&#xc9;" horiz-adv-x="2462" 
d="M451 0v2966h1822v-222h-1564v-1118h1343v-217h-1343v-1188h1564v-221h-1822zM1671 3768h348l-520 -553h-250z" />
    <glyph glyph-name="Ecircumflex" unicode="&#xca;" horiz-adv-x="2462" 
d="M451 0v2966h1822v-222h-1564v-1118h1343v-217h-1343v-1188h1564v-221h-1822zM1712 3215l-340 369l-340 -369h-242l434 553h299l435 -553h-246z" />
    <glyph glyph-name="Edieresis" unicode="&#xcb;" horiz-adv-x="2462" 
d="M451 0v2966h1822v-222h-1564v-1118h1343v-217h-1343v-1188h1564v-221h-1822zM835 3342v361h250v-361h-250zM1655 3342v361h249v-361h-249z" />
    <glyph glyph-name="Igrave" unicode="&#xcc;" horiz-adv-x="1159" 
d="M451 0v2966h258v-2966h-258zM471 3215l-520 553h348l422 -553h-250z" />
    <glyph glyph-name="Iacute" unicode="&#xcd;" horiz-adv-x="1159" 
d="M451 0v2966h258v-2966h-258zM864 3768h348l-520 -553h-250z" />
    <glyph glyph-name="Icircumflex" unicode="&#xce;" horiz-adv-x="1159" 
d="M451 0v2966h258v-2966h-258zM918 3215l-340 369l-340 -369h-242l434 553h299l435 -553h-246z" />
    <glyph glyph-name="Idieresis" unicode="&#xcf;" horiz-adv-x="1159" 
d="M451 0v2966h258v-2966h-258zM45 3342v361h250v-361h-250zM865 3342v361h249v-361h-249z" />
    <glyph glyph-name="Eth" unicode="&#xd0;" horiz-adv-x="2933" 
d="M483 0v1409h-295v217h295v1340h860c305.333 0 554 -62.167 746 -186.5s331.5 -296.333 418.5 -516s130.5 -478.5 130.5 -776.5c0 -299.333 -44.667 -559.5 -134 -780.5s-233 -394 -431 -519s-454.667 -187.5 -770 -187.5h-820zM1315 221
c247.333 0 448.833 49.666 604.5 148.999s269.167 241.833 340.5 427.5s107 412.834 107 681.501c0 272 -35 501 -105 687s-183.333 328.833 -340 428.5s-363 149.5 -619 149.5h-562v-1118h758v-217h-758v-1188h574z" />
    <glyph glyph-name="Ntilde" unicode="&#xd1;" horiz-adv-x="3129" 
d="M2400 0l-1442 2171c-110 170 -198.667 325.667 -266 467c11.333 -136 17 -298.667 17 -488v-2150h-258v2966h282l1438 -2163c110 -170 198.667 -325.667 266 -467c-10.667 138.667 -16 301 -16 487v2143h258v-2966h-279zM2261 3678c0 -66.667 -7.5 -128.167 -22.5 -184.5
s-38 -105.166 -69 -146.5c-31 -41.333 -70 -73.666 -117 -97c-47 -23.333 -102.833 -35 -167.5 -35c-44 0 -84.833 6.33301 -122.5 19s-73.167 28.667 -106.5 48s-65 40 -95 62l-87 62c-28 19.333 -55.333 35.333 -82 48s-53.667 19 -81 19
c-58 0 -99.833 -21.333 -125.5 -64s-38.5 -107.334 -38.5 -194h-205c0 66.667 7.5 128.334 22.5 185c15 56.667 38 105.5 69 146.5s70.167 73.167 117.5 96.5s103.333 35 168 35c43.333 0 84 -6.33301 122 -19s73.667 -28.667 107 -48s65 -40 95 -62l86.5 -62
c27.667 -19.333 55 -35.333 82 -48s54.167 -19 81.5 -19c57.333 0 99 21.333 125 64s39 107.334 39 194h204z" />
    <glyph glyph-name="Ograve" unicode="&#xd2;" horiz-adv-x="2994" 
d="M1491 -41c-273.333 0 -499.165 64.5 -677.498 193.5s-309.333 307 -393 534s-125.5 491.167 -125.5 792.5c0 298.667 43.167 562.5 129.5 791.5s219.666 408.833 399.999 539.5s406.5 196 678.5 196c273.333 0 499.166 -64.5 677.499 -193.5s309.333 -307 393 -534
s125.5 -490.833 125.5 -791.5c0 -299.333 -43.167 -563.5 -129.5 -792.5s-219.666 -408.833 -400 -539.5c-180.333 -130.667 -406.5 -196 -678.5 -196zM1499 180c212 0 387.167 54.666 525.5 163.999s240.333 261.333 306 456s98.5 422.334 98.5 683.001
s-32.833 488.167 -98.5 682.5s-168 346.166 -307 455.5c-139 109.333 -315.167 164 -528.5 164c-212 0 -387.167 -54.667 -525.5 -164s-240.333 -261.166 -306 -455.499s-98.5 -421.833 -98.5 -682.5s32.833 -488.334 98.5 -683.001s168 -346.667 307 -456
s315.167 -164 528.5 -164zM1413 3215l-520 553h348l422 -553h-250z" />
    <glyph glyph-name="Oacute" unicode="&#xd3;" horiz-adv-x="2994" 
d="M1491 -41c-273.333 0 -499.165 64.5 -677.498 193.5s-309.333 307 -393 534s-125.5 491.167 -125.5 792.5c0 298.667 43.167 562.5 129.5 791.5s219.666 408.833 399.999 539.5s406.5 196 678.5 196c273.333 0 499.166 -64.5 677.499 -193.5s309.333 -307 393 -534
s125.5 -490.833 125.5 -791.5c0 -299.333 -43.167 -563.5 -129.5 -792.5s-219.666 -408.833 -400 -539.5c-180.333 -130.667 -406.5 -196 -678.5 -196zM1499 180c212 0 387.167 54.666 525.5 163.999s240.333 261.333 306 456s98.5 422.334 98.5 683.001
s-32.833 488.167 -98.5 682.5s-168 346.166 -307 455.5c-139 109.333 -315.167 164 -528.5 164c-212 0 -387.167 -54.667 -525.5 -164s-240.333 -261.166 -306 -455.499s-98.5 -421.833 -98.5 -682.5s32.833 -488.334 98.5 -683.001s168 -346.667 307 -456
s315.167 -164 528.5 -164zM1798 3768h348l-520 -553h-250z" />
    <glyph glyph-name="Ocircumflex" unicode="&#xd4;" horiz-adv-x="2994" 
d="M1491 -41c-273.333 0 -499.165 64.5 -677.498 193.5s-309.333 307 -393 534s-125.5 491.167 -125.5 792.5c0 298.667 43.167 562.5 129.5 791.5s219.666 408.833 399.999 539.5s406.5 196 678.5 196c273.333 0 499.166 -64.5 677.499 -193.5s309.333 -307 393 -534
s125.5 -490.833 125.5 -791.5c0 -299.333 -43.167 -563.5 -129.5 -792.5s-219.666 -408.833 -400 -539.5c-180.333 -130.667 -406.5 -196 -678.5 -196zM1499 180c212 0 387.167 54.666 525.5 163.999s240.333 261.333 306 456s98.5 422.334 98.5 683.001
s-32.833 488.167 -98.5 682.5s-168 346.166 -307 455.5c-139 109.333 -315.167 164 -528.5 164c-212 0 -387.167 -54.667 -525.5 -164s-240.333 -261.166 -306 -455.499s-98.5 -421.833 -98.5 -682.5s32.833 -488.334 98.5 -683.001s168 -346.667 307 -456
s315.167 -164 528.5 -164zM1835 3215l-340 369l-340 -369h-242l434 553h299l435 -553h-246z" />
    <glyph glyph-name="Otilde" unicode="&#xd5;" horiz-adv-x="2994" 
d="M1491 -41c-273.333 0 -499.165 64.5 -677.498 193.5s-309.333 307 -393 534s-125.5 491.167 -125.5 792.5c0 298.667 43.167 562.5 129.5 791.5s219.666 408.833 399.999 539.5s406.5 196 678.5 196c273.333 0 499.166 -64.5 677.499 -193.5s309.333 -307 393 -534
s125.5 -490.833 125.5 -791.5c0 -299.333 -43.167 -563.5 -129.5 -792.5s-219.666 -408.833 -400 -539.5c-180.333 -130.667 -406.5 -196 -678.5 -196zM1499 180c212 0 387.167 54.666 525.5 163.999s240.333 261.333 306 456s98.5 422.334 98.5 683.001
s-32.833 488.167 -98.5 682.5s-168 346.166 -307 455.5c-139 109.333 -315.167 164 -528.5 164c-212 0 -387.167 -54.667 -525.5 -164s-240.333 -261.166 -306 -455.499s-98.5 -421.833 -98.5 -682.5s32.833 -488.334 98.5 -683.001s168 -346.667 307 -456
s315.167 -164 528.5 -164zM2154 3678c0 -66.667 -7.5 -128.168 -22.5 -184.501s-38 -105.166 -69 -146.5c-31 -41.333 -70 -73.666 -117 -97c-47 -23.333 -102.833 -35 -167.5 -35c-44 0 -84.833 6.33301 -122.5 19s-73.167 28.667 -106.5 48s-65 40 -95 62l-87 62
c-28 19.333 -55.333 35.333 -82 48s-53.667 19 -81 19c-58 0 -99.833 -21.333 -125.5 -64s-38.5 -107.334 -38.5 -194h-205c0 66.667 7.5 128.334 22.5 185c15 56.667 38 105.5 69 146.5s70.167 73.167 117.5 96.5s103.333 35 168 35c43.333 0 84 -6.33301 122 -19
s73.667 -28.667 107 -48s65 -40 95 -62l86.5 -62c27.667 -19.333 55 -35.333 82 -48s54.167 -19 81.5 -19c57.333 0 99 21.333 125 64s39 107.334 39 194.001h204z" />
    <glyph glyph-name="Odieresis" unicode="&#xd6;" horiz-adv-x="2994" 
d="M1491 -41c-273.333 0 -499.165 64.5 -677.498 193.5s-309.333 307 -393 534s-125.5 491.167 -125.5 792.5c0 298.667 43.167 562.5 129.5 791.5s219.666 408.833 399.999 539.5s406.5 196 678.5 196c273.333 0 499.166 -64.5 677.499 -193.5s309.333 -307 393 -534
s125.5 -490.833 125.5 -791.5c0 -299.333 -43.167 -563.5 -129.5 -792.5s-219.666 -408.833 -400 -539.5c-180.333 -130.667 -406.5 -196 -678.5 -196zM1499 180c212 0 387.167 54.666 525.5 163.999s240.333 261.333 306 456s98.5 422.334 98.5 683.001
s-32.833 488.167 -98.5 682.5s-168 346.166 -307 455.5c-139 109.333 -315.167 164 -528.5 164c-212 0 -387.167 -54.667 -525.5 -164s-240.333 -261.166 -306 -455.499s-98.5 -421.833 -98.5 -682.5s32.833 -488.334 98.5 -683.001s168 -346.667 307 -456
s315.167 -164 528.5 -164zM962.001 3342v361h250v-361h-250zM1782 3342v361h249v-361h-249z" />
    <glyph glyph-name="multiply" unicode="&#xd7;" horiz-adv-x="2458" 
d="M1229 1077l-725 -721l-139 140l720 725l-720 721l143 143l721 -721l725 721l139 -139l-721 -725l721 -721l-143 -144z" />
    <glyph glyph-name="Oslash" unicode="&#xd8;" horiz-adv-x="2994" 
d="M295 -33l290.999 414c-94.667 130.667 -166.834 290 -216.501 478s-74.5 394.667 -74.5 620c0 298.667 43.167 562.5 129.5 791.5s219.666 408.833 399.999 539.5s406.5 196 678.5 196c150.667 0 288.334 -20.833 413.001 -62.5s237 -105.167 337 -190.5l172 245h274
l-291 -413c98 -138.667 171 -299.167 219 -481.5s72 -387.833 72 -616.5c0 -299.333 -43.167 -563.5 -129.5 -792.5s-219.666 -408.833 -399.999 -539.5s-406.5 -196 -678.5 -196c-156 0 -296.167 21.833 -420.5 65.5s-234.166 106.5 -329.499 188.5l-172 -246h-274z
M2109 2548c-73.333 77.333 -162.168 136.164 -266.501 176.498c-104.333 40.333 -220.166 60.5 -347.499 60.5c-212 0 -387.167 -54.667 -525.5 -164s-240.333 -261.166 -306 -455.499s-98.5 -421.833 -98.5 -682.5c0 -172.667 14.5 -334.167 43.5 -484.5
s73.167 -281.166 132.5 -392.499zM884.997 417.998c71.333 -76 159 -134.668 263 -176.001s221 -62 351 -62c212 0 387.167 54.667 525.5 164s240.333 261.333 306 456s98.5 422.334 98.5 683.001c0 178 -15 340.667 -45 488s-73.667 276.666 -131 388z" />
    <glyph glyph-name="Ugrave" unicode="&#xd9;" horiz-adv-x="2892" 
d="M2241 2966l258.002 0.00195312v-1999c0 -236 -41.667 -428.667 -125 -578s-202.333 -258.333 -357 -327s-342.334 -103 -563.001 -103c-223.333 0 -411.5 33.833 -564.5 101.5s-269.833 174.167 -350.5 319.5s-121 332.666 -121 561.999v2024h258v-1999
c0 -265.333 64.167 -462.833 192.5 -592.5s326.166 -194.5 593.499 -194.5c263.333 0 459 64.167 587 192.5s192 322.166 192 581.499v2012zM1392 3215l-520 553h348l422 -553h-250z" />
    <glyph glyph-name="Uacute" unicode="&#xda;" horiz-adv-x="2892" 
d="M2241 2966l258.002 0.00195312v-1999c0 -236 -41.667 -428.667 -125 -578s-202.333 -258.333 -357 -327s-342.334 -103 -563.001 -103c-223.333 0 -411.5 33.833 -564.5 101.5s-269.833 174.167 -350.5 319.5s-121 332.666 -121 561.999v2024h258v-1999
c0 -265.333 64.167 -462.833 192.5 -592.5s326.166 -194.5 593.499 -194.5c263.333 0 459 64.167 587 192.5s192 322.166 192 581.499v2012zM1745 3768h348l-520 -553h-250z" />
    <glyph glyph-name="Ucircumflex" unicode="&#xdb;" horiz-adv-x="2916" 
d="M2241 2966l258.002 0.00195312v-1999c0 -236 -41.667 -428.667 -125 -578s-202.333 -258.333 -357 -327s-342.334 -103 -563.001 -103c-223.333 0 -411.5 33.833 -564.5 101.5s-269.833 174.167 -350.5 319.5s-121 332.666 -121 561.999v2024h258v-1999
c0 -265.333 64.167 -462.833 192.5 -592.5s326.166 -194.5 593.499 -194.5c263.333 0 459 64.167 587 192.5s192 322.166 192 581.499v2012zM1798 3215l-340 369l-340 -369h-242l434 553h299l435 -553h-246z" />
    <glyph glyph-name="Udieresis" unicode="&#xdc;" horiz-adv-x="2916" 
d="M2241 2966l258.002 0.00195312v-1999c0 -236 -41.667 -428.667 -125 -578s-202.333 -258.333 -357 -327s-342.334 -103 -563.001 -103c-223.333 0 -411.5 33.833 -564.5 101.5s-269.833 174.167 -350.5 319.5s-121 332.666 -121 561.999v2024h258v-1999
c0 -265.333 64.167 -462.833 192.5 -592.5s326.166 -194.5 593.499 -194.5c263.333 0 459 64.167 587 192.5s192 322.166 192 581.499v2012zM925.002 3342v361h250v-361h-250zM1745 3342v361h249v-361h-249z" />
    <glyph glyph-name="Yacute" unicode="&#xdd;" horiz-adv-x="2441" 
d="M1090 0l-0.00195312 1176l-1041 1790h299l762 -1332c52.667 -90.667 92.334 -163 119.001 -217c26.667 54 66.334 126.333 119.001 217l761 1332h283l-1044 -1799v-1167h-258zM1520 3768h348l-520 -553h-250z" />
    <glyph glyph-name="Thorn" unicode="&#xde;" horiz-adv-x="2486" 
d="M451 0l0.000976562 2966h258v-533h643c217.333 0 398.666 -36.5 543.999 -109.5s253.5 -176.167 324.5 -309.5s106.5 -291.333 106.5 -474c0 -169.333 -34.167 -321.333 -102.5 -456s-176.833 -241.834 -325.5 -321.501s-338 -119.5 -568 -119.5h-622v-643h-258z
M1343 864.001c162.667 0 297.166 28.332 403.499 84.999s184.5 135.167 234.5 235.5s75 217.5 75 351.5c0 138 -25.333 257.333 -76 358s-130.667 178.834 -240 234.501s-249.666 83.5 -420.999 83.5h-610v-1348h634z" />
    <glyph glyph-name="germandbls" unicode="&#xdf;" horiz-adv-x="2601" 
d="M1655 -41c-116 0 -230.171 12.0029 -342.504 36.0029s-205.833 55.667 -280.5 95v213c75.333 -35.333 170.833 -66 286.5 -92s227.834 -39 336.501 -39c122 0 221.833 18.5 299.5 55.5s134.5 88.333 170.5 154s54 143.167 54 232.5c0 90 -20.833 167 -62.5 231
s-99 120.667 -172 170s-177.833 109.666 -314.5 180.999l-598 311v271l254 106c154.667 64 273.167 124.167 355.5 180.5s139.333 114.833 171 175.5s47.5 133.334 47.5 218c0 90.667 -23.167 170 -69.5 238s-112.666 120.333 -198.999 157s-188.166 55 -305.499 55
c-130 0 -241.167 -23.167 -333.5 -69.5s-162.833 -115.666 -211.5 -208c-48.667 -92.333 -73 -205.833 -73 -340.5v-2290h-250v2306c0 180.667 37 331.834 111 453.5c74 121.667 176.333 212.334 307 272c130.667 59.667 282 89.5 454 89.5
c172.667 0 321.334 -27.667 446.001 -83s219.5 -132.166 284.5 -230.5c65 -98.333 97.5 -210.833 97.5 -337.5c0 -120 -25 -224.5 -75 -313.5s-130.167 -170.333 -240.5 -244s-260.5 -147.167 -450.5 -220.5l-95 -37l472 -242
c168.667 -86.667 300.667 -162.834 396 -228.501s171.166 -143.5 227.5 -233.5c56.333 -90 84.5 -199.333 84.5 -328c0 -130 -28.833 -244.833 -86.5 -344.5s-145 -177.834 -262 -234.501s-261.5 -85 -433.5 -85z" />
    <glyph glyph-name="agrave" unicode="&#xe0;" horiz-adv-x="2335" 
d="M1704 0l-12.002 201c-94.667 -72.667 -202.334 -131.167 -323.001 -175.5s-248 -66.5 -382 -66.5c-145.333 0 -272 23 -380 69s-191.167 112.167 -249.5 198.5s-87.5 188.166 -87.5 305.499c0 143.333 41.167 263.5 123.5 360.5s207.5 170.5 375.5 220.5s380 75 636 75
c87.333 0 180 -1.33301 278 -4v192c0 129.333 -19.167 234.5 -57.5 315.5s-98.166 140.833 -179.499 179.5s-188 58 -320 58c-143.333 0 -272.166 -16.167 -386.499 -48.5s-221.5 -72.166 -321.5 -119.499v213c101.333 50.667 212.333 91.334 333 122.001
s251.334 46 392.001 46c157.333 0 294.5 -23.167 411.5 -69.5s209.333 -122.333 277 -228s101.5 -243.834 101.5 -414.501v-1430h-229zM1683 979l-278 -0.00292969c-208.667 0 -377.5 -16.667 -506.5 -50s-223 -82.166 -282 -146.499s-88.5 -144.833 -88.5 -241.5
c0 -73.333 17.333 -137.666 52 -192.999s89 -98.5 163 -129.5s167.667 -46.5 281 -46.5c116 0 229.667 19.833 341 59.5s217.333 97.834 318 174.501v573zM1150 2454l-520 552h348l422 -552h-250z" />
    <glyph glyph-name="aacute" unicode="&#xe1;" horiz-adv-x="2335" 
d="M1704 0l-12.002 201c-94.667 -72.667 -202.334 -131.167 -323.001 -175.5s-248 -66.5 -382 -66.5c-145.333 0 -272 23 -380 69s-191.167 112.167 -249.5 198.5s-87.5 188.166 -87.5 305.499c0 143.333 41.167 263.5 123.5 360.5s207.5 170.5 375.5 220.5s380 75 636 75
c87.333 0 180 -1.33301 278 -4v192c0 129.333 -19.167 234.5 -57.5 315.5s-98.166 140.833 -179.499 179.5s-188 58 -320 58c-143.333 0 -272.166 -16.167 -386.499 -48.5s-221.5 -72.166 -321.5 -119.499v213c101.333 50.667 212.333 91.334 333 122.001
s251.334 46 392.001 46c157.333 0 294.5 -23.167 411.5 -69.5s209.333 -122.333 277 -228s101.5 -243.834 101.5 -414.501v-1430h-229zM1683 979l-278 -0.00292969c-208.667 0 -377.5 -16.667 -506.5 -50s-223 -82.166 -282 -146.499s-88.5 -144.833 -88.5 -241.5
c0 -73.333 17.333 -137.666 52 -192.999s89 -98.5 163 -129.5s167.667 -46.5 281 -46.5c116 0 229.667 19.833 341 59.5s217.333 97.834 318 174.501v573zM1008 2454l422 552h348l-520 -552h-250z" />
    <glyph glyph-name="acircumflex" unicode="&#xe2;" horiz-adv-x="2335" 
d="M1704 0l-12.002 201c-94.667 -72.667 -202.334 -131.167 -323.001 -175.5s-248 -66.5 -382 -66.5c-145.333 0 -272 23 -380 69s-191.167 112.167 -249.5 198.5s-87.5 188.166 -87.5 305.499c0 143.333 41.167 263.5 123.5 360.5s207.5 170.5 375.5 220.5s380 75 636 75
c87.333 0 180 -1.33301 278 -4v192c0 129.333 -19.167 234.5 -57.5 315.5s-98.166 140.833 -179.499 179.5s-188 58 -320 58c-143.333 0 -272.166 -16.167 -386.499 -48.5s-221.5 -72.166 -321.5 -119.499v213c101.333 50.667 212.333 91.334 333 122.001
s251.334 46 392.001 46c157.333 0 294.5 -23.167 411.5 -69.5s209.333 -122.333 277 -228s101.5 -243.834 101.5 -414.501v-1430h-229zM1683 979l-278 -0.00292969c-208.667 0 -377.5 -16.667 -506.5 -50s-223 -82.166 -282 -146.499s-88.5 -144.833 -88.5 -241.5
c0 -73.333 17.333 -137.666 52 -192.999s89 -98.5 163 -129.5s167.667 -46.5 281 -46.5c116 0 229.667 19.833 341 59.5s217.333 97.834 318 174.501v573zM1507 2454l-340 368l-340 -368h-242l434 552h299l435 -552h-246z" />
    <glyph glyph-name="atilde" unicode="&#xe3;" horiz-adv-x="2335" 
d="M1704 0l-12.002 201c-94.667 -72.667 -202.334 -131.167 -323.001 -175.5s-248 -66.5 -382 -66.5c-145.333 0 -272 23 -380 69s-191.167 112.167 -249.5 198.5s-87.5 188.166 -87.5 305.499c0 143.333 41.167 263.5 123.5 360.5s207.5 170.5 375.5 220.5s380 75 636 75
c87.333 0 180 -1.33301 278 -4v192c0 129.333 -19.167 234.5 -57.5 315.5s-98.166 140.833 -179.499 179.5s-188 58 -320 58c-143.333 0 -272.166 -16.167 -386.499 -48.5s-221.5 -72.166 -321.5 -119.499v213c101.333 50.667 212.333 91.334 333 122.001
s251.334 46 392.001 46c157.333 0 294.5 -23.167 411.5 -69.5s209.333 -122.333 277 -228s101.5 -243.834 101.5 -414.501v-1430h-229zM1683 979l-278 -0.00292969c-208.667 0 -377.5 -16.667 -506.5 -50s-223 -82.166 -282 -146.499s-88.5 -144.833 -88.5 -241.5
c0 -73.333 17.333 -137.666 52 -192.999s89 -98.5 163 -129.5s167.667 -46.5 281 -46.5c116 0 229.667 19.833 341 59.5s217.333 97.834 318 174.501v573zM1859 2941c0 -66.667 -7.5 -128.168 -22.5 -184.501s-38 -105.166 -69 -146.5c-31 -41.333 -70 -73.666 -117 -97
c-47 -23.333 -102.833 -35 -167.5 -35c-44 0 -84.833 6.33301 -122.5 19s-73.167 28.667 -106.5 48s-65 40 -95 62l-87 62c-28 19.333 -55.333 35.333 -82 48s-53.667 19 -81 19c-58 0 -99.833 -21.333 -125.5 -64s-38.5 -107.334 -38.5 -194h-205
c0 66.667 7.5 128.167 22.5 184.5s38 105.166 69 146.5c31 41.333 70.167 73.666 117.5 97c47.333 23.333 103.333 35 168 35c43.333 0 84 -6.33301 122 -19s73.667 -28.667 107 -48s65 -40 95 -62l86.5 -62c27.667 -19.333 55 -35.333 82 -48s54.167 -19 81.5 -19
c57.333 0 99 21.333 125 64s39 107.334 39 194.001h204z" />
    <glyph glyph-name="adieresis" unicode="&#xe4;" horiz-adv-x="2335" 
d="M1704 0l-12.002 201c-94.667 -72.667 -202.334 -131.167 -323.001 -175.5s-248 -66.5 -382 -66.5c-145.333 0 -272 23 -380 69s-191.167 112.167 -249.5 198.5s-87.5 188.166 -87.5 305.499c0 143.333 41.167 263.5 123.5 360.5s207.5 170.5 375.5 220.5s380 75 636 75
c87.333 0 180 -1.33301 278 -4v192c0 129.333 -19.167 234.5 -57.5 315.5s-98.166 140.833 -179.499 179.5s-188 58 -320 58c-143.333 0 -272.166 -16.167 -386.499 -48.5s-221.5 -72.166 -321.5 -119.499v213c101.333 50.667 212.333 91.334 333 122.001
s251.334 46 392.001 46c157.333 0 294.5 -23.167 411.5 -69.5s209.333 -122.333 277 -228s101.5 -243.834 101.5 -414.501v-1430h-229zM1683 979l-278 -0.00292969c-208.667 0 -377.5 -16.667 -506.5 -50s-223 -82.166 -282 -146.499s-88.5 -144.833 -88.5 -241.5
c0 -73.333 17.333 -137.666 52 -192.999s89 -98.5 163 -129.5s167.667 -46.5 281 -46.5c116 0 229.667 19.833 341 59.5s217.333 97.834 318 174.501v573zM613.998 2605v361h250v-361h-250zM1434 2605v361h249v-361h-249z" />
    <glyph glyph-name="aring" unicode="&#xe5;" horiz-adv-x="2335" 
d="M1704 0l-12.002 201c-94.667 -72.667 -202.334 -131.167 -323.001 -175.5s-248 -66.5 -382 -66.5c-145.333 0 -272 23 -380 69s-191.167 112.167 -249.5 198.5s-87.5 188.166 -87.5 305.499c0 143.333 41.167 263.5 123.5 360.5s207.5 170.5 375.5 220.5s380 75 636 75
c87.333 0 180 -1.33301 278 -4v192c0 129.333 -19.167 234.5 -57.5 315.5s-98.166 140.833 -179.499 179.5s-188 58 -320 58c-143.333 0 -272.166 -16.167 -386.499 -48.5s-221.5 -72.166 -321.5 -119.499v213c101.333 50.667 212.333 91.334 333 122.001
s251.334 46 392.001 46c157.333 0 294.5 -23.167 411.5 -69.5s209.333 -122.333 277 -228s101.5 -243.834 101.5 -414.501v-1430h-229zM1683 979l-278 -0.00292969c-208.667 0 -377.5 -16.667 -506.5 -50s-223 -82.166 -282 -146.499s-88.5 -144.833 -88.5 -241.5
c0 -73.333 17.333 -137.666 52 -192.999s89 -98.5 163 -129.5s167.667 -46.5 281 -46.5c116 0 229.667 19.833 341 59.5s217.333 97.834 318 174.501v573zM1630 2867c0 -81.333 -17.667 -156.499 -53 -225.499s-87.5 -124.333 -156.5 -166s-152.167 -62.5 -249.5 -62.5
c-98.667 0 -182.5 20.5 -251.5 61.5s-120.833 95.667 -155.5 164s-52 143.166 -52 224.5c0 81.333 17.667 156.666 53 225.999s87.5 124.833 156.5 166.5s152.167 62.5 249.5 62.5c98.667 0 182.5 -20.5 251.5 -61.5s120.833 -95.667 155.5 -164s52 -143.5 52 -225.5z
M1425 2863c0 49.333 -9.83203 95.166 -29.499 137.5c-19.667 42.333 -48.5 76.5 -86.5 102.5s-84 39 -138 39c-54.667 0 -101.167 -12.833 -139.5 -38.5s-67 -59.5 -86 -101.5s-28.5 -87 -28.5 -135c0 -49.333 9.66699 -95.166 29 -137.5
c19.333 -42.333 48.166 -76.333 86.499 -102s84.5 -38.5 138.5 -38.5c54.667 0 101.167 12.833 139.5 38.5s67 59.334 86 101c19 41.667 28.5 86.5 28.5 134.5z" />
    <glyph glyph-name="ae" unicode="&#xe6;" horiz-adv-x="3727" 
d="M987 -41c-142.667 0 -268.17 22.9961 -376.503 68.9961s-192.166 112.167 -251.499 198.5s-89 188.166 -89 305.499c0 143.333 41.167 263.5 123.5 360.5s207.5 170.5 375.5 220.5s380 75 636 75c87.333 0 180 -1.33301 278 -4v192c0 129.333 -19.167 234.5 -57.5 315.5
s-98.166 140.833 -179.499 179.5s-188 58 -320 58c-143.333 0 -272.166 -16.167 -386.499 -48.5s-221.5 -72.166 -321.5 -119.499v213c101.333 50.667 212.333 91.334 333 122.001s251.334 46 392.001 46c115.333 0 219.5 -12.5 312.5 -37.5s174 -65.667 243 -122
s122.833 -130.166 161.5 -221.499c51.333 80.667 112.166 149.334 182.499 206.001s150.666 100 241 130c90.333 30 189.166 45 296.5 45c189.333 0 349.833 -42.833 481.5 -128.5s230.5 -203.167 296.5 -352.5s99 -319.333 99 -510
c0 -25.333 -0.833008 -50.166 -2.5 -74.499s-3.5 -40.5 -5.5 -48.5h-1524c4 -196.667 30.333 -357.5 79 -482.5s124.5 -218.5 227.5 -280.5s238.5 -93 406.5 -93c139.333 0 259.666 12.167 361 36.5c101.333 24.333 220 64.166 356 119.499v-201
c-86 -48 -191.667 -88 -317 -120s-267 -48 -425 -48c-344 0 -595 116 -753 348c-134.667 -113.333 -273.667 -199.666 -417 -258.999s-295.333 -89 -456 -89zM1405 978.996c-208.667 0 -377.498 -16.667 -506.498 -50s-223 -82.166 -282 -146.499
s-88.5 -144.833 -88.5 -241.5c0 -73.333 17.333 -137.666 52 -192.999s89 -98.5 163 -129.5s167.667 -46.5 281 -46.5c127.333 0 254.833 26.167 382.5 78.5s248.5 128.5 362.5 228.5c-28.667 75.333 -50.334 154.666 -65.001 237.999s-24.334 170.666 -29.001 261.999h-270
zM2576 1929c-122.667 0 -231.001 -28.5 -325.001 -85.5s-168.833 -137.667 -224.5 -242s-88.167 -225.833 -97.5 -364.5h1270c-5.33301 140 -33.166 262 -83.499 366s-121.333 184.333 -213 241s-200.5 85 -326.5 85z" />
    <glyph glyph-name="ccedilla" unicode="&#xe7;" horiz-adv-x="2073" 
d="M766 -729c61.333 -14 135.002 -20.9922 221.002 -20.9922c34.667 0 67.667 4.66699 99 14s57.5 26.166 78.5 50.499s31.5 57.5 31.5 99.5c0 44.667 -14 82.167 -42 112.5s-63.5 54.166 -106.5 71.499s-93.167 32.666 -150.5 45.999l180 323
c-158.667 16.667 -297.834 68.167 -417.501 154.5s-213 207.666 -280 363.999s-100.5 344.166 -100.5 563.499c0 212.667 35.5 401.167 106.5 565.5s178.667 293.333 323 387s323.166 140.5 536.499 140.5c102 0 202.5 -11.167 301.5 -33.5s182.833 -50.833 251.5 -85.5
v-225c-68.667 36 -155.334 66.833 -260.001 92.5s-206.334 38.5 -305.001 38.5c-154.667 0 -283.5 -36 -386.5 -108s-179.667 -173.167 -230 -303.5s-75.5 -283.833 -75.5 -460.5c0 -190.667 26.5 -352 79.5 -484s130.5 -231.833 232.5 -299.5s226 -101.5 372 -101.5
c110.667 0 216.667 13.667 318 41s200 67 296 119v-213c-74.667 -46 -160 -82.667 -256 -110s-200.333 -44 -313 -50l-115 -205c58.667 -20.667 109.334 -46.834 152.001 -78.501s75.834 -68.834 99.501 -111.501s35.5 -90 35.5 -142c0 -83.333 -20.5 -151.833 -61.5 -205.5
s-94.833 -92.834 -161.5 -117.501s-140 -37 -220 -37c-82 0 -159.667 11 -233 33v176z" />
    <glyph glyph-name="egrave" unicode="&#xe8;" horiz-adv-x="2343" 
d="M1970 127c-85.333 -48 -190.667 -87.999 -316 -119.999s-267 -48 -425 -48c-219.333 0 -399.5 43.833 -540.5 131.5s-244.5 213 -310.5 376s-99 359.833 -99 590.5c0 211.333 35 398.833 105 562.5s174 291.667 312 384s304.667 138.5 500 138.5
c189.333 0 349.833 -42.833 481.5 -128.5s230.5 -203.167 296.5 -352.5s99 -319.333 99 -510c0 -44.667 -3 -85.667 -9 -123h-1523c4 -196.667 30.167 -357.5 78.5 -482.5s124 -218.5 227 -280.5s238.5 -93 406.5 -93c139.333 0 260 12.167 362 36.5
s220.333 64.166 355 119.499v-201zM1815 1237c-6 140 -34.002 262 -84.002 366s-120.833 184.333 -212.5 241s-200.5 85 -326.5 85c-122.667 0 -231.167 -28.5 -325.5 -85.5s-169.166 -137.667 -224.499 -242s-87.666 -225.833 -96.999 -364.5h1270zM1085 2454l-520 552h348
l422 -552h-250z" />
    <glyph glyph-name="eacute" unicode="&#xe9;" horiz-adv-x="2343" 
d="M1970 127c-85.333 -48 -190.667 -87.999 -316 -119.999s-267 -48 -425 -48c-219.333 0 -399.5 43.833 -540.5 131.5s-244.5 213 -310.5 376s-99 359.833 -99 590.5c0 211.333 35 398.833 105 562.5s174 291.667 312 384s304.667 138.5 500 138.5
c189.333 0 349.833 -42.833 481.5 -128.5s230.5 -203.167 296.5 -352.5s99 -319.333 99 -510c0 -44.667 -3 -85.667 -9 -123h-1523c4 -196.667 30.167 -357.5 78.5 -482.5s124 -218.5 227 -280.5s238.5 -93 406.5 -93c139.333 0 260 12.167 362 36.5
s220.333 64.166 355 119.499v-201zM1815 1237c-6 140 -34.002 262 -84.002 366s-120.833 184.333 -212.5 241s-200.5 85 -326.5 85c-122.667 0 -231.167 -28.5 -325.5 -85.5s-169.166 -137.667 -224.499 -242s-87.666 -225.833 -96.999 -364.5h1270zM1040 2454l422 552h348
l-520 -552h-250z" />
    <glyph glyph-name="ecircumflex" unicode="&#xea;" horiz-adv-x="2343" 
d="M1970 127c-85.333 -48 -190.667 -87.999 -316 -119.999s-267 -48 -425 -48c-219.333 0 -399.5 43.833 -540.5 131.5s-244.5 213 -310.5 376s-99 359.833 -99 590.5c0 211.333 35 398.833 105 562.5s174 291.667 312 384s304.667 138.5 500 138.5
c189.333 0 349.833 -42.833 481.5 -128.5s230.5 -203.167 296.5 -352.5s99 -319.333 99 -510c0 -44.667 -3 -85.667 -9 -123h-1523c4 -196.667 30.167 -357.5 78.5 -482.5s124 -218.5 227 -280.5s238.5 -93 406.5 -93c139.333 0 260 12.167 362 36.5
s220.333 64.166 355 119.499v-201zM1815 1237c-6 140 -34.002 262 -84.002 366s-120.833 184.333 -212.5 241s-200.5 85 -326.5 85c-122.667 0 -231.167 -28.5 -325.5 -85.5s-169.166 -137.667 -224.499 -242s-87.666 -225.833 -96.999 -364.5h1270zM1524 2454l-340 368
l-340 -368h-242l434 552h299l435 -552h-246z" />
    <glyph glyph-name="edieresis" unicode="&#xeb;" horiz-adv-x="2343" 
d="M1970 127c-85.333 -48 -190.667 -87.999 -316 -119.999s-267 -48 -425 -48c-219.333 0 -399.5 43.833 -540.5 131.5s-244.5 213 -310.5 376s-99 359.833 -99 590.5c0 211.333 35 398.833 105 562.5s174 291.667 312 384s304.667 138.5 500 138.5
c189.333 0 349.833 -42.833 481.5 -128.5s230.5 -203.167 296.5 -352.5s99 -319.333 99 -510c0 -44.667 -3 -85.667 -9 -123h-1523c4 -196.667 30.167 -357.5 78.5 -482.5s124 -218.5 227 -280.5s238.5 -93 406.5 -93c139.333 0 260 12.167 362 36.5
s220.333 64.166 355 119.499v-201zM1815 1237c-6 140 -34.002 262 -84.002 366s-120.833 184.333 -212.5 241s-200.5 85 -326.5 85c-122.667 0 -231.167 -28.5 -325.5 -85.5s-169.166 -137.667 -224.499 -242s-87.666 -225.833 -96.999 -364.5h1270zM658.997 2605v361h250
v-361h-250zM1479 2605v361h249v-361h-249z" />
    <glyph glyph-name="igrave" unicode="&#xec;" horiz-adv-x="1085" 
d="M418 0v2101h250v-2101h-250zM426 2454l-520 552h348l422 -552h-250z" />
    <glyph glyph-name="iacute" unicode="&#xed;" horiz-adv-x="1085" 
d="M418 0v2101h250v-2101h-250zM410 2454l422 552h348l-520 -552h-250z" />
    <glyph glyph-name="icircumflex" unicode="&#xee;" horiz-adv-x="1085" 
d="M418 0v2101h250v-2101h-250zM881 2454l-340 368l-340 -368h-242l434 552h299l435 -552h-246z" />
    <glyph glyph-name="idieresis" unicode="&#xef;" horiz-adv-x="1085" 
d="M418 0v2101h250v-2101h-250zM8 2605v361h250v-361h-250zM828 2605v361h249v-361h-249z" />
    <glyph glyph-name="eth" unicode="&#xf0;" horiz-adv-x="2494" 
d="M1483 2658c148 -148 276.501 -309.333 385.501 -484s193.5 -357.334 253.5 -548.001s90 -381.667 90 -573c0 -213.333 -35.167 -402.166 -105.5 -566.499s-177.833 -293.333 -322.5 -387s-324.334 -140.5 -539.001 -140.5c-217.333 0 -398 46.333 -542 139
s-250.667 220.5 -320 383.5s-104 352.167 -104 567.5c0 210.667 36 398 108 562s180.667 292.833 326 386.5s324 140.5 536 140.5c100 0 196 -15.833 288 -47.5s171 -78.5 237 -140.5c-90 127.333 -176 242 -258 344s-166.667 192 -254 270l-590 -254v205l442 188
c-96.667 81.333 -219.667 170.333 -369 267l164 151c146.667 -92.667 288.667 -200.334 426 -323l586 249v-204zM1245 172c162.667 0 296.667 36.001 402 108.001s182.833 173.5 232.5 304.5s74.5 287.167 74.5 468.5c0 179.333 -25 334.166 -75 464.499
s-127.5 231.5 -232.5 303.5s-237.5 108 -397.5 108c-162 0 -295.667 -36 -401 -108s-182.833 -173.5 -232.5 -304.5s-74.5 -286.833 -74.5 -467.5c0 -179.333 25 -334.333 75 -465s127.5 -232 232.5 -304s237.167 -108 396.5 -108z" />
    <glyph glyph-name="ntilde" unicode="&#xf1;" horiz-adv-x="2540" 
d="M1888 0v1438c0 121.333 -19.833 218 -59.5 290s-97.167 123.5 -172.5 154.5s-170 46.5 -284 46.5c-134 0 -258 -19.667 -372 -59s-224.667 -100 -332 -182v-1688h-250v2101h229l17 -205c96 74.667 205.5 134.334 328.5 179.001s253.5 67 391.5 67
c157.333 0 292 -22.667 404 -68s198.333 -116.5 259 -213.5s91 -221.5 91 -373.5v-1487h-250zM1970 2941c0 -66.667 -7.5 -128.168 -22.5 -184.501s-38 -105.166 -69 -146.5c-31 -41.333 -70 -73.666 -117 -97c-47 -23.333 -102.833 -35 -167.5 -35
c-44 0 -84.833 6.33301 -122.5 19s-73.167 28.667 -106.5 48s-65 40 -95 62l-87 62c-28 19.333 -55.333 35.333 -82 48s-53.667 19 -81 19c-58 0 -99.833 -21.333 -125.5 -64s-38.5 -107.334 -38.5 -194h-205c0 66.667 7.5 128.167 22.5 184.5s38 105.166 69 146.5
c31 41.333 70.167 73.666 117.5 97c47.333 23.333 103.333 35 168 35c43.333 0 84 -6.33301 122 -19s73.667 -28.667 107 -48s65 -40 95 -62l86.5 -62c27.667 -19.333 55 -35.333 82 -48s54.167 -19 81.5 -19c57.333 0 99 21.333 125 64s39 107.334 39 194.001h204z" />
    <glyph glyph-name="ograve" unicode="&#xf2;" horiz-adv-x="2494" 
d="M1245 -41c-217.333 0 -397.998 46.3311 -541.998 138.998s-250.667 220.5 -320 383.5s-104 352.167 -104 567.5c0 212.667 35.5 401.167 106.5 565.5s179.167 293.333 324.5 387s325 140.5 539 140.5c217.333 0 398.166 -46.167 542.499 -138.5
s251.166 -220.166 320.499 -383.499s104 -352.333 104 -567c0 -213.333 -35.5 -402.166 -106.5 -566.499s-179.167 -293.333 -324.5 -387s-325.333 -140.5 -540 -140.5zM1245 171.998c162.667 0 296.667 36.001 402 108.001s182.833 173.5 232.5 304.5
s74.5 287.167 74.5 468.5c0 179.333 -25 334.166 -75 464.499s-127.5 231.5 -232.5 303.5s-237.5 108 -397.5 108c-162 0 -295.667 -36 -401 -108s-182.833 -173.5 -232.5 -304.5s-74.5 -286.833 -74.5 -467.5c0 -179.333 25 -334.333 75 -465s127.5 -232 232.5 -304
s237.167 -108 396.5 -108zM1167 2454l-520 552h348l422 -552h-250z" />
    <glyph glyph-name="oacute" unicode="&#xf3;" horiz-adv-x="2494" 
d="M1245 -41c-217.333 0 -397.998 46.3311 -541.998 138.998s-250.667 220.5 -320 383.5s-104 352.167 -104 567.5c0 212.667 35.5 401.167 106.5 565.5s179.167 293.333 324.5 387s325 140.5 539 140.5c217.333 0 398.166 -46.167 542.499 -138.5
s251.166 -220.166 320.499 -383.499s104 -352.333 104 -567c0 -213.333 -35.5 -402.166 -106.5 -566.499s-179.167 -293.333 -324.5 -387s-325.333 -140.5 -540 -140.5zM1245 171.998c162.667 0 296.667 36.001 402 108.001s182.833 173.5 232.5 304.5
s74.5 287.167 74.5 468.5c0 179.333 -25 334.166 -75 464.499s-127.5 231.5 -232.5 303.5s-237.5 108 -397.5 108c-162 0 -295.667 -36 -401 -108s-182.833 -173.5 -232.5 -304.5s-74.5 -286.833 -74.5 -467.5c0 -179.333 25 -334.333 75 -465s127.5 -232 232.5 -304
s237.167 -108 396.5 -108zM1110 2454l422 552h348l-520 -552h-250z" />
    <glyph glyph-name="ocircumflex" unicode="&#xf4;" horiz-adv-x="2494" 
d="M1245 -41c-217.333 0 -397.998 46.3311 -541.998 138.998s-250.667 220.5 -320 383.5s-104 352.167 -104 567.5c0 212.667 35.5 401.167 106.5 565.5s179.167 293.333 324.5 387s325 140.5 539 140.5c217.333 0 398.166 -46.167 542.499 -138.5
s251.166 -220.166 320.499 -383.499s104 -352.333 104 -567c0 -213.333 -35.5 -402.166 -106.5 -566.499s-179.167 -293.333 -324.5 -387s-325.333 -140.5 -540 -140.5zM1245 171.998c162.667 0 296.667 36.001 402 108.001s182.833 173.5 232.5 304.5
s74.5 287.167 74.5 468.5c0 179.333 -25 334.166 -75 464.499s-127.5 231.5 -232.5 303.5s-237.5 108 -397.5 108c-162 0 -295.667 -36 -401 -108s-182.833 -173.5 -232.5 -304.5s-74.5 -286.833 -74.5 -467.5c0 -179.333 25 -334.333 75 -465s127.5 -232 232.5 -304
s237.167 -108 396.5 -108zM1585 2454l-340 368l-340 -368h-242l434 552h299l435 -552h-246z" />
    <glyph glyph-name="otilde" unicode="&#xf5;" horiz-adv-x="2494" 
d="M1245 -41c-217.333 0 -397.998 46.3311 -541.998 138.998s-250.667 220.5 -320 383.5s-104 352.167 -104 567.5c0 212.667 35.5 401.167 106.5 565.5s179.167 293.333 324.5 387s325 140.5 539 140.5c217.333 0 398.166 -46.167 542.499 -138.5
s251.166 -220.166 320.499 -383.499s104 -352.333 104 -567c0 -213.333 -35.5 -402.166 -106.5 -566.499s-179.167 -293.333 -324.5 -387s-325.333 -140.5 -540 -140.5zM1245 171.998c162.667 0 296.667 36.001 402 108.001s182.833 173.5 232.5 304.5
s74.5 287.167 74.5 468.5c0 179.333 -25 334.166 -75 464.499s-127.5 231.5 -232.5 303.5s-237.5 108 -397.5 108c-162 0 -295.667 -36 -401 -108s-182.833 -173.5 -232.5 -304.5s-74.5 -286.833 -74.5 -467.5c0 -179.333 25 -334.333 75 -465s127.5 -232 232.5 -304
s237.167 -108 396.5 -108zM1904 2941c0 -66.667 -7.5 -128.168 -22.5 -184.501s-38 -105.166 -69 -146.5c-31 -41.333 -70 -73.666 -117 -97c-47 -23.333 -102.833 -35 -167.5 -35c-44 0 -84.833 6.33301 -122.5 19s-73.167 28.667 -106.5 48s-65 40 -95 62l-87 62
c-28 19.333 -55.333 35.333 -82 48s-53.667 19 -81 19c-58 0 -99.833 -21.333 -125.5 -64s-38.5 -107.334 -38.5 -194h-205c0 66.667 7.5 128.167 22.5 184.5s38 105.166 69 146.5c31 41.333 70.167 73.666 117.5 97c47.333 23.333 103.333 35 168 35
c43.333 0 84 -6.33301 122 -19s73.667 -28.667 107 -48s65 -40 95 -62l86.5 -62c27.667 -19.333 55 -35.333 82 -48s54.167 -19 81.5 -19c57.333 0 99 21.333 125 64s39 107.334 39 194.001h204z" />
    <glyph glyph-name="odieresis" unicode="&#xf6;" horiz-adv-x="2494" 
d="M1245 -41c-217.333 0 -397.998 46.3311 -541.998 138.998s-250.667 220.5 -320 383.5s-104 352.167 -104 567.5c0 212.667 35.5 401.167 106.5 565.5s179.167 293.333 324.5 387s325 140.5 539 140.5c217.333 0 398.166 -46.167 542.499 -138.5
s251.166 -220.166 320.499 -383.499s104 -352.333 104 -567c0 -213.333 -35.5 -402.166 -106.5 -566.499s-179.167 -293.333 -324.5 -387s-325.333 -140.5 -540 -140.5zM1245 171.998c162.667 0 296.667 36.001 402 108.001s182.833 173.5 232.5 304.5
s74.5 287.167 74.5 468.5c0 179.333 -25 334.166 -75 464.499s-127.5 231.5 -232.5 303.5s-237.5 108 -397.5 108c-162 0 -295.667 -36 -401 -108s-182.833 -173.5 -232.5 -304.5s-74.5 -286.833 -74.5 -467.5c0 -179.333 25 -334.333 75 -465s127.5 -232 232.5 -304
s237.167 -108 396.5 -108zM712.002 2605v361h250v-361h-250zM1532 2605v361h249v-361h-249z" />
    <glyph glyph-name="divide" unicode="&#xf7;" horiz-adv-x="2458" 
d="M233 1122v201h1991v-201h-1991zM1065 1851v377h328v-377h-328zM1065 217v377h328v-377h-328z" />
    <glyph glyph-name="oslash" unicode="&#xf8;" horiz-adv-x="2494" 
d="M225 -33l267 328c-70.667 94.667 -123.834 206 -159.501 334s-53.5 268 -53.5 420c0 212.667 35.5 401.167 106.5 565.5s179.167 293.333 324.5 387s325 140.5 539 140.5c121.333 0 232.166 -15.333 332.499 -46s188.833 -75.334 265.5 -134.001l140 172h282l-266 -328
c70.667 -94.667 123.834 -206 159.501 -334s53.5 -267.667 53.5 -419c0 -213.333 -35.5 -402.166 -106.5 -566.499s-179.167 -293.333 -324.5 -387s-325.333 -140.5 -540 -140.5c-120.667 0 -231.167 15.5 -331.5 46.5s-189.166 75.5 -266.499 133.5l-139 -172h-283z
M795 319c57.333 -49.333 123.167 -86.167 197.5 -110.5s158.5 -36.5 252.5 -36.5c162.667 0 296.667 36 402 108s182.833 173.5 232.5 304.5s74.5 287.167 74.5 468.5c0 110.667 -9 213.167 -27 307.5s-46 177.5 -84 249.5zM1700 1782
c-58 49.333 -124.167 86.165 -198.5 110.498s-158.5 36.5 -252.5 36.5c-162 0 -295.667 -36 -401 -108s-182.833 -173.5 -232.5 -304.5s-74.5 -286.833 -74.5 -467.5c0 -111.333 8.83301 -214.166 26.5 -308.499s45.5 -177.166 83.5 -248.499z" />
    <glyph glyph-name="ugrave" unicode="&#xf9;" horiz-adv-x="2523" 
d="M1876 0l-15.9961 205c-96.667 -74.667 -206 -134.334 -328 -179.001s-250.333 -67 -385 -67c-154.667 0 -287.334 22.667 -398.001 68s-196.334 116.5 -257.001 213.5s-91 221.5 -91 373.5v1487h250v-1437c0 -121.333 19.667 -218.166 59 -290.499
s96.166 -124 170.499 -155s167.166 -46.5 278.499 -46.5c130.667 0 252.667 19.833 366 59.5s223.333 100.5 330 182.5v1687h250v-2101h-229zM1163 2454l-520 552h348l422 -552h-250z" />
    <glyph glyph-name="uacute" unicode="&#xfa;" horiz-adv-x="2523" 
d="M1876 0l-15.9961 205c-96.667 -74.667 -206 -134.334 -328 -179.001s-250.333 -67 -385 -67c-154.667 0 -287.334 22.667 -398.001 68s-196.334 116.5 -257.001 213.5s-91 221.5 -91 373.5v1487h250v-1437c0 -121.333 19.667 -218.166 59 -290.499
s96.166 -124 170.499 -155s167.166 -46.5 278.499 -46.5c130.667 0 252.667 19.833 366 59.5s223.333 100.5 330 182.5v1687h250v-2101h-229zM1126 2454l422 552h348l-520 -552h-250z" />
    <glyph glyph-name="ucircumflex" unicode="&#xfb;" horiz-adv-x="2523" 
d="M1876 0l-15.9961 205c-96.667 -74.667 -206 -134.334 -328 -179.001s-250.333 -67 -385 -67c-154.667 0 -287.334 22.667 -398.001 68s-196.334 116.5 -257.001 213.5s-91 221.5 -91 373.5v1487h250v-1437c0 -121.333 19.667 -218.166 59 -290.499
s96.166 -124 170.499 -155s167.166 -46.5 278.499 -46.5c130.667 0 252.667 19.833 366 59.5s223.333 100.5 330 182.5v1687h250v-2101h-229zM1602 2454l-340 368l-340 -368h-242l434 552h299l435 -552h-246z" />
    <glyph glyph-name="udieresis" unicode="&#xfc;" horiz-adv-x="2523" 
d="M1876 0l-15.9961 205c-96.667 -74.667 -206 -134.334 -328 -179.001s-250.333 -67 -385 -67c-154.667 0 -287.334 22.667 -398.001 68s-196.334 116.5 -257.001 213.5s-91 221.5 -91 373.5v1487h250v-1437c0 -121.333 19.667 -218.166 59 -290.499
s96.166 -124 170.499 -155s167.166 -46.5 278.499 -46.5c130.667 0 252.667 19.833 366 59.5s223.333 100.5 330 182.5v1687h250v-2101h-229zM725.004 2605v361h250v-361h-250zM1545 2605v361h249v-361h-249z" />
    <glyph glyph-name="yacute" unicode="&#xfd;" horiz-adv-x="2044" 
d="M12 -725c37.333 -8 85.335 -11.999 144.002 -11.999c108 0 204.667 20.667 290 62s163.666 110.333 234.999 207s136.666 226.667 195.999 390l16 45l-832 2134h275l594 -1577c44 -117.333 76.667 -223.666 98 -318.999c26.667 97.333 60.667 202.333 102 315l582 1581
h270l-884 -2257c-71.333 -184.667 -151 -335.334 -239 -452.001s-187.5 -202.834 -298.5 -258.501s-236.5 -83.5 -376.5 -83.5c-64.667 0 -122 6.66699 -172 20v205zM897.002 2454l422 552h348l-520 -552h-250z" />
    <glyph glyph-name="thorn" unicode="&#xfe;" horiz-adv-x="2540" 
d="M418 3080l249.998 -0.000976562v-1179c100.667 77.333 205.667 136.833 315 178.5s224 62.5 344 62.5c194.667 0 361.834 -41 501.501 -123s246.667 -203.5 321.001 -364.5c74.333 -161 111.5 -357.5 111.5 -589.5c0 -238 -39.333 -439.833 -118 -605.5
s-188.667 -290.5 -330 -374.5s-306 -126 -494 -126c-122 0 -238.5 17.833 -349.5 53.5s-211.5 84.834 -301.5 147.501v-1082h-250v4002zM1298 171.999c151.333 0 278.999 32.668 382.999 98.001s183 163.666 237 294.999s81 295.333 81 492
c0 192.667 -26.667 353.667 -80 483s-131.666 226.5 -234.999 291.5s-230.333 97.5 -381 97.5c-113.333 0 -221 -20 -323 -60s-206 -100.333 -312 -181v-1307c95.333 -68 195.833 -119.833 301.5 -155.5s215.167 -53.5 328.5 -53.5z" />
    <glyph glyph-name="ydieresis" unicode="&#xff;" horiz-adv-x="2044" 
d="M12 -725c37.333 -8 85.335 -11.999 144.002 -11.999c108 0 204.667 20.667 290 62s163.666 110.333 234.999 207s136.666 226.667 195.999 390l16 45l-832 2134h275l594 -1577c44 -117.333 76.667 -223.666 98 -318.999c26.667 97.333 60.667 202.333 102 315l582 1581
h270l-884 -2257c-71.333 -184.667 -151 -335.334 -239 -452.001s-187.5 -202.834 -298.5 -258.501s-236.5 -83.5 -376.5 -83.5c-64.667 0 -122 6.66699 -172 20v205zM483.002 2605v361h250v-361h-250zM1303 2605v361h249v-361h-249z" />
    <glyph glyph-name="Amacron" unicode="&#x100;" horiz-adv-x="2720" 
d="M2343 0l-307 836h-1368l-308 -836h-270l1122 2966h299l1119 -2966h-287zM1442 2462c-34.667 94.667 -63.333 180.667 -86 258c-28 -92.667 -56.667 -178.667 -86 -258l-520 -1409h1208zM815.001 3342v205h1094v-205h-1094z" />
    <glyph glyph-name="amacron" unicode="&#x101;" horiz-adv-x="2335" 
d="M1704 0l-12.002 201c-94.667 -72.667 -202.334 -131.167 -323.001 -175.5s-248 -66.5 -382 -66.5c-145.333 0 -272 23 -380 69s-191.167 112.167 -249.5 198.5s-87.5 188.166 -87.5 305.499c0 143.333 41.167 263.5 123.5 360.5s207.5 170.5 375.5 220.5s380 75 636 75
c87.333 0 180 -1.33301 278 -4v192c0 129.333 -19.167 234.5 -57.5 315.5s-98.166 140.833 -179.499 179.5s-188 58 -320 58c-143.333 0 -272.166 -16.167 -386.499 -48.5s-221.5 -72.166 -321.5 -119.499v213c101.333 50.667 212.333 91.334 333 122.001
s251.334 46 392.001 46c157.333 0 294.5 -23.167 411.5 -69.5s209.333 -122.333 277 -228s101.5 -243.834 101.5 -414.501v-1430h-229zM1683 979l-278 -0.00292969c-208.667 0 -377.5 -16.667 -506.5 -50s-223 -82.166 -282 -146.499s-88.5 -144.833 -88.5 -241.5
c0 -73.333 17.333 -137.666 52 -192.999s89 -98.5 163 -129.5s167.667 -46.5 281 -46.5c116 0 229.667 19.833 341 59.5s217.333 97.834 318 174.501v573zM605.998 2605v205h1094v-205h-1094z" />
    <glyph glyph-name="Abreve" unicode="&#x102;" horiz-adv-x="2720" 
d="M2343 0l-307 836h-1368l-308 -836h-270l1122 2966h299l1119 -2966h-287zM1442 2462c-34.667 94.667 -63.333 180.667 -86 258c-28 -92.667 -56.667 -178.667 -86 -258l-520 -1409h1208zM1360 3207c-109.333 0 -207.832 22.833 -295.499 68.5s-156.667 110.834 -207 195.5
c-50.333 84.667 -75.5 183.667 -75.5 297h205c4 -74.667 22.333 -138.5 55 -191.5s76.667 -93 132 -120s118.666 -40.5 189.999 -40.5c72.667 0 136.167 13.5 190.5 40.5s97.333 66.833 129 119.5s49.5 116.667 53.5 192h205c0 -113.333 -25.333 -212.333 -76 -297
s-120.167 -149.834 -208.5 -195.5c-88.333 -45.667 -187.5 -68.5 -297.5 -68.5z" />
    <glyph glyph-name="abreve" unicode="&#x103;" horiz-adv-x="2335" 
d="M1704 0l-12.002 201c-94.667 -72.667 -202.334 -131.167 -323.001 -175.5s-248 -66.5 -382 -66.5c-145.333 0 -272 23 -380 69s-191.167 112.167 -249.5 198.5s-87.5 188.166 -87.5 305.499c0 143.333 41.167 263.5 123.5 360.5s207.5 170.5 375.5 220.5s380 75 636 75
c87.333 0 180 -1.33301 278 -4v192c0 129.333 -19.167 234.5 -57.5 315.5s-98.166 140.833 -179.499 179.5s-188 58 -320 58c-143.333 0 -272.166 -16.167 -386.499 -48.5s-221.5 -72.166 -321.5 -119.499v213c101.333 50.667 212.333 91.334 333 122.001
s251.334 46 392.001 46c157.333 0 294.5 -23.167 411.5 -69.5s209.333 -122.333 277 -228s101.5 -243.834 101.5 -414.501v-1430h-229zM1683 979l-278 -0.00292969c-208.667 0 -377.5 -16.667 -506.5 -50s-223 -82.166 -282 -146.499s-88.5 -144.833 -88.5 -241.5
c0 -73.333 17.333 -137.666 52 -192.999s89 -98.5 163 -129.5s167.667 -46.5 281 -46.5c116 0 229.667 19.833 341 59.5s217.333 97.834 318 174.501v573zM1745 3006c0 -113.333 -25.332 -212.334 -75.999 -297.001s-120.167 -149.834 -208.5 -195.5
c-88.333 -45.667 -187.5 -68.5 -297.5 -68.5c-109.333 0 -207.833 22.833 -295.5 68.5s-156.667 110.834 -207 195.501s-75.5 183.667 -75.5 297h205c4 -74.667 22.333 -138.5 55 -191.5s76.667 -93 132 -120s118.666 -40.5 189.999 -40.5c72.667 0 136.167 13.5 190.5 40.5
s97.333 66.833 129 119.5s49.5 116.667 53.5 192h205z" />
    <glyph glyph-name="Aogonek" unicode="&#x104;" horiz-adv-x="2720" 
d="M2679 -901c-80.667 -24.667 -165.334 -36.999 -254 -36.999c-92 0 -170 16.667 -234 50s-112 78.333 -144 135s-48 119.334 -48 188.001c0 105.333 31.333 207.833 94 307.5s146 185.5 250 257.5l-307 836h-1368l-308 -836h-270l1122 2966h299l1119 -2966
c-144.667 -96 -245 -187.833 -301 -275.5s-84 -178.834 -84 -273.501c0 -64.667 19.333 -114.334 58 -149.001s93 -52 163 -52c72 0 143 9.66699 213 29v-180zM1442 2462c-34.667 94.667 -63.333 180.667 -86 258c-28 -92.667 -56.667 -178.667 -86 -258l-520 -1409h1208z
" />
    <glyph glyph-name="aogonek" unicode="&#x105;" horiz-adv-x="2335" 
d="M2028 -901c-80.667 -24.667 -165.337 -37 -254.004 -37c-92 0 -170 16.667 -234 50s-112 78.333 -144 135s-48 119.334 -48 188.001c0 106 33 211.5 99 316.5s151.667 193.167 257 264.5l-12 185c-94.667 -72.667 -202.334 -131.167 -323.001 -175.5
s-248 -66.5 -382 -66.5c-142.667 0 -268.167 23 -376.5 69s-192.166 112.167 -251.499 198.5s-89 188.166 -89 305.499c0 143.333 41.167 263.5 123.5 360.5s207.5 170.5 375.5 220.5s380 75 636 75c87.333 0 180 -1.33301 278 -4v192c0 129.333 -19.167 234.5 -57.5 315.5
s-98.166 140.833 -179.499 179.5s-188 58 -320 58c-143.333 0 -272.166 -16.167 -386.499 -48.5s-221.5 -72.166 -321.5 -119.499v213c101.333 50.667 212.333 91.334 333 122.001s251.334 46 392.001 46c157.333 0 294.5 -23.167 411.5 -69.5s209.333 -122.333 277 -228
s101.5 -243.834 101.5 -414.501v-1430c-128.667 -112.667 -217.5 -210 -266.5 -292s-73.5 -167.667 -73.5 -257c0 -64.667 19.333 -114.334 58 -149.001s93.334 -52 164.001 -52c72 0 143 9.66699 213 29v-180zM1683 979l-278 -0.00292969
c-208.667 0 -377.5 -16.667 -506.5 -50s-223 -82.166 -282 -146.499s-88.5 -144.833 -88.5 -241.5c0 -73.333 17.333 -137.666 52 -192.999s89 -98.5 163 -129.5s167.667 -46.5 281 -46.5c116 0 229.667 19.833 341 59.5s217.333 97.834 318 174.501v573z" />
    <glyph glyph-name="Cacute" unicode="&#x106;" horiz-adv-x="2519" 
d="M2298 119c-103.333 -44 -226.329 -81.666 -368.996 -112.999s-283.334 -47 -422.001 -47c-271.333 0 -497.333 61.5 -678 184.5s-314.834 297.833 -402.501 524.5s-131.5 497 -131.5 811c0 313.333 45.5 584.166 136.5 812.499s227.667 404.5 410 528.5
s407.166 186 674.499 186c132.667 0 267.334 -15 404.001 -45s249 -68 337 -114v-230c-118.667 53.333 -240.834 94.666 -366.501 124c-125.667 29.333 -252.167 44 -379.5 44c-210 0 -385.5 -51.167 -526.5 -153.5s-246.167 -250.333 -315.5 -444s-104 -428.5 -104 -704.5
c0 -271.333 34.167 -504 102.5 -698s173.166 -343.333 314.499 -448s319.333 -157 534 -157c134 0 268.833 14 404.5 42s261.5 66 377.5 114v-217zM1778 3768h348l-520 -553h-250z" />
    <glyph glyph-name="cacute" unicode="&#x107;" horiz-adv-x="2073" 
d="M1839 119c-78.667 -48 -171.327 -86.665 -277.994 -115.998s-221.334 -44 -344.001 -44c-198.667 0 -368.334 43.667 -509.001 131s-247.334 212.666 -320.001 375.999s-109 357.666 -109 582.999c0 212.667 35.5 401.167 106.5 565.5s178.667 293.333 323 387
s323.166 140.5 536.499 140.5c102 0 202.5 -11.167 301.5 -33.5s182.833 -50.833 251.5 -85.5v-225c-68.667 36 -155.334 66.833 -260.001 92.5s-206.334 38.5 -305.001 38.5c-154.667 0 -283.5 -36 -386.5 -108s-179.667 -173.167 -230 -303.5s-75.5 -283.833 -75.5 -460.5
c0 -190.667 26.5 -352 79.5 -484s130.5 -231.833 232.5 -299.5s226 -101.5 372 -101.5c110.667 0 216.667 13.667 318 41s200 67 296 119v-213zM1024.01 2454l422 552h348l-520 -552h-250z" />
    <glyph glyph-name="Ccircumflex" unicode="&#x108;" horiz-adv-x="2519" 
d="M2298 119c-103.333 -44 -226.329 -81.666 -368.996 -112.999s-283.334 -47 -422.001 -47c-271.333 0 -497.333 61.5 -678 184.5s-314.834 297.833 -402.501 524.5s-131.5 497 -131.5 811c0 313.333 45.5 584.166 136.5 812.499s227.667 404.5 410 528.5
s407.166 186 674.499 186c132.667 0 267.334 -15 404.001 -45s249 -68 337 -114v-230c-118.667 53.333 -240.834 94.666 -366.501 124c-125.667 29.333 -252.167 44 -379.5 44c-210 0 -385.5 -51.167 -526.5 -153.5s-246.167 -250.333 -315.5 -444s-104 -428.5 -104 -704.5
c0 -271.333 34.167 -504 102.5 -698s173.166 -343.333 314.499 -448s319.333 -157 534 -157c134 0 268.833 14 404.5 42s261.5 66 377.5 114v-217zM1823 3215l-340 369l-340 -369h-242l434 553h299l435 -553h-246z" />
    <glyph glyph-name="ccircumflex" unicode="&#x109;" horiz-adv-x="2073" 
d="M1839 119c-78.667 -48 -171.327 -86.665 -277.994 -115.998s-221.334 -44 -344.001 -44c-198.667 0 -368.334 43.667 -509.001 131s-247.334 212.666 -320.001 375.999s-109 357.666 -109 582.999c0 212.667 35.5 401.167 106.5 565.5s178.667 293.333 323 387
s323.166 140.5 536.499 140.5c102 0 202.5 -11.167 301.5 -33.5s182.833 -50.833 251.5 -85.5v-225c-68.667 36 -155.334 66.833 -260.001 92.5s-206.334 38.5 -305.001 38.5c-154.667 0 -283.5 -36 -386.5 -108s-179.667 -173.167 -230 -303.5s-75.5 -283.833 -75.5 -460.5
c0 -190.667 26.5 -352 79.5 -484s130.5 -231.833 232.5 -299.5s226 -101.5 372 -101.5c110.667 0 216.667 13.667 318 41s200 67 296 119v-213zM1528.01 2454l-340 368l-340 -368h-242l434 552h299l435 -552h-246z" />
    <glyph glyph-name="Cdotaccent" unicode="&#x10a;" horiz-adv-x="2519" 
d="M2298 119c-103.333 -44 -226.329 -81.666 -368.996 -112.999s-283.334 -47 -422.001 -47c-271.333 0 -497.333 61.5 -678 184.5s-314.834 297.833 -402.501 524.5s-131.5 497 -131.5 811c0 313.333 45.5 584.166 136.5 812.499s227.667 404.5 410 528.5
s407.166 186 674.499 186c132.667 0 267.334 -15 404.001 -45s249 -68 337 -114v-230c-118.667 53.333 -240.834 94.666 -366.501 124c-125.667 29.333 -252.167 44 -379.5 44c-210 0 -385.5 -51.167 -526.5 -153.5s-246.167 -250.333 -315.5 -444s-104 -428.5 -104 -704.5
c0 -271.333 34.167 -504 102.5 -698s173.166 -343.333 314.499 -448s319.333 -157 534 -157c134 0 268.833 14 404.5 42s261.5 66 377.5 114v-217zM1356 3342v361h250v-361h-250z" />
    <glyph glyph-name="cdotaccent" unicode="&#x10b;" horiz-adv-x="2073" 
d="M1839 119c-78.667 -48 -171.327 -86.665 -277.994 -115.998s-221.334 -44 -344.001 -44c-198.667 0 -368.334 43.667 -509.001 131s-247.334 212.666 -320.001 375.999s-109 357.666 -109 582.999c0 212.667 35.5 401.167 106.5 565.5s178.667 293.333 323 387
s323.166 140.5 536.499 140.5c102 0 202.5 -11.167 301.5 -33.5s182.833 -50.833 251.5 -85.5v-225c-68.667 36 -155.334 66.833 -260.001 92.5s-206.334 38.5 -305.001 38.5c-154.667 0 -283.5 -36 -386.5 -108s-179.667 -173.167 -230 -303.5s-75.5 -283.833 -75.5 -460.5
c0 -190.667 26.5 -352 79.5 -484s130.5 -231.833 232.5 -299.5s226 -101.5 372 -101.5c110.667 0 216.667 13.667 318 41s200 67 296 119v-213zM1073.01 2605v361h250v-361h-250z" />
    <glyph glyph-name="Ccaron" unicode="&#x10c;" horiz-adv-x="2519" 
d="M2298 119c-103.333 -44 -226.329 -81.666 -368.996 -112.999s-283.334 -47 -422.001 -47c-271.333 0 -497.333 61.5 -678 184.5s-314.834 297.833 -402.501 524.5s-131.5 497 -131.5 811c0 313.333 45.5 584.166 136.5 812.499s227.667 404.5 410 528.5
s407.166 186 674.499 186c132.667 0 267.334 -15 404.001 -45s249 -68 337 -114v-230c-118.667 53.333 -240.834 94.666 -366.501 124c-125.667 29.333 -252.167 44 -379.5 44c-210 0 -385.5 -51.167 -526.5 -153.5s-246.167 -250.333 -315.5 -444s-104 -428.5 -104 -704.5
c0 -271.333 34.167 -504 102.5 -698s173.166 -343.333 314.499 -448s319.333 -157 534 -157c134 0 268.833 14 404.5 42s261.5 66 377.5 114v-217zM1351 3215l-434 553h246l340 -368l340 368h242l-435 -553h-299z" />
    <glyph glyph-name="ccaron" unicode="&#x10d;" horiz-adv-x="2073" 
d="M1839 119c-78.667 -48 -171.327 -86.665 -277.994 -115.998s-221.334 -44 -344.001 -44c-198.667 0 -368.334 43.667 -509.001 131s-247.334 212.666 -320.001 375.999s-109 357.666 -109 582.999c0 212.667 35.5 401.167 106.5 565.5s178.667 293.333 323 387
s323.166 140.5 536.499 140.5c102 0 202.5 -11.167 301.5 -33.5s182.833 -50.833 251.5 -85.5v-225c-68.667 36 -155.334 66.833 -260.001 92.5s-206.334 38.5 -305.001 38.5c-154.667 0 -283.5 -36 -386.5 -108s-179.667 -173.167 -230 -303.5s-75.5 -283.833 -75.5 -460.5
c0 -190.667 26.5 -352 79.5 -484s130.5 -231.833 232.5 -299.5s226 -101.5 372 -101.5c110.667 0 216.667 13.667 318 41s200 67 296 119v-213zM1052.01 2454l-434 552h246l340 -368l340 368h242l-435 -552h-299z" />
    <glyph glyph-name="Dcaron" unicode="&#x10e;" horiz-adv-x="2900" 
d="M451 0v2966h860c304.667 0 553 -62.167 745 -186.5s331.5 -296.333 418.5 -516s130.5 -478.5 130.5 -776.5c0 -300 -44.667 -560.333 -134 -781s-233 -393.5 -431 -518.5s-454.667 -187.5 -770 -187.5h-819zM1282 221c247.333 0 448.832 49.667 604.499 149
s269.334 241.833 341.001 427.5s107.5 412.834 107.5 681.501c0 271.333 -35 500.166 -105 686.499s-183.5 329.333 -340.5 429s-363.5 149.5 -619.5 149.5h-561v-2523h573zM1151 3215l-434 553h246l340 -368l340 368h242l-435 -553h-299z" />
    <glyph glyph-name="dcaron" unicode="&#x10f;" horiz-adv-x="2531" 
d="M1892 0l-15.998 204.999c-102.667 -79.333 -208.834 -140.166 -318.501 -182.499s-224.834 -63.5 -345.501 -63.5c-194 0 -360.833 41 -500.5 123s-246.667 203.5 -321 364.5s-111.5 357.5 -111.5 589.5c0 238 39.333 439.833 118 605.5s188.667 290.5 330 374.5
s306 126 494 126c123.333 0 240 -17.833 350 -53.5s210.333 -84.5 301 -146.5v1138h250v-3080h-230zM1872 1720c-95.333 68 -196.001 119.832 -302.001 155.499s-215.667 53.5 -329 53.5c-150.667 0 -278 -32.667 -382 -98s-183 -163.666 -237 -294.999
s-81 -295.333 -81 -492c0 -192.667 26.5 -353.667 79.5 -483s131.333 -226.5 235 -291.5s230.834 -97.5 381.501 -97.5c112.667 0 220.167 20.167 322.5 60.5s206.5 100.833 312.5 181.5v1306zM2351 2257l94 434l-49 389h131c64 0 110.667 -17.667 140 -53
s44 -88.666 44 -160c0 -46.667 -8 -100.5 -24 -161.5s-39.333 -134.167 -70 -219.5l-82 -229h-184z" />
    <glyph glyph-name="Dcroat" unicode="&#x110;" horiz-adv-x="2933" 
d="M483 0v1409h-295v217h295v1340h860c305.333 0 554 -62.167 746 -186.5s331.5 -296.333 418.5 -516s130.5 -478.5 130.5 -776.5c0 -299.333 -44.667 -559.5 -134 -780.5s-233 -394 -431 -519s-454.667 -187.5 -770 -187.5h-820zM1315 221
c247.333 0 448.833 49.666 604.5 148.999s269.167 241.833 340.5 427.5s107 412.834 107 681.501c0 272 -35 501 -105 687s-183.333 328.833 -340 428.5s-363 149.5 -619 149.5h-562v-1118h758v-217h-758v-1188h574z" />
    <glyph glyph-name="dcroat" unicode="&#x111;" horiz-adv-x="2540" 
d="M1892 0l-15.998 204.999c-102.667 -79.333 -208.834 -140.166 -318.501 -182.499s-224.834 -63.5 -345.501 -63.5c-194 0 -360.833 41 -500.5 123s-246.667 203.5 -321 364.5s-111.5 357.5 -111.5 589.5c0 238 39.333 439.833 118 605.5s188.667 290.5 330 374.5
s306 126 494 126c123.333 0 240 -17.833 350 -53.5s210.333 -84.5 301 -146.5v552h-459v205h459v381h250v-381h262v-205h-262v-2494h-230zM1872 1720c-95.333 68 -196.001 119.832 -302.001 155.499s-215.667 53.5 -329 53.5c-150.667 0 -278 -32.667 -382 -98
s-183 -163.666 -237 -294.999s-81 -295.333 -81 -492c0 -192.667 26.5 -353.667 79.5 -483s131.333 -226.5 235 -291.5s230.834 -97.5 381.501 -97.5c112.667 0 220.167 20.167 322.5 60.5s206.5 100.833 312.5 181.5v1306z" />
    <glyph glyph-name="Emacron" unicode="&#x112;" horiz-adv-x="2462" 
d="M451 0v2966h1822v-222h-1564v-1118h1343v-217h-1343v-1188h1564v-221h-1822zM827 3342v205h1094v-205h-1094z" />
    <glyph glyph-name="emacron" unicode="&#x113;" horiz-adv-x="2343" 
d="M1970 127c-85.333 -48 -190.667 -87.999 -316 -119.999s-267 -48 -425 -48c-219.333 0 -399.5 43.833 -540.5 131.5s-244.5 213 -310.5 376s-99 359.833 -99 590.5c0 211.333 35 398.833 105 562.5s174 291.667 312 384s304.667 138.5 500 138.5
c189.333 0 349.833 -42.833 481.5 -128.5s230.5 -203.167 296.5 -352.5s99 -319.333 99 -510c0 -44.667 -3 -85.667 -9 -123h-1523c4 -196.667 30.167 -357.5 78.5 -482.5s124 -218.5 227 -280.5s238.5 -93 406.5 -93c139.333 0 260 12.167 362 36.5
s220.333 64.166 355 119.499v-201zM1815 1237c-6 140 -34.002 262 -84.002 366s-120.833 184.333 -212.5 241s-200.5 85 -326.5 85c-122.667 0 -231.167 -28.5 -325.5 -85.5s-169.166 -137.667 -224.499 -242s-87.666 -225.833 -96.999 -364.5h1270zM650.997 2605v205h1094
v-205h-1094z" />
    <glyph glyph-name="Ebreve" unicode="&#x114;" horiz-adv-x="2462" 
d="M451 0v2966h1822v-222h-1564v-1118h1343v-217h-1343v-1188h1564v-221h-1822zM1380 3207c-109.333 0 -207.832 22.833 -295.499 68.5s-156.667 110.834 -207 195.5c-50.333 84.667 -75.5 183.667 -75.5 297h205c4 -74.667 22.333 -138.5 55 -191.5s76.667 -93 132 -120
s118.666 -40.5 189.999 -40.5c72.667 0 136.167 13.5 190.5 40.5s97.333 66.833 129 119.5s49.5 116.667 53.5 192h205c0 -113.333 -25.333 -212.333 -76 -297s-120.167 -149.834 -208.5 -195.5c-88.333 -45.667 -187.5 -68.5 -297.5 -68.5z" />
    <glyph glyph-name="ebreve" unicode="&#x115;" horiz-adv-x="2343" 
d="M1970 127c-85.333 -48 -190.667 -87.999 -316 -119.999s-267 -48 -425 -48c-219.333 0 -399.5 43.833 -540.5 131.5s-244.5 213 -310.5 376s-99 359.833 -99 590.5c0 211.333 35 398.833 105 562.5s174 291.667 312 384s304.667 138.5 500 138.5
c189.333 0 349.833 -42.833 481.5 -128.5s230.5 -203.167 296.5 -352.5s99 -319.333 99 -510c0 -44.667 -3 -85.667 -9 -123h-1523c4 -196.667 30.167 -357.5 78.5 -482.5s124 -218.5 227 -280.5s238.5 -93 406.5 -93c139.333 0 260 12.167 362 36.5
s220.333 64.166 355 119.499v-201zM1815 1237c-6 140 -34.002 262 -84.002 366s-120.833 184.333 -212.5 241s-200.5 85 -326.5 85c-122.667 0 -231.167 -28.5 -325.5 -85.5s-169.166 -137.667 -224.499 -242s-87.666 -225.833 -96.999 -364.5h1270zM1782 3006
c0 -113.333 -25.332 -212.334 -75.999 -297.001s-120.167 -149.834 -208.5 -195.5c-88.333 -45.667 -187.5 -68.5 -297.5 -68.5c-109.333 0 -207.833 22.833 -295.5 68.5s-156.667 110.834 -207 195.501s-75.5 183.667 -75.5 297h205c4 -74.667 22.333 -138.5 55 -191.5
s76.667 -93 132 -120s118.666 -40.5 189.999 -40.5c72.667 0 136.167 13.5 190.5 40.5s97.333 66.833 129 119.5s49.5 116.667 53.5 192h205z" />
    <glyph glyph-name="Edotaccent" unicode="&#x116;" horiz-adv-x="2462" 
d="M451 0v2966h1822v-222h-1564v-1118h1343v-217h-1343v-1188h1564v-221h-1822zM1245 3342v361h250v-361h-250z" />
    <glyph glyph-name="edotaccent" unicode="&#x117;" horiz-adv-x="2343" 
d="M1970 127c-85.333 -48 -190.667 -87.999 -316 -119.999s-267 -48 -425 -48c-219.333 0 -399.5 43.833 -540.5 131.5s-244.5 213 -310.5 376s-99 359.833 -99 590.5c0 211.333 35 398.833 105 562.5s174 291.667 312 384s304.667 138.5 500 138.5
c189.333 0 349.833 -42.833 481.5 -128.5s230.5 -203.167 296.5 -352.5s99 -319.333 99 -510c0 -44.667 -3 -85.667 -9 -123h-1523c4 -196.667 30.167 -357.5 78.5 -482.5s124 -218.5 227 -280.5s238.5 -93 406.5 -93c139.333 0 260 12.167 362 36.5
s220.333 64.166 355 119.499v-201zM1815 1237c-6 140 -34.002 262 -84.002 366s-120.833 184.333 -212.5 241s-200.5 85 -326.5 85c-122.667 0 -231.167 -28.5 -325.5 -85.5s-169.166 -137.667 -224.499 -242s-87.666 -225.833 -96.999 -364.5h1270zM1077 2605v361h250v-361
h-250z" />
    <glyph glyph-name="Eogonek" unicode="&#x118;" horiz-adv-x="2462" 
d="M2302 -901c-80.667 -24.667 -165.332 -37.001 -253.998 -37.001c-136.667 0 -241.834 35.5 -315.501 106.5s-110.5 159.833 -110.5 266.5c0 106 30.5 207.167 91.5 303.5s146.5 183.5 256.5 261.5h-1519v2966h1822v-222h-1564v-1118h1343v-217h-1343v-1188h1564v-201
c-150.667 -99.333 -255.834 -195.166 -315.501 -287.499s-89.5 -186.166 -89.5 -281.499c0 -64.667 19.333 -114.334 58 -149.001s93 -52 163 -52c73.333 0 144.333 9.66699 213 29v-180z" />
    <glyph glyph-name="eogonek" unicode="&#x119;" horiz-adv-x="2343" 
d="M1978 -901c-80.667 -24.667 -165.335 -36.999 -254.002 -36.999c-92 0 -170 16.667 -234 50s-112 78.333 -144 135s-48 119.334 -48 188.001c0 101.333 29.167 201.666 87.5 300.999s131.833 187.333 220.5 264c-59.333 -12.667 -121.166 -22.667 -185.499 -30
s-128.166 -11 -191.499 -11c-219.333 0 -399.5 43.833 -540.5 131.5s-244.5 213 -310.5 376s-99 359.833 -99 590.5c0 211.333 35 398.833 105 562.5s174 291.667 312 384s304.667 138.5 500 138.5c189.333 0 349.833 -42.833 481.5 -128.5s230.5 -203.167 296.5 -352.5
s99 -319.333 99 -510c0 -46.667 -3 -87.667 -9 -123h-1523c4 -196.667 30.167 -357.5 78.5 -482.5s124 -218.5 227 -280.5s238.5 -93 406.5 -93c139.333 0 260 12.167 362 36.5s220.333 64.166 355 119.499v-201c-164 -154.667 -276 -282.667 -336 -384
s-90 -198.666 -90 -291.999c0 -64.667 19.333 -114.334 58 -149.001s93 -52 163 -52c73.333 0 144.333 9.66699 213 29v-180zM1815 1237c-6 140 -34.002 262 -84.002 366s-120.833 184.333 -212.5 241s-200.5 85 -326.5 85c-122.667 0 -231.167 -28.5 -325.5 -85.5
s-169.166 -137.667 -224.499 -242s-87.666 -225.833 -96.999 -364.5h1270z" />
    <glyph glyph-name="Ecaron" unicode="&#x11a;" horiz-adv-x="2462" 
d="M451 0v2966h1822v-222h-1564v-1118h1343v-217h-1343v-1188h1564v-221h-1822zM1228 3215l-434 553h246l340 -368l340 368h242l-435 -553h-299z" />
    <glyph glyph-name="ecaron" unicode="&#x11b;" horiz-adv-x="2343" 
d="M1970 127c-85.333 -48 -190.667 -87.999 -316 -119.999s-267 -48 -425 -48c-219.333 0 -399.5 43.833 -540.5 131.5s-244.5 213 -310.5 376s-99 359.833 -99 590.5c0 211.333 35 398.833 105 562.5s174 291.667 312 384s304.667 138.5 500 138.5
c189.333 0 349.833 -42.833 481.5 -128.5s230.5 -203.167 296.5 -352.5s99 -319.333 99 -510c0 -44.667 -3 -85.667 -9 -123h-1523c4 -196.667 30.167 -357.5 78.5 -482.5s124 -218.5 227 -280.5s238.5 -93 406.5 -93c139.333 0 260 12.167 362 36.5
s220.333 64.166 355 119.499v-201zM1815 1237c-6 140 -34.002 262 -84.002 366s-120.833 184.333 -212.5 241s-200.5 85 -326.5 85c-122.667 0 -231.167 -28.5 -325.5 -85.5s-169.166 -137.667 -224.499 -242s-87.666 -225.833 -96.999 -364.5h1270zM1056 2454l-434 552h246
l340 -368l340 368h242l-435 -552h-299z" />
    <glyph glyph-name="Gcircumflex" unicode="&#x11c;" horiz-adv-x="2908" 
d="M1516 -41c-280 0 -510.835 63.333 -692.502 190s-315.167 303.167 -400.5 529.5s-128 493.166 -128 800.499c0 325.333 49.5 602 148.5 830s244.833 401.167 437.5 519.5s427.334 177.5 704.001 177.5c128.667 0 267 -14.167 415 -42.5s274.667 -65.833 380 -112.5v-217
c-124.667 46.667 -259.167 83.5 -403.5 110.5s-280.166 40.5 -407.499 40.5c-220.667 0 -405.5 -48 -554.5 -144s-261.167 -240.667 -336.5 -434s-113 -434.666 -113 -723.999c0 -265.333 33 -495 99 -689s170.167 -344.833 312.5 -452.5s324.833 -161.5 547.5 -161.5
c240.667 0 479.667 42.333 717 127v1073h-787v217h1045v-1417c-327.333 -147.333 -655 -221 -983 -221zM1905 3215l-340 369l-340 -369h-242l434 553h299l435 -553h-246z" />
    <glyph glyph-name="gcircumflex" unicode="&#x11d;" horiz-adv-x="2540" 
d="M1872 201c-101.333 -77.333 -206.667 -137.003 -316 -179.003s-224 -63 -344 -63c-194 0 -360.833 41 -500.5 123s-246.667 203.5 -321 364.5s-111.5 357.5 -111.5 589.5c0 238 39.333 439.833 118 605.5s188.667 290.5 330 374.5s306 126 494 126
c124 0 241.167 -18 351.5 -54s212.833 -86.333 307.5 -151l12 164h230v-2101c0 -207.333 -37 -381.666 -111 -522.999s-183.667 -247.833 -329 -319.5s-325 -107.5 -539 -107.5c-138 0 -268.167 12.167 -390.5 36.5s-229.833 55.833 -322.5 94.5v217
c94.667 -39.333 202.5 -71.666 323.5 -96.999s250.833 -38 389.5 -38c171.333 0 310.5 27.5 417.5 82.5s185.667 138.333 236 250s75.5 254.834 75.5 429.501v176zM1872 1720c-95.333 68 -196.001 119.832 -302.001 155.499s-215.667 53.5 -329 53.5
c-150.667 0 -278 -32.667 -382 -98s-183 -163.666 -237 -294.999s-81 -295.333 -81 -492c0 -192.667 26.5 -353.667 79.5 -483s131.333 -226.5 235 -291.5s230.834 -97.5 381.501 -97.5c112.667 0 220.167 20.167 322.5 60.5s206.5 100.833 312.5 181.5v1306zM1569 2454
l-340 368l-340 -368h-242l434 552h299l435 -552h-246z" />
    <glyph glyph-name="Gbreve" unicode="&#x11e;" horiz-adv-x="2908" 
d="M1516 -41c-280 0 -510.835 63.333 -692.502 190s-315.167 303.167 -400.5 529.5s-128 493.166 -128 800.499c0 325.333 49.5 602 148.5 830s244.833 401.167 437.5 519.5s427.334 177.5 704.001 177.5c128.667 0 267 -14.167 415 -42.5s274.667 -65.833 380 -112.5v-217
c-124.667 46.667 -259.167 83.5 -403.5 110.5s-280.166 40.5 -407.499 40.5c-220.667 0 -405.5 -48 -554.5 -144s-261.167 -240.667 -336.5 -434s-113 -434.666 -113 -723.999c0 -265.333 33 -495 99 -689s170.167 -344.833 312.5 -452.5s324.833 -161.5 547.5 -161.5
c240.667 0 479.667 42.333 717 127v1073h-787v217h1045v-1417c-327.333 -147.333 -655 -221 -983 -221zM1561 3207c-109.333 0 -207.832 22.833 -295.499 68.5s-156.667 110.834 -207 195.5c-50.333 84.667 -75.5 183.667 -75.5 297h205c4 -74.667 22.333 -138.5 55 -191.5
s76.667 -93 132 -120s118.666 -40.5 189.999 -40.5c72.667 0 136.167 13.5 190.5 40.5s97.333 66.833 129 119.5s49.5 116.667 53.5 192h205c0 -113.333 -25.333 -212.333 -76 -297s-120.167 -149.834 -208.5 -195.5c-88.333 -45.667 -187.5 -68.5 -297.5 -68.5z" />
    <glyph glyph-name="gbreve" unicode="&#x11f;" horiz-adv-x="2540" 
d="M1872 201c-101.333 -77.333 -206.667 -137.003 -316 -179.003s-224 -63 -344 -63c-194 0 -360.833 41 -500.5 123s-246.667 203.5 -321 364.5s-111.5 357.5 -111.5 589.5c0 238 39.333 439.833 118 605.5s188.667 290.5 330 374.5s306 126 494 126
c124 0 241.167 -18 351.5 -54s212.833 -86.333 307.5 -151l12 164h230v-2101c0 -207.333 -37 -381.666 -111 -522.999s-183.667 -247.833 -329 -319.5s-325 -107.5 -539 -107.5c-138 0 -268.167 12.167 -390.5 36.5s-229.833 55.833 -322.5 94.5v217
c94.667 -39.333 202.5 -71.666 323.5 -96.999s250.833 -38 389.5 -38c171.333 0 310.5 27.5 417.5 82.5s185.667 138.333 236 250s75.5 254.834 75.5 429.501v176zM1872 1720c-95.333 68 -196.001 119.832 -302.001 155.499s-215.667 53.5 -329 53.5
c-150.667 0 -278 -32.667 -382 -98s-183 -163.666 -237 -294.999s-81 -295.333 -81 -492c0 -192.667 26.5 -353.667 79.5 -483s131.333 -226.5 235 -291.5s230.834 -97.5 381.501 -97.5c112.667 0 220.167 20.167 322.5 60.5s206.5 100.833 312.5 181.5v1306zM1835 3006
c0 -113.333 -25.332 -212.333 -75.999 -297s-120.167 -149.834 -208.5 -195.5c-88.333 -45.667 -187.5 -68.5 -297.5 -68.5c-109.333 0 -207.833 22.833 -295.5 68.5s-156.667 110.834 -207 195.5c-50.333 84.667 -75.5 183.667 -75.5 297h205
c4 -74.667 22.333 -138.5 55 -191.5s76.667 -93 132 -120s118.666 -40.5 189.999 -40.5c72.667 0 136.167 13.5 190.5 40.5s97.333 66.833 129 119.5s49.5 116.667 53.5 192h205z" />
    <glyph glyph-name="Gdotaccent" unicode="&#x120;" horiz-adv-x="2908" 
d="M1516 -41c-280 0 -510.835 63.333 -692.502 190s-315.167 303.167 -400.5 529.5s-128 493.166 -128 800.499c0 325.333 49.5 602 148.5 830s244.833 401.167 437.5 519.5s427.334 177.5 704.001 177.5c128.667 0 267 -14.167 415 -42.5s274.667 -65.833 380 -112.5v-217
c-124.667 46.667 -259.167 83.5 -403.5 110.5s-280.166 40.5 -407.499 40.5c-220.667 0 -405.5 -48 -554.5 -144s-261.167 -240.667 -336.5 -434s-113 -434.666 -113 -723.999c0 -265.333 33 -495 99 -689s170.167 -344.833 312.5 -452.5s324.833 -161.5 547.5 -161.5
c240.667 0 479.667 42.333 717 127v1073h-787v217h1045v-1417c-327.333 -147.333 -655 -221 -983 -221zM1421 3342v361h250v-361h-250z" />
    <glyph glyph-name="gdotaccent" unicode="&#x121;" horiz-adv-x="2540" 
d="M1872 201c-101.333 -77.333 -206.667 -137.003 -316 -179.003s-224 -63 -344 -63c-194 0 -360.833 41 -500.5 123s-246.667 203.5 -321 364.5s-111.5 357.5 -111.5 589.5c0 238 39.333 439.833 118 605.5s188.667 290.5 330 374.5s306 126 494 126
c124 0 241.167 -18 351.5 -54s212.833 -86.333 307.5 -151l12 164h230v-2101c0 -207.333 -37 -381.666 -111 -522.999s-183.667 -247.833 -329 -319.5s-325 -107.5 -539 -107.5c-138 0 -268.167 12.167 -390.5 36.5s-229.833 55.833 -322.5 94.5v217
c94.667 -39.333 202.5 -71.666 323.5 -96.999s250.833 -38 389.5 -38c171.333 0 310.5 27.5 417.5 82.5s185.667 138.333 236 250s75.5 254.834 75.5 429.501v176zM1872 1720c-95.333 68 -196.001 119.832 -302.001 155.499s-215.667 53.5 -329 53.5
c-150.667 0 -278 -32.667 -382 -98s-183 -163.666 -237 -294.999s-81 -295.333 -81 -492c0 -192.667 26.5 -353.667 79.5 -483s131.333 -226.5 235 -291.5s230.834 -97.5 381.501 -97.5c112.667 0 220.167 20.167 322.5 60.5s206.5 100.833 312.5 181.5v1306zM1106 2605v361
h250v-361h-250z" />
    <glyph glyph-name="Gcommaaccent" unicode="&#x122;" horiz-adv-x="2908" 
d="M1516 -41c-280 0 -510.835 63.333 -692.502 190s-315.167 303.167 -400.5 529.5s-128 493.166 -128 800.499c0 325.333 49.5 602 148.5 830s244.833 401.167 437.5 519.5s427.334 177.5 704.001 177.5c128.667 0 267 -14.167 415 -42.5s274.667 -65.833 380 -112.5v-217
c-124.667 46.667 -259.167 83.5 -403.5 110.5s-280.166 40.5 -407.499 40.5c-220.667 0 -405.5 -48 -554.5 -144s-261.167 -240.667 -336.5 -434s-113 -434.666 -113 -723.999c0 -265.333 33 -495 99 -689s170.167 -344.833 312.5 -452.5s324.833 -161.5 547.5 -161.5
c240.667 0 479.667 42.333 717 127v1073h-787v217h1045v-1417c-327.333 -147.333 -655 -221 -983 -221zM1212 -844l226.001 270.999l-62 327h148c67.333 0 116.833 -15.667 148.5 -47s47.5 -75.666 47.5 -132.999c0 -65.333 -11.833 -121.5 -35.5 -168.5
s-64.834 -100.167 -123.501 -159.5l-209 -209z" />
    <glyph glyph-name="gcommaaccent" unicode="&#x123;" horiz-adv-x="2540" 
d="M1872 201c-101.333 -77.333 -206.667 -137.003 -316 -179.003s-224 -63 -344 -63c-194 0 -360.833 41 -500.5 123s-246.667 203.5 -321 364.5s-111.5 357.5 -111.5 589.5c0 238 39.333 439.833 118 605.5s188.667 290.5 330 374.5s306 126 494 126
c124 0 241.167 -18 351.5 -54s212.833 -86.333 307.5 -151l12 164h230v-2101c0 -207.333 -37 -381.666 -111 -522.999s-183.667 -247.833 -329 -319.5s-325 -107.5 -539 -107.5c-138 0 -268.167 12.167 -390.5 36.5s-229.833 55.833 -322.5 94.5v217
c94.667 -39.333 202.5 -71.666 323.5 -96.999s250.833 -38 389.5 -38c171.333 0 310.5 27.5 417.5 82.5s185.667 138.333 236 250s75.5 254.834 75.5 429.501v176zM1872 1720c-95.333 68 -196.001 119.832 -302.001 155.499s-215.667 53.5 -329 53.5
c-150.667 0 -278 -32.667 -382 -98s-183 -163.666 -237 -294.999s-81 -295.333 -81 -492c0 -192.667 26.5 -353.667 79.5 -483s131.333 -226.5 235 -291.5s230.834 -97.5 381.501 -97.5c112.667 0 220.167 20.167 322.5 60.5s206.5 100.833 312.5 181.5v1306zM1217 2454
c-68 0 -117.833 15.5 -149.5 46.5s-47.5 75.5 -47.5 133.5c0 66.667 12 124.667 36 174s65.333 103.333 124 162l209 208l139 -118l-225 -271l61 -335h-147z" />
    <glyph glyph-name="Hcircumflex" unicode="&#x124;" horiz-adv-x="3047" 
d="M2339 0v1409h-1630v-1409h-258v2966h258v-1336h1630v1336h258v-2966h-258zM1864 3215l-340 369l-340 -369h-242l434 553h299l435 -553h-246z" />
    <glyph glyph-name="hcircumflex" unicode="&#x125;" horiz-adv-x="2540" 
d="M1888 0l-0.000976562 1438c0 121.333 -19.833 218 -59.5 290s-97.167 123.5 -172.5 154.5s-170 46.5 -284 46.5c-134 0 -258 -19.667 -372 -59s-224.667 -100 -332 -182v-1688h-250v3080h250v-1179c94.667 72.667 203.334 131 326.001 175s252.667 66 390 66
c157.333 0 292 -22.667 404 -68s198.333 -116.5 259 -213.5s91 -221.5 91 -373.5v-1487h-250zM888.999 3261l-340 368l-340 -368h-242l434 552h299l435 -552h-246z" />
    <glyph glyph-name="Hbar" unicode="&#x126;" horiz-adv-x="3113" 
d="M2372 0v1409h-1631v-1409h-258v2154h-295v218h295v594h258v-594h1631v594h258v-594h295v-218h-295v-2154h-258zM2372 2154h-1631v-524h1631v524z" />
    <glyph glyph-name="hbar" unicode="&#x127;" horiz-adv-x="2540" 
d="M1888 0l-0.000976562 1438c0 121.333 -19.833 218 -59.5 290s-97.167 123.5 -172.5 154.5s-170 46.5 -284 46.5c-134 0 -258 -19.667 -372 -59s-224.667 -100 -332 -182v-1688h-250v2494h-262v205h262v381h250v-381h458v-205h-458v-593
c94.667 72.667 203.334 131 326.001 175s252.667 66 390 66c157.333 0 292 -22.667 404 -68s198.333 -116.5 259 -213.5s91 -221.5 91 -373.5v-1487h-250z" />
    <glyph glyph-name="Itilde" unicode="&#x128;" horiz-adv-x="1159" 
d="M451 0v2966h258v-2966h-258zM1237 3678c0 -66.667 -7.5 -128.167 -22.5 -184.5s-38 -105.166 -69 -146.5c-31 -41.333 -70 -73.666 -117 -97c-47 -23.333 -102.833 -35 -167.5 -35c-44 0 -84.833 6.33301 -122.5 19s-73.167 28.667 -106.5 48s-65 40 -95 62l-87 62
c-28 19.333 -55.333 35.333 -82 48s-53.667 19 -81 19c-58 0 -99.833 -21.333 -125.5 -64s-38.5 -107.334 -38.5 -194h-205c0 66.667 7.5 128.334 22.5 185c15 56.667 38 105.5 69 146.5s70.167 73.167 117.5 96.5s103.333 35 168 35c43.333 0 84 -6.33301 122 -19
s73.667 -28.667 107 -48s65 -40 95 -62l86.5 -62c27.667 -19.333 55 -35.333 82 -48s54.167 -19 81.5 -19c57.333 0 99 21.333 125 64s39 107.334 39 194h204z" />
    <glyph glyph-name="itilde" unicode="&#x129;" horiz-adv-x="1085" 
d="M418 0v2101h250v-2101h-250zM1200 2941c0 -66.667 -7.5 -128.167 -22.5 -184.5s-38 -105.166 -69 -146.5c-31 -41.333 -70 -73.666 -117 -97c-47 -23.333 -102.833 -35 -167.5 -35c-44 0 -84.833 6.33301 -122.5 19s-73.167 28.667 -106.5 48s-65 40 -95 62l-87 62
c-28 19.333 -55.333 35.333 -82 48s-53.667 19 -81 19c-58 0 -99.833 -21.333 -125.5 -64s-38.5 -107.334 -38.5 -194h-205c0 66.667 7.5 128.167 22.5 184.5s38 105.166 69 146.5c31 41.333 70.167 73.666 117.5 97c47.333 23.333 103.333 35 168 35
c43.333 0 84 -6.33301 122 -19s73.667 -28.667 107 -48s65 -40 95 -62l86.5 -62c27.667 -19.333 55 -35.333 82 -48s54.167 -19 81.5 -19c57.333 0 99 21.333 125 64s39 107.334 39 194h204z" />
    <glyph glyph-name="Imacron" unicode="&#x12a;" horiz-adv-x="1159" 
d="M451 0v2966h258v-2966h-258zM33 3342v205h1094v-205h-1094z" />
    <glyph glyph-name="imacron" unicode="&#x12b;" horiz-adv-x="1085" 
d="M418 0v2101h250v-2101h-250zM-4 2605v205h1094v-205h-1094z" />
    <glyph glyph-name="Ibreve" unicode="&#x12c;" horiz-adv-x="1159" 
d="M451 0v2966h258v-2966h-258zM578 3207c-109.333 0 -207.832 22.833 -295.499 68.5s-156.667 110.834 -207 195.5c-50.333 84.667 -75.5 183.667 -75.5 297h205c4 -74.667 22.333 -138.5 55 -191.5s76.667 -93 132 -120s118.666 -40.5 189.999 -40.5
c72.667 0 136.167 13.5 190.5 40.5s97.333 66.833 129 119.5s49.5 116.667 53.5 192h205c0 -113.333 -25.333 -212.333 -76 -297s-120.167 -149.834 -208.5 -195.5c-88.333 -45.667 -187.5 -68.5 -297.5 -68.5z" />
    <glyph glyph-name="ibreve" unicode="&#x12d;" horiz-adv-x="1085" 
d="M418 0v2101h250v-2101h-250zM1123 3006c0 -113.333 -25.332 -212.333 -75.999 -297s-120.167 -149.834 -208.5 -195.5c-88.333 -45.667 -187.5 -68.5 -297.5 -68.5c-109.333 0 -207.833 22.833 -295.5 68.5s-156.667 110.834 -207 195.5
c-50.333 84.667 -75.5 183.667 -75.5 297h205c4 -74.667 22.333 -138.5 55 -191.5s76.667 -93 132 -120s118.666 -40.5 189.999 -40.5c72.667 0 136.167 13.5 190.5 40.5s97.333 66.833 129 119.5s49.5 116.667 53.5 192h205z" />
    <glyph glyph-name="Iogonek" unicode="&#x12e;" horiz-adv-x="1159" 
d="M852 -901c-80.667 -24.667 -165.331 -37 -253.998 -37c-136.667 0 -241.834 35.5 -315.501 106.5s-110.5 159.833 -110.5 266.5c0 92 23.167 183.833 69.5 275.5s116.166 188.167 209.499 289.5v2966h258v-2966c-112 -121.333 -188.5 -224.166 -229.5 -308.499
s-61.5 -164.5 -61.5 -240.5c0 -64.667 19.333 -114.334 58 -149.001s93 -52 163 -52c73.333 0 144.333 9.66699 213 29v-180z" />
    <glyph glyph-name="iogonek" unicode="&#x12f;" horiz-adv-x="1085" 
d="M811 -901c-80.667 -24.667 -165.334 -37.001 -254.001 -37.001c-92 0 -170 16.667 -234 50s-112 78.333 -144 135s-48 119.334 -48 188.001c0 92.667 23.833 184.834 71.5 276.501s119.5 187.834 215.5 288.501v2101h250v-2101
c-113.333 -126 -190.166 -230.333 -230.499 -313s-60.5 -161.334 -60.5 -236.001c0 -64.667 19.333 -114.334 58 -149.001s93 -52 163 -52c73.333 0 144.333 9.66699 213 29v-180zM418 2605v361h250v-361h-250z" />
    <glyph glyph-name="Idotaccent" unicode="&#x130;" horiz-adv-x="1159" 
d="M451 0v2966h258v-2966h-258zM455 3342v361h250v-361h-250z" />
    <glyph glyph-name="dotlessi" unicode="&#x131;" horiz-adv-x="1085" 
d="M418 0v2101h250v-2101h-250z" />
    <glyph glyph-name="IJ" unicode="&#x132;" horiz-adv-x="2580" 
d="M451 0v2966h258v-2966h-258zM1163 -291c54.667 -10.667 112 -16.001 172 -16.001c116 0 213.5 23.833 292.5 71.5s139.5 124.334 181.5 230.001s63 244.167 63 415.5v2334h-463v222h721v-2540c0 -224 -33.167 -406.833 -99.5 -548.5s-158 -244.667 -275 -309
s-254.5 -96.5 -412.5 -96.5c-70 0 -130 6.66699 -180 20v217z" />
    <glyph glyph-name="ij" unicode="&#x133;" horiz-adv-x="2171" 
d="M418 0v2101h250v-2101h-250zM418 2605v361h250v-361h-250zM888 -721c49.333 -10.667 102.666 -16 159.999 -16c107.333 0 194.333 25.833 261 77.5s115.667 131.5 147 239.5s47 248 47 420v2101h250v-2146c0 -204 -27 -373.333 -81 -508s-132 -234.5 -234 -299.5
s-225 -97.5 -369 -97.5c-65.333 0 -125.666 6.66699 -180.999 20v209zM1503 2605v361h250v-361h-250z" />
    <glyph glyph-name="Jcircumflex" unicode="&#x134;" horiz-adv-x="1421" 
d="M4 -291c54.667 -10.667 112 -16.001 172 -16.001c116 0 213.5 23.833 292.5 71.5s139.5 124.334 181.5 230.001s63 244.167 63 415.5v2334h-463v222h721v-2540c0 -224 -33.167 -406.833 -99.5 -548.5s-158 -244.667 -275 -309s-254.5 -96.5 -412.5 -96.5
c-70 0 -130 6.66699 -180 20v217zM1131 3215l-340 369l-340 -369h-242l434 553h299l435 -553h-246z" />
    <glyph glyph-name="jcircumflex" unicode="&#x135;" horiz-adv-x="1085" 
d="M-172 -721c49.333 -10.667 102.666 -16 159.999 -16c107.333 0 194.333 25.833 261 77.5s115.667 131.5 147 239.5s47 248 47 420v2101h250v-2146c0 -204 -27 -373.333 -81 -508s-132 -234.5 -234 -299.5s-225 -97.5 -369 -97.5c-65.333 0 -125.666 6.66699 -180.999 20
v209zM909 2454l-340 368l-340 -368h-242l434 552h299l435 -552h-246z" />
    <glyph glyph-name="Kcommaaccent" unicode="&#x136;" horiz-adv-x="2666" 
d="M2220 0l-1511 1421v-1421h-258v2966h258v-1389l1499 1389h348l-1348 -1246l-245 -200l208 -185l1430 -1335h-381zM1069 -844l226.001 270.999l-62 327h148c67.333 0 116.833 -15.667 148.5 -47s47.5 -75.666 47.5 -132.999c0 -65.333 -11.833 -121.5 -35.5 -168.5
s-64.834 -100.167 -123.501 -159.5l-209 -209z" />
    <glyph glyph-name="kcommaaccent" unicode="&#x137;" horiz-adv-x="2154" 
d="M1769 0l-1101 1024v-1024h-250v3080h250v-1929l1040 950h320l-955 -868c-52.667 -48.667 -103 -91 -151 -127c82.667 -62.667 149.334 -117.334 200.001 -164.001l1020 -942h-373zM863.999 -843.999l226.001 270.999l-62 327h148c67.333 0 116.833 -15.667 148.5 -47
s47.5 -75.666 47.5 -132.999c0 -65.333 -11.833 -121.5 -35.5 -168.5s-64.834 -100.167 -123.501 -159.5l-209 -209z" />
    <glyph glyph-name="Lacute" unicode="&#x139;" horiz-adv-x="2146" 
d="M451 0v2966h258v-2745h1355v-221h-1613zM889 3768h348l-520 -553h-250z" />
    <glyph glyph-name="lacute" unicode="&#x13a;" horiz-adv-x="1245" 
d="M1163 29c-114.667 -32.667 -219.667 -49 -315 -49c-144 0 -253 34 -327 102s-111 184 -111 348v2650h249v-2625c0 -88 14.667 -153.667 44 -197s83 -65 161 -65c99.333 0 199 10.667 299 32v-196zM406 3261l422 552h348l-520 -552h-250z" />
    <glyph glyph-name="Lcommaaccent" unicode="&#x13b;" horiz-adv-x="2146" 
d="M451 0v2966h258v-2745h1355v-221h-1613zM942 -844l226.001 270.999l-62 327h148c67.333 0 116.833 -15.667 148.5 -47s47.5 -75.666 47.5 -132.999c0 -65.333 -11.833 -121.5 -35.5 -168.5s-64.834 -100.167 -123.501 -159.5l-209 -209z" />
    <glyph glyph-name="lcommaaccent" unicode="&#x13c;" horiz-adv-x="1245" 
d="M1163 29c-114.667 -32.667 -219.667 -49 -315 -49c-144 0 -253 34 -327 102s-111 184 -111 348v2650h249v-2625c0 -88 14.667 -153.667 44 -197s83 -65 161 -65c99.333 0 199 10.667 299 32v-196zM475 -844l226.001 270.999l-62 327h148
c67.333 0 116.833 -15.667 148.5 -47s47.5 -75.666 47.5 -132.999c0 -65.333 -11.833 -121.5 -35.5 -168.5s-64.834 -100.167 -123.501 -159.5l-209 -209z" />
    <glyph glyph-name="Lcaron" unicode="&#x13d;" horiz-adv-x="2146" 
d="M451 0v2966h258v-2745h1355v-221h-1613zM1110 2257l94 434l-49 389h131c64 0 110.667 -17.667 140 -53s44 -88.666 44 -160c0 -46.667 -8 -100.5 -24 -161.5s-39.333 -134.167 -70 -219.5l-82 -229h-184z" />
    <glyph glyph-name="lcaron" unicode="&#x13e;" horiz-adv-x="1245" 
d="M1163 29c-114.667 -32.667 -219.667 -49 -315 -49c-144 0 -253 34 -327 102s-111 184 -111 348v2650h249v-2625c0 -88 14.667 -153.667 44 -197s83 -65 161 -65c99.333 0 199 10.667 299 32v-196zM889 2257l94 434l-49 389h131c64 0 110.667 -17.667 140 -53
s44 -88.666 44 -160c0 -46.667 -8 -100.5 -24 -161.5s-39.333 -134.167 -70 -219.5l-82 -229h-184z" />
    <glyph glyph-name="Ldot" unicode="&#x13f;" horiz-adv-x="2146" 
d="M451 0v2966h258v-2745h1355v-221h-1613zM1479 1360v377h327v-377h-327z" />
    <glyph glyph-name="ldot" unicode="&#x140;" horiz-adv-x="1290" 
d="M1163 29c-114.667 -32.667 -219.667 -49 -315 -49c-144 0 -253 34 -327 102s-111 184 -111 348v2650h249v-2625c0 -88 14.667 -153.667 44 -197s83 -65 161 -65c99.333 0 199 10.667 299 32v-196zM1040 1245v360h311v-360h-311z" />
    <glyph glyph-name="Lslash" unicode="&#x141;" horiz-adv-x="2179" 
d="M483 0v1237l-356 -160v209l356 160v1520h258v-1401l717 323v-209l-717 -323v-1135h1356v-221h-1614z" />
    <glyph glyph-name="lslash" unicode="&#x142;" horiz-adv-x="1311" 
d="M1204 29c-114.667 -32.667 -219.667 -49 -315 -49c-144 0 -253 34 -327 102s-111 184 -111 348v860l-332 -147v205l332 147v1585h249v-1470l402 180v-205l-402 -180v-950c0 -88 14.667 -153.667 44 -197s83 -65 161 -65c99.333 0 199 10.667 299 32v-196z" />
    <glyph glyph-name="Nacute" unicode="&#x143;" horiz-adv-x="3129" 
d="M2400 0l-1442 2171c-110 170 -198.667 325.667 -266 467c11.333 -136 17 -298.667 17 -488v-2150h-258v2966h282l1438 -2163c110 -170 198.667 -325.667 266 -467c-10.667 138.667 -16 301 -16 487v2143h258v-2966h-279zM1864 3768h348l-520 -553h-250z" />
    <glyph glyph-name="nacute" unicode="&#x144;" horiz-adv-x="2540" 
d="M1888 0v1438c0 121.333 -19.833 218 -59.5 290s-97.167 123.5 -172.5 154.5s-170 46.5 -284 46.5c-134 0 -258 -19.667 -372 -59s-224.667 -100 -332 -182v-1688h-250v2101h229l17 -205c96 74.667 205.5 134.334 328.5 179.001s253.5 67 391.5 67
c157.333 0 292 -22.667 404 -68s198.333 -116.5 259 -213.5s91 -221.5 91 -373.5v-1487h-250zM1188 2454l422 552h348l-520 -552h-250z" />
    <glyph glyph-name="Ncommaaccent" unicode="&#x145;" horiz-adv-x="3129" 
d="M2400 0l-1442 2171c-110 170 -198.667 325.667 -266 467c11.333 -136 17 -298.667 17 -488v-2150h-258v2966h282l1438 -2163c110 -170 198.667 -325.667 266 -467c-10.667 138.667 -16 301 -16 487v2143h258v-2966h-279zM1257 -844l226.001 270.999l-62 327h148
c67.333 0 116.833 -15.667 148.5 -47s47.5 -75.666 47.5 -132.999c0 -65.333 -11.833 -121.5 -35.5 -168.5s-64.834 -100.167 -123.501 -159.5l-209 -209z" />
    <glyph glyph-name="ncommaaccent" unicode="&#x146;" horiz-adv-x="2540" 
d="M1888 0v1438c0 121.333 -19.833 218 -59.5 290s-97.167 123.5 -172.5 154.5s-170 46.5 -284 46.5c-134 0 -258 -19.667 -372 -59s-224.667 -100 -332 -182v-1688h-250v2101h229l17 -205c96 74.667 205.5 134.334 328.5 179.001s253.5 67 391.5 67
c157.333 0 292 -22.667 404 -68s198.333 -116.5 259 -213.5s91 -221.5 91 -373.5v-1487h-250zM958 -844.001l226.001 270.999l-62 327h148c67.333 0 116.833 -15.667 148.5 -47s47.5 -75.666 47.5 -132.999c0 -65.333 -11.833 -121.5 -35.5 -168.5
s-64.834 -100.167 -123.501 -159.5l-209 -209z" />
    <glyph glyph-name="Ncaron" unicode="&#x147;" horiz-adv-x="3129" 
d="M2400 0l-1442 2171c-110 170 -198.667 325.667 -266 467c11.333 -136 17 -298.667 17 -488v-2150h-258v2966h282l1438 -2163c110 -170 198.667 -325.667 266 -467c-10.667 138.667 -16 301 -16 487v2143h258v-2966h-279zM1437 3215l-434 553h246l340 -368l340 368h242
l-435 -553h-299z" />
    <glyph glyph-name="ncaron" unicode="&#x148;" horiz-adv-x="2540" 
d="M1888 0v1438c0 121.333 -19.833 218 -59.5 290s-97.167 123.5 -172.5 154.5s-170 46.5 -284 46.5c-134 0 -258 -19.667 -372 -59s-224.667 -100 -332 -182v-1688h-250v2101h229l17 -205c96 74.667 205.5 134.334 328.5 179.001s253.5 67 391.5 67
c157.333 0 292 -22.667 404 -68s198.333 -116.5 259 -213.5s91 -221.5 91 -373.5v-1487h-250zM1163 2454l-434 552h246l340 -368l340 368h242l-435 -552h-299z" />
    <glyph glyph-name="napostrophe" unicode="&#x149;" horiz-adv-x="2793" 
d="M33 2187l233 475l-45 418h197c58 0 101.833 -16 131.5 -48s44.5 -77.333 44.5 -136c0 -82 -15.833 -159.833 -47.5 -233.5s-92.5 -177.5 -182.5 -311.5l-110 -164h-221zM2142 0v1438c0 121.333 -19.833 218 -59.5 290s-97.167 123.5 -172.5 154.5s-170 46.5 -284 46.5
c-134 0 -258 -19.667 -372 -59s-224.667 -100 -332 -182v-1688h-250v2101h229l17 -205c96 74.667 205.5 134.334 328.5 179.001s253.5 67 391.5 67c157.333 0 292 -22.667 404 -68s198.333 -116.5 259 -213.5s91 -221.5 91 -373.5v-1487h-250z" />
    <glyph glyph-name="Eng" unicode="&#x14a;" horiz-adv-x="3129" 
d="M2679 4c0 -224 -33.166 -406.833 -99.499 -548.5s-158 -244.667 -275 -309s-254.5 -96.5 -412.5 -96.5c-70 0 -130 6.66699 -180 20v217c54.667 -10.667 112 -16 172 -16c115.333 0 212.666 23.5 291.999 70.5s140 122.167 182 225.5s63 238 63 404l-1463 2200
c-110 170 -198.667 325.667 -266 467c11.333 -136 17 -298.667 17 -488v-2150h-258v2966h282l1438 -2163c110 -170 198.667 -325.667 266 -467c-10.667 138.667 -16 301 -16 487v2143h258v-2962z" />
    <glyph glyph-name="eng" unicode="&#x14b;" horiz-adv-x="2540" 
d="M418 0v2101h229l17 -205c96 74.667 205.5 134.334 328.5 179.001s253.5 67 391.5 67c157.333 0 292 -22.667 404 -68s198.333 -116.5 259 -213.5s91 -221.5 91 -373.5v-1532c0 -204 -27 -373.333 -81 -508s-132 -234.5 -234 -299.5s-225 -97.5 -369 -97.5
c-65.333 0 -125.333 6.66699 -180 20v209c49.333 -10.667 102.666 -16 159.999 -16c106.667 0 193.334 25.833 260.001 77.5s115.667 131.5 147 239.5s47 248 47 420v1438c0 121.333 -19.833 218 -59.5 290s-97.167 123.5 -172.5 154.5s-170 46.5 -284 46.5
c-134 0 -258 -19.667 -372 -59s-224.667 -100 -332 -182v-1688h-250z" />
    <glyph glyph-name="Omacron" unicode="&#x14c;" horiz-adv-x="2994" 
d="M1491 -41c-273.333 0 -499.165 64.5 -677.498 193.5s-309.333 307 -393 534s-125.5 491.167 -125.5 792.5c0 298.667 43.167 562.5 129.5 791.5s219.666 408.833 399.999 539.5s406.5 196 678.5 196c273.333 0 499.166 -64.5 677.499 -193.5s309.333 -307 393 -534
s125.5 -490.833 125.5 -791.5c0 -299.333 -43.167 -563.5 -129.5 -792.5s-219.666 -408.833 -400 -539.5c-180.333 -130.667 -406.5 -196 -678.5 -196zM1499 180c212 0 387.167 54.666 525.5 163.999s240.333 261.333 306 456s98.5 422.334 98.5 683.001
s-32.833 488.167 -98.5 682.5s-168 346.166 -307 455.5c-139 109.333 -315.167 164 -528.5 164c-212 0 -387.167 -54.667 -525.5 -164s-240.333 -261.166 -306 -455.499s-98.5 -421.833 -98.5 -682.5s32.833 -488.334 98.5 -683.001s168 -346.667 307 -456
s315.167 -164 528.5 -164zM950.001 3342v205h1094v-205h-1094z" />
    <glyph glyph-name="omacron" unicode="&#x14d;" horiz-adv-x="2494" 
d="M1245 -41c-217.333 0 -397.998 46.3311 -541.998 138.998s-250.667 220.5 -320 383.5s-104 352.167 -104 567.5c0 212.667 35.5 401.167 106.5 565.5s179.167 293.333 324.5 387s325 140.5 539 140.5c217.333 0 398.166 -46.167 542.499 -138.5
s251.166 -220.166 320.499 -383.499s104 -352.333 104 -567c0 -213.333 -35.5 -402.166 -106.5 -566.499s-179.167 -293.333 -324.5 -387s-325.333 -140.5 -540 -140.5zM1245 171.998c162.667 0 296.667 36.001 402 108.001s182.833 173.5 232.5 304.5
s74.5 287.167 74.5 468.5c0 179.333 -25 334.166 -75 464.499s-127.5 231.5 -232.5 303.5s-237.5 108 -397.5 108c-162 0 -295.667 -36 -401 -108s-182.833 -173.5 -232.5 -304.5s-74.5 -286.833 -74.5 -467.5c0 -179.333 25 -334.333 75 -465s127.5 -232 232.5 -304
s237.167 -108 396.5 -108zM700.002 2605v205h1094v-205h-1094z" />
    <glyph glyph-name="Obreve" unicode="&#x14e;" horiz-adv-x="2994" 
d="M1491 -41c-273.333 0 -499.165 64.5 -677.498 193.5s-309.333 307 -393 534s-125.5 491.167 -125.5 792.5c0 298.667 43.167 562.5 129.5 791.5s219.666 408.833 399.999 539.5s406.5 196 678.5 196c273.333 0 499.166 -64.5 677.499 -193.5s309.333 -307 393 -534
s125.5 -490.833 125.5 -791.5c0 -299.333 -43.167 -563.5 -129.5 -792.5s-219.666 -408.833 -400 -539.5c-180.333 -130.667 -406.5 -196 -678.5 -196zM1499 180c212 0 387.167 54.666 525.5 163.999s240.333 261.333 306 456s98.5 422.334 98.5 683.001
s-32.833 488.167 -98.5 682.5s-168 346.166 -307 455.5c-139 109.333 -315.167 164 -528.5 164c-212 0 -387.167 -54.667 -525.5 -164s-240.333 -261.166 -306 -455.499s-98.5 -421.833 -98.5 -682.5s32.833 -488.334 98.5 -683.001s168 -346.667 307 -456
s315.167 -164 528.5 -164zM1495 3207c-109.333 0 -207.832 22.834 -295.499 68.501s-156.667 110.834 -207 195.5c-50.333 84.667 -75.5 183.667 -75.5 297h205c4 -74.667 22.333 -138.5 55 -191.5s76.667 -93 132 -120s118.666 -40.5 189.999 -40.5
c72.667 0 136.167 13.5 190.5 40.5s97.333 66.833 129 119.5s49.5 116.667 53.5 192h205c0 -113.333 -25.333 -212.333 -76 -297s-120.167 -149.834 -208.5 -195.501s-187.5 -68.5 -297.5 -68.5z" />
    <glyph glyph-name="obreve" unicode="&#x14f;" horiz-adv-x="2494" 
d="M1245 -41c-217.333 0 -397.998 46.3311 -541.998 138.998s-250.667 220.5 -320 383.5s-104 352.167 -104 567.5c0 212.667 35.5 401.167 106.5 565.5s179.167 293.333 324.5 387s325 140.5 539 140.5c217.333 0 398.166 -46.167 542.499 -138.5
s251.166 -220.166 320.499 -383.499s104 -352.333 104 -567c0 -213.333 -35.5 -402.166 -106.5 -566.499s-179.167 -293.333 -324.5 -387s-325.333 -140.5 -540 -140.5zM1245 171.998c162.667 0 296.667 36.001 402 108.001s182.833 173.5 232.5 304.5
s74.5 287.167 74.5 468.5c0 179.333 -25 334.166 -75 464.499s-127.5 231.5 -232.5 303.5s-237.5 108 -397.5 108c-162 0 -295.667 -36 -401 -108s-182.833 -173.5 -232.5 -304.5s-74.5 -286.833 -74.5 -467.5c0 -179.333 25 -334.333 75 -465s127.5 -232 232.5 -304
s237.167 -108 396.5 -108zM1827 3006c0 -113.333 -25.332 -212.334 -75.999 -297.001s-120.167 -149.834 -208.5 -195.5c-88.333 -45.667 -187.5 -68.5 -297.5 -68.5c-109.333 0 -207.833 22.833 -295.5 68.5s-156.667 110.834 -207 195.501s-75.5 183.667 -75.5 297h205
c4 -74.667 22.333 -138.5 55 -191.5s76.667 -93 132 -120s118.666 -40.5 189.999 -40.5c72.667 0 136.167 13.5 190.5 40.5s97.333 66.833 129 119.5s49.5 116.667 53.5 192h205z" />
    <glyph glyph-name="Ohungarumlaut" unicode="&#x150;" horiz-adv-x="2994" 
d="M1491 -41c-273.333 0 -499.165 64.5 -677.498 193.5s-309.333 307 -393 534s-125.5 491.167 -125.5 792.5c0 298.667 43.167 562.5 129.5 791.5s219.666 408.833 399.999 539.5s406.5 196 678.5 196c273.333 0 499.166 -64.5 677.499 -193.5s309.333 -307 393 -534
s125.5 -490.833 125.5 -791.5c0 -299.333 -43.167 -563.5 -129.5 -792.5s-219.666 -408.833 -400 -539.5c-180.333 -130.667 -406.5 -196 -678.5 -196zM1499 180c212 0 387.167 54.666 525.5 163.999s240.333 261.333 306 456s98.5 422.334 98.5 683.001
s-32.833 488.167 -98.5 682.5s-168 346.166 -307 455.5c-139 109.333 -315.167 164 -528.5 164c-212 0 -387.167 -54.667 -525.5 -164s-240.333 -261.166 -306 -455.499s-98.5 -421.833 -98.5 -682.5s32.833 -488.334 98.5 -683.001s168 -346.667 307 -456
s315.167 -164 528.5 -164zM1041 3215l258 553h299l-340 -553h-217zM1704 3215l258 553h299l-340 -553h-217z" />
    <glyph glyph-name="ohungarumlaut" unicode="&#x151;" horiz-adv-x="2494" 
d="M1245 -41c-217.333 0 -397.998 46.3311 -541.998 138.998s-250.667 220.5 -320 383.5s-104 352.167 -104 567.5c0 212.667 35.5 401.167 106.5 565.5s179.167 293.333 324.5 387s325 140.5 539 140.5c217.333 0 398.166 -46.167 542.499 -138.5
s251.166 -220.166 320.499 -383.499s104 -352.333 104 -567c0 -213.333 -35.5 -402.166 -106.5 -566.499s-179.167 -293.333 -324.5 -387s-325.333 -140.5 -540 -140.5zM1245 171.998c162.667 0 296.667 36.001 402 108.001s182.833 173.5 232.5 304.5
s74.5 287.167 74.5 468.5c0 179.333 -25 334.166 -75 464.499s-127.5 231.5 -232.5 303.5s-237.5 108 -397.5 108c-162 0 -295.667 -36 -401 -108s-182.833 -173.5 -232.5 -304.5s-74.5 -286.833 -74.5 -467.5c0 -179.333 25 -334.333 75 -465s127.5 -232 232.5 -304
s237.167 -108 396.5 -108zM811.002 2454l258 552h299l-340 -552h-217zM1474 2454l258 552h299l-340 -552h-217z" />
    <glyph glyph-name="OE" unicode="&#x152;" horiz-adv-x="4116" 
d="M2146 0c-205.333 -27.333 -404.669 -40.999 -598.002 -40.999c-291.333 0 -530.166 64.333 -716.499 193s-322.333 306.167 -408 532.5s-128.5 491.166 -128.5 794.499c0 300.667 44 565 132 793s226.333 407.333 415 538s428.334 196 719.001 196
c155.333 0 350.333 -13.333 585 -40h1782v-222h-1524v-1114h1303v-221h-1303v-1188h1524v-221h-1782zM2146 2744c-224 27.333 -423.334 41.001 -598.001 41.001c-228.667 0 -416 -54.5 -562 -163.5s-252.667 -260.333 -320 -454s-101 -421.834 -101 -684.501
s33.833 -491 101.5 -685s175 -345.5 322 -454.5s336.167 -163.5 567.5 -163.5c224.667 0 421.334 13.667 590.001 41v2523z" />
    <glyph glyph-name="oe" unicode="&#x153;" horiz-adv-x="4006" 
d="M3633 127c-85.333 -48 -190.666 -87.999 -316 -119.999c-125.333 -32 -267 -48 -425 -48c-210 0 -385 41.833 -525 125.5s-238 208.5 -294 374.5c-67.333 -160 -170.5 -283.333 -309.5 -370s-311.833 -130 -518.5 -130c-217.333 0 -398 46.333 -542 139
s-250.667 220.5 -320 383.5s-104 352.167 -104 567.5c0 212.667 35.5 401.167 106.5 565.5s179.167 293.333 324.5 387s325 140.5 539 140.5s391.167 -45.167 531.5 -135.5s240.5 -214.5 300.5 -372.5c64 162.667 162.833 288 296.5 376s294.167 132 481.5 132
c189.333 0 349.833 -42.833 481.5 -128.5s230.5 -203.167 296.5 -352.5s99 -319.333 99 -510c0 -58 -3 -99 -9 -123h-1523c4 -196.667 30.167 -357.5 78.5 -482.5s124 -218.5 227 -280.5s238.5 -93 406.5 -93c139.333 0 259.666 12.167 361 36.5
c101.333 24.333 220 64.166 356 119.499v-201zM1245 172.001c162.667 0 296.667 36.001 402 108.001s182.833 173.5 232.5 304.5s74.5 287.167 74.5 468.5c0 179.333 -25 334.166 -75 464.499s-127.5 231.5 -232.5 303.5s-237.5 108 -397.5 108
c-162 0 -295.667 -36 -401 -108s-182.833 -173.5 -232.5 -304.5s-74.5 -286.833 -74.5 -467.5c0 -179.333 25 -334.333 75 -465s127.5 -232 232.5 -304s237.167 -108 396.5 -108zM3478 1237c-6 140 -34 262 -84 366s-120.833 184.333 -212.5 241s-200.5 85 -326.5 85
c-122.667 0 -231.167 -28.5 -325.5 -85.5s-169.166 -137.667 -224.5 -242c-55.333 -104.333 -87.666 -225.833 -97 -364.5h1270z" />
    <glyph glyph-name="Racute" unicode="&#x154;" horiz-adv-x="2724" 
d="M2208 0l-717 1032c-63.333 90.667 -124.5 155 -183.5 193s-131.5 57 -217.5 57h-381v-1282h-258v2966h843c223.333 0 409 -34.667 557 -104s257.5 -166.666 328.5 -292c71 -125.333 106.5 -273.333 106.5 -444c0 -160 -31.167 -298.167 -93.5 -414.5
s-149.166 -208 -260.499 -275s-240.666 -108.833 -387.999 -125.5c37.333 -21.333 76.666 -53.833 117.999 -97.5s82.666 -94.5 123.999 -152.5l741 -1061h-319zM1294 1499c148.667 0 276.667 22.167 384 66.5s190.333 112.833 249 205.5s88 209.667 88 351
c0 125.333 -25.333 234.333 -76 327s-130.167 165 -238.5 217s-246.5 78 -414.5 78h-577v-1245h585zM1565 3768h348l-520 -553h-250z" />
    <glyph glyph-name="racute" unicode="&#x155;" horiz-adv-x="1720" 
d="M418 0l0.000976562 2101h229l17 -319c42.667 66.667 94 126.834 154 180.501s131.167 97 213.5 130s174.166 49.5 275.499 49.5c62 0 118.5 -5.33301 169.5 -16s96.833 -24.334 137.5 -41.001v-238c-50 15.333 -104.833 28.166 -164.5 38.499s-114.167 15.5 -163.5 15.5
c-98 0 -183.833 -17.167 -257.5 -51.5s-139 -85.166 -196 -152.499s-111.833 -153.666 -164.5 -258.999v-1438h-250zM848.001 2454l422 552h348l-520 -552h-250z" />
    <glyph glyph-name="Rcommaaccent" unicode="&#x156;" horiz-adv-x="2724" 
d="M2208 0l-717 1032c-63.333 90.667 -124.5 155 -183.5 193s-131.5 57 -217.5 57h-381v-1282h-258v2966h843c223.333 0 409 -34.667 557 -104s257.5 -166.666 328.5 -292c71 -125.333 106.5 -273.333 106.5 -444c0 -160 -31.167 -298.167 -93.5 -414.5
s-149.166 -208 -260.499 -275s-240.666 -108.833 -387.999 -125.5c37.333 -21.333 76.666 -53.833 117.999 -97.5s82.666 -94.5 123.999 -152.5l741 -1061h-319zM1294 1499c148.667 0 276.667 22.167 384 66.5s190.333 112.833 249 205.5s88 209.667 88 351
c0 125.333 -25.333 234.333 -76 327s-130.167 165 -238.5 217s-246.5 78 -414.5 78h-577v-1245h585zM1065 -844l226.001 270.999l-62 327h148c67.333 0 116.833 -15.667 148.5 -47s47.5 -75.666 47.5 -132.999c0 -65.333 -11.833 -121.5 -35.5 -168.5
s-64.834 -100.167 -123.501 -159.5l-209 -209z" />
    <glyph glyph-name="rcommaaccent" unicode="&#x157;" horiz-adv-x="1720" 
d="M418 0l0.000976562 2101h229l17 -319c42.667 66.667 94 126.834 154 180.501s131.167 97 213.5 130s174.166 49.5 275.499 49.5c62 0 118.5 -5.33301 169.5 -16s96.833 -24.334 137.5 -41.001v-238c-50 15.333 -104.833 28.166 -164.5 38.499s-114.167 15.5 -163.5 15.5
c-98 0 -183.833 -17.167 -257.5 -51.5s-139 -85.166 -196 -152.499s-111.833 -153.666 -164.5 -258.999v-1438h-250zM237.001 -844.001l226.001 270.999l-62 327h148c67.333 0 116.833 -15.667 148.5 -47s47.5 -75.666 47.5 -132.999c0 -65.333 -11.833 -121.5 -35.5 -168.5
s-64.834 -100.167 -123.501 -159.5l-209 -209z" />
    <glyph glyph-name="Rcaron" unicode="&#x158;" horiz-adv-x="2724" 
d="M2208 0l-717 1032c-63.333 90.667 -124.5 155 -183.5 193s-131.5 57 -217.5 57h-381v-1282h-258v2966h843c223.333 0 409 -34.667 557 -104s257.5 -166.666 328.5 -292c71 -125.333 106.5 -273.333 106.5 -444c0 -160 -31.167 -298.167 -93.5 -414.5
s-149.166 -208 -260.499 -275s-240.666 -108.833 -387.999 -125.5c37.333 -21.333 76.666 -53.833 117.999 -97.5s82.666 -94.5 123.999 -152.5l741 -1061h-319zM1294 1499c148.667 0 276.667 22.167 384 66.5s190.333 112.833 249 205.5s88 209.667 88 351
c0 125.333 -25.333 234.333 -76 327s-130.167 165 -238.5 217s-246.5 78 -414.5 78h-577v-1245h585zM1097 3215l-434 553h246l340 -368l340 368h242l-435 -553h-299z" />
    <glyph glyph-name="rcaron" unicode="&#x159;" horiz-adv-x="1720" 
d="M418 0l0.000976562 2101h229l17 -319c42.667 66.667 94 126.834 154 180.501s131.167 97 213.5 130s174.166 49.5 275.499 49.5c62 0 118.5 -5.33301 169.5 -16s96.833 -24.334 137.5 -41.001v-238c-50 15.333 -104.833 28.166 -164.5 38.499s-114.167 15.5 -163.5 15.5
c-98 0 -183.833 -17.167 -257.5 -51.5s-139 -85.166 -196 -152.499s-111.833 -153.666 -164.5 -258.999v-1438h-250zM872.001 2454l-434 552h246l340 -368l340 368h242l-435 -552h-299z" />
    <glyph glyph-name="Sacute" unicode="&#x15a;" horiz-adv-x="2400" 
d="M254 389c113.333 -58.667 250.998 -108.167 412.998 -148.5s319.333 -60.5 472 -60.5c176.667 0 321 24.5 433 73.5s193.333 116.5 244 202.5s76 186.667 76 302c0 126 -26.667 227.833 -80 305.5s-128.833 139.5 -226.5 185.5s-230.167 91 -397.5 135
c-199.333 52 -363.666 110.667 -492.999 176s-231 153 -305 263s-111 250.667 -111 422c0 144.667 35.5 274.334 106.5 389c71 114.667 178.667 205.334 323 272c144.333 66.667 321.833 100 532.5 100c133.333 0 267.833 -16.5 403.5 -49.5s252.5 -76.5 350.5 -130.5v-233
c-110 58 -231 104.5 -363 139.5s-263.667 52.5 -395 52.5c-155.333 0 -285 -22 -389 -66s-181.167 -105.5 -231.5 -184.5s-75.5 -171.5 -75.5 -277.5c0 -126 26.667 -227.833 80 -305.5s128.833 -139.5 226.5 -185.5s230.167 -91.333 397.5 -136
c198.667 -52 362.834 -110.5 492.501 -175.5s231.5 -152.5 305.5 -262.5s111 -250.667 111 -422c0 -158 -39.167 -298 -117.5 -420s-194.5 -217.667 -348.5 -287s-340 -104 -558 -104c-172.667 0 -334.167 17.167 -484.5 51.5s-280.833 81.5 -391.5 141.5v237zM1479 3768
h348l-520 -553h-250z" />
    <glyph glyph-name="sacute" unicode="&#x15b;" horiz-adv-x="2048" 
d="M262 319c90 -41.333 198.498 -76.1719 325.498 -104.505s250.5 -42.5 370.5 -42.5c136.667 0 248.834 15.5 336.501 46.5s151.834 74.833 192.501 131.5s61 124.334 61 203.001c0 80.667 -21 145.334 -63 194.001s-99.5 87 -172.5 115s-174.5 57.333 -304.5 88
c-166 39.333 -300.333 82.166 -403 128.499s-182 108 -238 185s-84 176.167 -84 297.5c0 112 27.167 211.5 81.5 298.5s139.166 155.833 254.499 206.5s261.333 76 438 76c110 0 219.5 -12.167 328.5 -36.5s202.833 -57.166 281.5 -98.5v-213
c-88 40.667 -185.667 73.334 -293 98.001s-214.333 37 -321 37c-121.333 0 -220.666 -14.333 -297.999 -43s-133.833 -69 -169.5 -121s-53.5 -114.667 -53.5 -188c0 -80.667 21 -145.5 63 -194.5s99.667 -87.5 173 -115.5s175 -57 305 -87
c166 -39.333 300.333 -82.166 403 -128.499s182 -108 238 -185s84 -176.167 84 -297.5s-31 -227.666 -93 -318.999s-156.5 -162.666 -283.5 -213.999s-284.167 -77 -471.5 -77c-130 0 -255.167 12.833 -375.5 38.5s-224.5 60.5 -312.5 104.5v217zM872.998 2453.99l422 552
h348l-520 -552h-250z" />
    <glyph glyph-name="Scircumflex" unicode="&#x15c;" horiz-adv-x="2400" 
d="M254 389c113.333 -58.667 250.998 -108.167 412.998 -148.5s319.333 -60.5 472 -60.5c176.667 0 321 24.5 433 73.5s193.333 116.5 244 202.5s76 186.667 76 302c0 126 -26.667 227.833 -80 305.5s-128.833 139.5 -226.5 185.5s-230.167 91 -397.5 135
c-199.333 52 -363.666 110.667 -492.999 176s-231 153 -305 263s-111 250.667 -111 422c0 144.667 35.5 274.334 106.5 389c71 114.667 178.667 205.334 323 272c144.333 66.667 321.833 100 532.5 100c133.333 0 267.833 -16.5 403.5 -49.5s252.5 -76.5 350.5 -130.5v-233
c-110 58 -231 104.5 -363 139.5s-263.667 52.5 -395 52.5c-155.333 0 -285 -22 -389 -66s-181.167 -105.5 -231.5 -184.5s-75.5 -171.5 -75.5 -277.5c0 -126 26.667 -227.833 80 -305.5s128.833 -139.5 226.5 -185.5s230.167 -91.333 397.5 -136
c198.667 -52 362.834 -110.5 492.501 -175.5s231.5 -152.5 305.5 -262.5s111 -250.667 111 -422c0 -158 -39.167 -298 -117.5 -420s-194.5 -217.667 -348.5 -287s-340 -104 -558 -104c-172.667 0 -334.167 17.167 -484.5 51.5s-280.833 81.5 -391.5 141.5v237zM1544 3215
l-340 369l-340 -369h-242l434 553h299l435 -553h-246z" />
    <glyph glyph-name="scircumflex" unicode="&#x15d;" horiz-adv-x="2048" 
d="M262 319c90 -41.333 198.498 -76.1719 325.498 -104.505s250.5 -42.5 370.5 -42.5c136.667 0 248.834 15.5 336.501 46.5s151.834 74.833 192.501 131.5s61 124.334 61 203.001c0 80.667 -21 145.334 -63 194.001s-99.5 87 -172.5 115s-174.5 57.333 -304.5 88
c-166 39.333 -300.333 82.166 -403 128.499s-182 108 -238 185s-84 176.167 -84 297.5c0 112 27.167 211.5 81.5 298.5s139.166 155.833 254.499 206.5s261.333 76 438 76c110 0 219.5 -12.167 328.5 -36.5s202.833 -57.166 281.5 -98.5v-213
c-88 40.667 -185.667 73.334 -293 98.001s-214.333 37 -321 37c-121.333 0 -220.666 -14.333 -297.999 -43s-133.833 -69 -169.5 -121s-53.5 -114.667 -53.5 -188c0 -80.667 21 -145.5 63 -194.5s99.667 -87.5 173 -115.5s175 -57 305 -87
c166 -39.333 300.333 -82.166 403 -128.499s182 -108 238 -185s84 -176.167 84 -297.5s-31 -227.666 -93 -318.999s-156.5 -162.666 -283.5 -213.999s-284.167 -77 -471.5 -77c-130 0 -255.167 12.833 -375.5 38.5s-224.5 60.5 -312.5 104.5v217zM1372 2453.99l-340 368
l-340 -368h-242l434 552h299l435 -552h-246z" />
    <glyph glyph-name="Scedilla" unicode="&#x15e;" horiz-adv-x="2400" 
d="M795 -729c60.667 -14 134.331 -21 220.998 -21c56.667 0 105.667 12.167 147 36.5s62 66.833 62 127.5c0 64.667 -27.333 114 -82 148s-127 61.333 -217 82l176 315c-162 2 -316.833 20 -464.5 54s-275.5 80.333 -383.5 139v237c113.333 -58.667 251 -108.167 413 -148.5
s319.333 -60.5 472 -60.5c176.667 0 321 24.5 433 73.5s193.333 116.5 244 202.5s76 186.667 76 302c0 126 -26.667 227.833 -80 305.5s-128.833 139.5 -226.5 185.5s-230.167 91 -397.5 135c-199.333 52 -363.666 110.667 -492.999 176s-231 153 -305 263
s-111 250.667 -111 422c0 144.667 35.5 274.334 106.5 389c71 114.667 178.667 205.334 323 272c144.333 66.667 321.833 100 532.5 100c133.333 0 267.833 -16.5 403.5 -49.5s252.5 -76.5 350.5 -130.5v-233c-110 58 -231 104.5 -363 139.5s-263.667 52.5 -395 52.5
c-155.333 0 -285 -22 -389 -66s-181.167 -105.5 -231.5 -184.5s-75.5 -171.5 -75.5 -277.5c0 -126 26.667 -227.833 80 -305.5s128.833 -139.5 226.5 -185.5s230.167 -91.333 397.5 -136c198.667 -52 362.834 -110.5 492.501 -175.5s231.5 -152.5 305.5 -262.5
s111 -250.667 111 -422c0 -153.333 -35 -287.333 -105 -402s-169 -206 -297 -274s-277.667 -110.333 -449 -127l-119 -213c89.333 -32 159.333 -76 210 -132s76 -122.667 76 -200c0 -122 -42.333 -212.5 -127 -271.5s-189.667 -88.5 -315 -88.5c-83.333 0 -161 11 -233 33
v176z" />
    <glyph glyph-name="scedilla" unicode="&#x15f;" horiz-adv-x="2048" 
d="M590 -729c60.667 -14 134.331 -21.0039 220.998 -21.0039c56.667 0 105.667 12.167 147 36.5s62 66.833 62 127.5c0 64.667 -27.333 114 -82 148s-127 61.333 -217 82l176 315c-132.667 5.33301 -252.5 21 -359.5 47s-198.833 58 -275.5 96v217
c90 -41.333 198.5 -76.166 325.5 -104.499s250.5 -42.5 370.5 -42.5c136.667 0 248.834 15.5 336.501 46.5s151.834 74.833 192.501 131.5s61 124.334 61 203.001c0 80.667 -21 145.334 -63 194.001s-99.5 87 -172.5 115s-174.5 57.333 -304.5 88
c-166 39.333 -300.333 82.166 -403 128.499s-182 108 -238 185s-84 176.167 -84 297.5c0 112 27.167 211.5 81.5 298.5s139.166 155.833 254.499 206.5s261.333 76 438 76c110 0 219.5 -12.167 328.5 -36.5s202.833 -57.166 281.5 -98.5v-213
c-88 40.667 -185.667 73.334 -293 98.001s-214.333 37 -321 37c-121.333 0 -220.666 -14.333 -297.999 -43s-133.833 -69 -169.5 -121s-53.5 -114.667 -53.5 -188c0 -80.667 21 -145.5 63 -194.5s99.667 -87.5 173 -115.5s175 -57 305 -87
c166 -39.333 300.333 -82.166 403 -128.499s182 -108 238 -185s84 -176.167 84 -297.5c0 -109.333 -25 -206.666 -75 -291.999s-127.5 -155.333 -232.5 -210s-237.167 -89.334 -396.5 -104.001l-115 -209c89.333 -32 159.5 -76 210.5 -132s76.5 -122.667 76.5 -200
c0 -122 -42.5 -212.5 -127.5 -271.5s-190.167 -88.5 -315.5 -88.5c-83.333 0 -161 11 -233 33v176z" />
    <glyph glyph-name="Scaron" unicode="&#x160;" horiz-adv-x="2400" 
d="M254 389c113.333 -58.667 250.998 -108.167 412.998 -148.5s319.333 -60.5 472 -60.5c176.667 0 321 24.5 433 73.5s193.333 116.5 244 202.5s76 186.667 76 302c0 126 -26.667 227.833 -80 305.5s-128.833 139.5 -226.5 185.5s-230.167 91 -397.5 135
c-199.333 52 -363.666 110.667 -492.999 176s-231 153 -305 263s-111 250.667 -111 422c0 144.667 35.5 274.334 106.5 389c71 114.667 178.667 205.334 323 272c144.333 66.667 321.833 100 532.5 100c133.333 0 267.833 -16.5 403.5 -49.5s252.5 -76.5 350.5 -130.5v-233
c-110 58 -231 104.5 -363 139.5s-263.667 52.5 -395 52.5c-155.333 0 -285 -22 -389 -66s-181.167 -105.5 -231.5 -184.5s-75.5 -171.5 -75.5 -277.5c0 -126 26.667 -227.833 80 -305.5s128.833 -139.5 226.5 -185.5s230.167 -91.333 397.5 -136
c198.667 -52 362.834 -110.5 492.501 -175.5s231.5 -152.5 305.5 -262.5s111 -250.667 111 -422c0 -158 -39.167 -298 -117.5 -420s-194.5 -217.667 -348.5 -287s-340 -104 -558 -104c-172.667 0 -334.167 17.167 -484.5 51.5s-280.833 81.5 -391.5 141.5v237zM1077 3215
l-434 553h246l340 -368l340 368h242l-435 -553h-299z" />
    <glyph glyph-name="scaron" unicode="&#x161;" horiz-adv-x="2048" 
d="M262 319c90 -41.333 198.498 -76.1719 325.498 -104.505s250.5 -42.5 370.5 -42.5c136.667 0 248.834 15.5 336.501 46.5s151.834 74.833 192.501 131.5s61 124.334 61 203.001c0 80.667 -21 145.334 -63 194.001s-99.5 87 -172.5 115s-174.5 57.333 -304.5 88
c-166 39.333 -300.333 82.166 -403 128.499s-182 108 -238 185s-84 176.167 -84 297.5c0 112 27.167 211.5 81.5 298.5s139.166 155.833 254.499 206.5s261.333 76 438 76c110 0 219.5 -12.167 328.5 -36.5s202.833 -57.166 281.5 -98.5v-213
c-88 40.667 -185.667 73.334 -293 98.001s-214.333 37 -321 37c-121.333 0 -220.666 -14.333 -297.999 -43s-133.833 -69 -169.5 -121s-53.5 -114.667 -53.5 -188c0 -80.667 21 -145.5 63 -194.5s99.667 -87.5 173 -115.5s175 -57 305 -87
c166 -39.333 300.333 -82.166 403 -128.499s182 -108 238 -185s84 -176.167 84 -297.5s-31 -227.666 -93 -318.999s-156.5 -162.666 -283.5 -213.999s-284.167 -77 -471.5 -77c-130 0 -255.167 12.833 -375.5 38.5s-224.5 60.5 -312.5 104.5v217zM883.998 2453.99l-434 552
h246l340 -368l340 368h242l-435 -552h-299z" />
    <glyph glyph-name="Tcommaaccent" unicode="&#x162;" horiz-adv-x="2454" 
d="M1098 0v2744h-971v222h2200v-222h-971v-2744h-258zM901 -844l226.001 270.999l-62 327h148c67.333 0 116.833 -15.667 148.5 -47s47.5 -75.666 47.5 -132.999c0 -65.333 -11.833 -121.5 -35.5 -168.5s-64.834 -100.167 -123.501 -159.5l-209 -209z" />
    <glyph glyph-name="tcommaaccent" unicode="&#x163;" horiz-adv-x="1749" 
d="M1597 49c-51.333 -24.667 -119.502 -45.833 -204.502 -63.5s-170.833 -26.5 -257.5 -26.5c-122.667 0 -227.167 15.833 -313.5 47.5s-154.666 88.667 -204.999 171s-75.5 196.5 -75.5 342.5v1372h-430v209h430l12 623h238v-623h847v-209h-847v-1343
c0 -103.333 15.333 -182.5 46 -237.5s72.834 -92 126.501 -111s121.5 -28.5 203.5 -28.5c80 0 156.333 7.83301 229 23.5s139.667 36.5 201 62.5v-209zM724.998 -843.999l226.001 270.999l-62 327h148c67.333 0 116.833 -15.667 148.5 -47s47.5 -75.666 47.5 -132.999
c0 -65.333 -11.833 -121.5 -35.5 -168.5s-64.834 -100.167 -123.501 -159.5l-209 -209z" />
    <glyph glyph-name="Tcaron" unicode="&#x164;" horiz-adv-x="2454" 
d="M1098 0v2744h-971v222h2200v-222h-971v-2744h-258zM1077 3215l-434 553h246l340 -368l340 368h242l-435 -553h-299z" />
    <glyph glyph-name="tcaron" unicode="&#x165;" horiz-adv-x="1749" 
d="M1597 49c-51.333 -24.667 -119.502 -45.833 -204.502 -63.5s-170.833 -26.5 -257.5 -26.5c-122.667 0 -227.167 15.833 -313.5 47.5s-154.666 88.667 -204.999 171s-75.5 196.5 -75.5 342.5v1372h-430v209h430l12 623h238v-623h847v-209h-847v-1343
c0 -103.333 15.333 -182.5 46 -237.5s72.834 -92 126.501 -111s121.5 -28.5 203.5 -28.5c80 0 156.333 7.83301 229 23.5s139.667 36.5 201 62.5v-209zM1118 2445l94 433.999l-49 389h131c64 0 110.667 -17.667 140 -53s44 -88.666 44 -159.999
c0 -46.667 -8 -100.5 -24 -161.5s-39.333 -134.167 -70 -219.5l-82 -229h-184z" />
    <glyph glyph-name="Tbar" unicode="&#x166;" horiz-adv-x="2454" 
d="M1098 0v1270h-713v217h713v1257h-971v222h2200v-222h-971v-1257h712v-217h-712v-1270h-258z" />
    <glyph glyph-name="tbar" unicode="&#x167;" horiz-adv-x="1749" 
d="M1597 49c-51.333 -24.667 -119.502 -45.833 -204.502 -63.5s-170.833 -26.5 -257.5 -26.5c-122.667 0 -227.167 15.833 -313.5 47.5s-154.666 88.667 -204.999 171s-75.5 196.5 -75.5 342.5v438h-246v222h246v712h-430v209h430l12 623h238v-623h847v-209h-847v-712h499
v-222h-499v-409c0 -103.333 15.333 -182.5 46 -237.5s72.834 -92 126.501 -111s121.5 -28.5 203.5 -28.5c80 0 156.333 7.83301 229 23.5s139.667 36.5 201 62.5v-209z" />
    <glyph glyph-name="Utilde" unicode="&#x168;" horiz-adv-x="2916" 
d="M2241 2966l258.002 0.00195312v-1999c0 -236 -41.667 -428.667 -125 -578s-202.333 -258.333 -357 -327s-342.334 -103 -563.001 -103c-223.333 0 -411.5 33.833 -564.5 101.5s-269.833 174.167 -350.5 319.5s-121 332.666 -121 561.999v2024h258v-1999
c0 -265.333 64.167 -462.833 192.5 -592.5s326.166 -194.5 593.499 -194.5c263.333 0 459 64.167 587 192.5s192 322.166 192 581.499v2012zM2154 3678c0 -66.667 -7.5 -128.167 -22.5 -184.5s-38 -105.166 -69 -146.5c-31 -41.333 -70 -73.666 -117 -97
c-47 -23.333 -102.833 -35 -167.5 -35c-44 0 -84.833 6.33301 -122.5 19s-73.167 28.667 -106.5 48s-65 40 -95 62l-87 62c-28 19.333 -55.333 35.333 -82 48s-53.667 19 -81 19c-58 0 -99.833 -21.333 -125.5 -64s-38.5 -107.334 -38.5 -194h-205
c0 66.667 7.5 128.334 22.5 185c15 56.667 38 105.5 69 146.5s70.167 73.167 117.5 96.5s103.333 35 168 35c43.333 0 84 -6.33301 122 -19s73.667 -28.667 107 -48s65 -40 95 -62l86.5 -62c27.667 -19.333 55 -35.333 82 -48s54.167 -19 81.5 -19
c57.333 0 99 21.333 125 64s39 107.334 39 194h204z" />
    <glyph glyph-name="utilde" unicode="&#x169;" horiz-adv-x="2523" 
d="M1876 0l-15.9961 205c-96.667 -74.667 -206 -134.334 -328 -179.001s-250.333 -67 -385 -67c-154.667 0 -287.334 22.667 -398.001 68s-196.334 116.5 -257.001 213.5s-91 221.5 -91 373.5v1487h250v-1437c0 -121.333 19.667 -218.166 59 -290.499
s96.166 -124 170.499 -155s167.166 -46.5 278.499 -46.5c130.667 0 252.667 19.833 366 59.5s223.333 100.5 330 182.5v1687h250v-2101h-229zM1921 2941c0 -66.667 -7.5 -128.167 -22.5 -184.5s-38 -105.166 -69 -146.5c-31 -41.333 -70 -73.666 -117 -97
c-47 -23.333 -102.833 -35 -167.5 -35c-44 0 -84.833 6.33301 -122.5 19s-73.167 28.667 -106.5 48s-65 40 -95 62l-87 62c-28 19.333 -55.333 35.333 -82 48s-53.667 19 -81 19c-58 0 -99.833 -21.333 -125.5 -64s-38.5 -107.334 -38.5 -194h-205
c0 66.667 7.5 128.167 22.5 184.5s38 105.166 69 146.5c31 41.333 70.167 73.666 117.5 97c47.333 23.333 103.333 35 168 35c43.333 0 84 -6.33301 122 -19s73.667 -28.667 107 -48s65 -40 95 -62l86.5 -62c27.667 -19.333 55 -35.333 82 -48s54.167 -19 81.5 -19
c57.333 0 99 21.333 125 64s39 107.334 39 194h204z" />
    <glyph glyph-name="Umacron" unicode="&#x16a;" horiz-adv-x="2916" 
d="M2241 2966l258.002 0.00195312v-1999c0 -236 -41.667 -428.667 -125 -578s-202.333 -258.333 -357 -327s-342.334 -103 -563.001 -103c-223.333 0 -411.5 33.833 -564.5 101.5s-269.833 174.167 -350.5 319.5s-121 332.666 -121 561.999v2024h258v-1999
c0 -265.333 64.167 -462.833 192.5 -592.5s326.166 -194.5 593.499 -194.5c263.333 0 459 64.167 587 192.5s192 322.166 192 581.499v2012zM913.002 3342v205h1094v-205h-1094z" />
    <glyph glyph-name="umacron" unicode="&#x16b;" horiz-adv-x="2523" 
d="M1876 0l-15.9961 205c-96.667 -74.667 -206 -134.334 -328 -179.001s-250.333 -67 -385 -67c-154.667 0 -287.334 22.667 -398.001 68s-196.334 116.5 -257.001 213.5s-91 221.5 -91 373.5v1487h250v-1437c0 -121.333 19.667 -218.166 59 -290.499
s96.166 -124 170.499 -155s167.166 -46.5 278.499 -46.5c130.667 0 252.667 19.833 366 59.5s223.333 100.5 330 182.5v1687h250v-2101h-229zM717.004 2605v205h1094v-205h-1094z" />
    <glyph glyph-name="Ubreve" unicode="&#x16c;" horiz-adv-x="2916" 
d="M2241 2966l258.002 0.00195312v-1999c0 -236 -41.667 -428.667 -125 -578s-202.333 -258.333 -357 -327s-342.334 -103 -563.001 -103c-223.333 0 -411.5 33.833 -564.5 101.5s-269.833 174.167 -350.5 319.5s-121 332.666 -121 561.999v2024h258v-1999
c0 -265.333 64.167 -462.833 192.5 -592.5s326.166 -194.5 593.499 -194.5c263.333 0 459 64.167 587 192.5s192 322.166 192 581.499v2012zM1458 3207c-109.333 0 -207.832 22.833 -295.499 68.5s-156.667 110.834 -207 195.5c-50.333 84.667 -75.5 183.667 -75.5 297h205
c4 -74.667 22.333 -138.5 55 -191.5s76.667 -93 132 -120s118.666 -40.5 189.999 -40.5c72.667 0 136.167 13.5 190.5 40.5s97.333 66.833 129 119.5s49.5 116.667 53.5 192h205c0 -113.333 -25.333 -212.333 -76 -297s-120.167 -149.834 -208.5 -195.5
c-88.333 -45.667 -187.5 -68.5 -297.5 -68.5z" />
    <glyph glyph-name="ubreve" unicode="&#x16d;" horiz-adv-x="2523" 
d="M1876 0l-15.9961 205c-96.667 -74.667 -206 -134.334 -328 -179.001s-250.333 -67 -385 -67c-154.667 0 -287.334 22.667 -398.001 68s-196.334 116.5 -257.001 213.5s-91 221.5 -91 373.5v1487h250v-1437c0 -121.333 19.667 -218.166 59 -290.499
s96.166 -124 170.499 -155s167.166 -46.5 278.499 -46.5c130.667 0 252.667 19.833 366 59.5s223.333 100.5 330 182.5v1687h250v-2101h-229zM1844 3006c0 -113.333 -25.332 -212.333 -75.999 -297s-120.167 -149.834 -208.5 -195.5
c-88.333 -45.667 -187.5 -68.5 -297.5 -68.5c-109.333 0 -207.833 22.833 -295.5 68.5s-156.667 110.834 -207 195.5c-50.333 84.667 -75.5 183.667 -75.5 297h205c4 -74.667 22.333 -138.5 55 -191.5s76.667 -93 132 -120s118.666 -40.5 189.999 -40.5
c72.667 0 136.167 13.5 190.5 40.5s97.333 66.833 129 119.5s49.5 116.667 53.5 192h205z" />
    <glyph glyph-name="Uring" unicode="&#x16e;" horiz-adv-x="2916" 
d="M2241 2966l258.002 0.00195312v-1999c0 -236 -41.667 -428.667 -125 -578s-202.333 -258.333 -357 -327s-342.334 -103 -563.001 -103c-223.333 0 -411.5 33.833 -564.5 101.5s-269.833 174.167 -350.5 319.5s-121 332.666 -121 561.999v2024h258v-1999
c0 -265.333 64.167 -462.833 192.5 -592.5s326.166 -194.5 593.499 -194.5c263.333 0 459 64.167 587 192.5s192 322.166 192 581.499v2012zM1905 3596c0 -74.667 -17.667 -144.167 -53 -208.5s-87.666 -116 -156.999 -155s-152.333 -58.5 -249 -58.5
c-98 0 -181.667 19.167 -251 57.5s-121.333 89.333 -156 153s-52 132.834 -52 207.5c0 74.667 17.667 144.167 53 208.5s87.666 116 156.999 155s152.333 58.5 249 58.5c98 0 181.667 -19.167 251 -57.5s121.333 -89.333 156 -153s52 -132.834 52 -207.5zM1700 3592
c0 43.333 -9.66699 83.833 -29 121.5s-48.166 67.834 -86.499 90.5c-38.333 22.667 -84.5 34 -138.5 34c-54.667 0 -101.167 -11.333 -139.5 -34s-67 -52.334 -86 -89c-19 -36.667 -28.5 -76.334 -28.5 -119c0 -43.333 9.66699 -83.666 29 -121
c19.333 -37.333 48.166 -67.333 86.499 -90s84.5 -34 138.5 -34c54.667 0 101.167 11.167 139.5 33.5s67 51.833 86 88.5s28.5 76.334 28.5 119z" />
    <glyph glyph-name="uring" unicode="&#x16f;" horiz-adv-x="2523" 
d="M1876 0l-15.9961 205c-96.667 -74.667 -206 -134.334 -328 -179.001s-250.333 -67 -385 -67c-154.667 0 -287.334 22.667 -398.001 68s-196.334 116.5 -257.001 213.5s-91 221.5 -91 373.5v1487h250v-1437c0 -121.333 19.667 -218.166 59 -290.499
s96.166 -124 170.499 -155s167.166 -46.5 278.499 -46.5c130.667 0 252.667 19.833 366 59.5s223.333 100.5 330 182.5v1687h250v-2101h-229zM1725 2867c0 -81.333 -17.667 -156.5 -53 -225.5s-87.5 -124.333 -156.5 -166s-152.167 -62.5 -249.5 -62.5
c-98.667 0 -182.5 20.5 -251.5 61.5s-120.833 95.667 -155.5 164s-52 143.166 -52 224.5c0 81.333 17.667 156.666 53 226c35.333 69.333 87.5 124.833 156.5 166.5s152.167 62.5 249.5 62.5c98.667 0 182.5 -20.5 251.5 -61.5s120.833 -95.667 155.5 -164
s52 -143.5 52 -225.5zM1520 2863c0 49.333 -9.83203 95.166 -29.499 137.5c-19.667 42.333 -48.5 76.5 -86.5 102.5s-84 39 -138 39c-54.667 0 -101.167 -12.833 -139.5 -38.5s-67 -59.5 -86 -101.5s-28.5 -87 -28.5 -135c0 -49.333 9.66699 -95.166 29 -137.5
c19.333 -42.333 48.166 -76.333 86.499 -102s84.5 -38.5 138.5 -38.5c54.667 0 101.167 12.833 139.5 38.5s67 59.334 86 101c19 41.667 28.5 86.5 28.5 134.5z" />
    <glyph glyph-name="Uhungarumlaut" unicode="&#x170;" horiz-adv-x="2916" 
d="M2241 2966l258.002 0.00195312v-1999c0 -236 -41.667 -428.667 -125 -578s-202.333 -258.333 -357 -327s-342.334 -103 -563.001 -103c-223.333 0 -411.5 33.833 -564.5 101.5s-269.833 174.167 -350.5 319.5s-121 332.666 -121 561.999v2024h258v-1999
c0 -265.333 64.167 -462.833 192.5 -592.5s326.166 -194.5 593.499 -194.5c263.333 0 459 64.167 587 192.5s192 322.166 192 581.499v2012zM1004 3215l258 553h299l-340 -553h-217zM1667 3215l258 553h299l-340 -553h-217z" />
    <glyph glyph-name="uhungarumlaut" unicode="&#x171;" horiz-adv-x="2523" 
d="M1876 0l-15.9961 205c-96.667 -74.667 -206 -134.334 -328 -179.001s-250.333 -67 -385 -67c-154.667 0 -287.334 22.667 -398.001 68s-196.334 116.5 -257.001 213.5s-91 221.5 -91 373.5v1487h250v-1437c0 -121.333 19.667 -218.166 59 -290.499
s96.166 -124 170.499 -155s167.166 -46.5 278.499 -46.5c130.667 0 252.667 19.833 366 59.5s223.333 100.5 330 182.5v1687h250v-2101h-229zM807.004 2454l258 552h299l-340 -552h-217zM1470 2454l258 552h299l-340 -552h-217z" />
    <glyph glyph-name="Uogonek" unicode="&#x172;" horiz-adv-x="2916" 
d="M1929 -901c-80.667 -24.667 -165.332 -36.998 -253.999 -36.998c-92 0 -170 16.667 -234 50s-112 78.333 -144 135s-48 119.334 -48 188.001c0 100 30.833 202.333 92.5 307s140.167 179.667 235.5 225c-38.667 -5.33301 -79.667 -8 -123 -8
c-223.333 0 -411.5 33.833 -564.5 101.5s-269.833 174.167 -350.5 319.5s-121 332.666 -121 561.999v2024h258v-1999c0 -265.333 64.167 -462.833 192.5 -592.5s326.166 -194.5 593.499 -194.5c263.333 0 459 64.167 587 192.5s192 322.166 192 581.499v2012h258v-1999
c0 -168.667 -21.167 -314.667 -63.5 -438s-105.833 -227.333 -190.5 -312c-66.667 -66 -170 -139.667 -310 -221s-232 -144.333 -276 -189c-59.333 -58.667 -101.5 -115.167 -126.5 -169.5s-37.5 -116.5 -37.5 -186.5c0 -64.667 19.333 -114.334 58 -149.001s93 -52 163 -52
c73.333 0 144.333 9.66699 213 29v-180z" />
    <glyph glyph-name="uogonek" unicode="&#x173;" horiz-adv-x="2523" 
d="M2200 -901c-80.667 -24.667 -165.33 -37 -253.997 -37c-92 0 -170 16.667 -234 50s-112 78.333 -144 135s-48 119.334 -48 188.001c0 106 33 211.5 99 316.5s151.667 193.167 257 264.5l-16 189c-96.667 -74.667 -206 -134.334 -328 -179.001s-250.333 -67 -385 -67
c-154.667 0 -287.334 22.667 -398.001 68s-196.334 116.5 -257.001 213.5s-91 221.5 -91 373.5v1487h250v-1437c0 -121.333 19.667 -218.166 59 -290.499s96.166 -124 170.499 -155s167.166 -46.5 278.499 -46.5c130.667 0 252.667 19.833 366 59.5s223.333 100.5 330 182.5
v1687h250v-2101c-128.667 -112.667 -217.5 -210 -266.5 -292s-73.5 -167.667 -73.5 -257c0 -64.667 19.333 -114.334 58 -149.001s93.334 -52 164.001 -52c72 0 143 9.66699 213 29v-180z" />
    <glyph glyph-name="Wcircumflex" unicode="&#x174;" horiz-adv-x="4407" 
d="M3047 0l-770 2290c-40 121.333 -70 231.666 -90 331c-24 -121.333 -52.667 -231.666 -86 -331l-737 -2290h-279l-995 2966h279l753 -2290c49.333 -146.667 86.333 -269.667 111 -369c30 124.667 65.333 247.667 106 369l738 2290h250l753 -2290
c49.333 -146.667 86.333 -269.667 111 -369c30 124.667 65.333 247.667 106 369l754 2290h266l-995 -2966h-275zM2544 3215l-340 369l-340 -369h-242l434 553h299l435 -553h-246z" />
    <glyph glyph-name="wcircumflex" unicode="&#x175;" horiz-adv-x="3310" 
d="M2224 0l-483 1487c-24.667 66.667 -53.334 165 -86.001 295c-18 -68.667 -46.667 -167 -86 -295l-484 -1487h-294l-713 2101h270l520 -1601c18.667 -56.667 47.334 -155 86.001 -295c14.667 71.333 40.667 169.666 78 294.999l520 1601h217l521 -1601
c37.333 -125.333 63 -223.666 77 -294.999c44 154 73 252.333 87 295l507 1601h271l-713 -2101h-295zM1995 2454l-340 368l-340 -368h-242l434 552h299l435 -552h-246z" />
    <glyph glyph-name="Ycircumflex" unicode="&#x176;" horiz-adv-x="2441" 
d="M1090 0l-0.00195312 1176l-1041 1790h299l762 -1332c52.667 -90.667 92.334 -163 119.001 -217c26.667 54 66.334 126.333 119.001 217l761 1332h283l-1044 -1799v-1167h-258zM1561 3215l-340 369l-340 -369h-242l434 553h299l435 -553h-246z" />
    <glyph glyph-name="ycircumflex" unicode="&#x177;" horiz-adv-x="2044" 
d="M12 -725c37.333 -8 85.335 -11.999 144.002 -11.999c108 0 204.667 20.667 290 62s163.666 110.333 234.999 207s136.666 226.667 195.999 390l16 45l-832 2134h275l594 -1577c44 -117.333 76.667 -223.666 98 -318.999c26.667 97.333 60.667 202.333 102 315l582 1581
h270l-884 -2257c-71.333 -184.667 -151 -335.334 -239 -452.001s-187.5 -202.834 -298.5 -258.501s-236.5 -83.5 -376.5 -83.5c-64.667 0 -122 6.66699 -172 20v205zM1360 2454l-340 368l-340 -368h-242l434 552h299l435 -552h-246z" />
    <glyph glyph-name="Ydieresis" unicode="&#x178;" horiz-adv-x="2441" 
d="M1090 0l-0.00195312 1176l-1041 1790h299l762 -1332c52.667 -90.667 92.334 -163 119.001 -217c26.667 54 66.334 126.333 119.001 217l761 1332h283l-1044 -1799v-1167h-258zM687.998 3342v361h250v-361h-250zM1508 3342v361h249v-361h-249z" />
    <glyph glyph-name="Zacute" unicode="&#x179;" horiz-adv-x="2507" 
d="M176 0v221l1790 2523h-1745v222h2048v-222l-1790 -2523h1852v-221h-2155zM1548 3768h348l-520 -553h-250z" />
    <glyph glyph-name="zacute" unicode="&#x17a;" horiz-adv-x="2097" 
d="M225 0v209l1311 1683h-1266v209h1557v-205l-1311 -1687h1356v-209h-1647zM893 2454l422 552h348l-520 -552h-250z" />
    <glyph glyph-name="Zdotaccent" unicode="&#x17b;" horiz-adv-x="2507" 
d="M176 0v221l1790 2523h-1745v222h2048v-222l-1790 -2523h1852v-221h-2155zM1139 3342v361h250v-361h-250z" />
    <glyph glyph-name="zdotaccent" unicode="&#x17c;" horiz-adv-x="2097" 
d="M225 0v209l1311 1683h-1266v209h1557v-205l-1311 -1687h1356v-209h-1647zM922 2605v361h250v-361h-250z" />
    <glyph glyph-name="Zcaron" unicode="&#x17d;" horiz-adv-x="2507" 
d="M176 0v221l1790 2523h-1745v222h2048v-222l-1790 -2523h1852v-221h-2155zM1122 3215l-434 553h246l340 -368l340 368h242l-435 -553h-299z" />
    <glyph glyph-name="zcaron" unicode="&#x17e;" horiz-adv-x="2097" 
d="M225 0v209l1311 1683h-1266v209h1557v-205l-1311 -1687h1356v-209h-1647zM901 2454l-434 552h246l340 -368l340 368h242l-435 -552h-299z" />
    <glyph glyph-name="Schwa" unicode="&#x18f;" horiz-adv-x="2949" 
d="M549 1266c0 -199.333 32.168 -380.832 96.501 -544.499s164.166 -294.834 299.499 -393.501s305 -148 509 -148c207.333 0 377.5 49.333 510.5 148s232 228.667 297 390s105.833 344 122.5 548h-1835zM401.001 2761c161.333 76.667 321.499 136.669 480.499 180.002
s329.5 65 511.5 65c280.667 0 515.167 -64.667 703.5 -194s328.333 -307.833 420 -535.5s137.5 -490.834 137.5 -789.501s-43 -562.5 -129 -791.5s-218.833 -409 -398.5 -540s-405.167 -196.5 -676.5 -196.5c-267.333 0 -488.5 60.833 -663.5 182.5s-303.333 285 -385 490
s-122.5 435.5 -122.5 691.5v160h2105c0 264.667 -35.333 494 -106 688s-180.834 344.833 -330.5 452.5c-149.667 107.667 -340.167 161.5 -571.5 161.5c-168 0 -329.667 -21.833 -485 -65.5s-318.666 -107.834 -489.999 -192.501v234z" />
    <glyph glyph-name="florin" unicode="&#x192;" 
d="M1409 1446l-163.999 -1004c-32 -202 -85.833 -365.5 -161.5 -490.5s-171 -215.833 -286 -272.5s-249.833 -85 -404.5 -85c-53.333 0 -112 5.66699 -176 17l25 205c61.333 -6 116 -9 164 -9c107.333 0 200 21.5 278 64.5s142.667 111.167 194 204.5s89 215.333 113 366
l164 1004h-623l37 209h619l94 581c26 171.333 71.833 314.166 137.5 428.5c65.667 114.333 149.834 199.833 252.501 256.5s222.667 85 360 85c78 0 153.833 -5.83301 227.5 -17.5s141.167 -28.834 202.5 -51.5l-33 -205c-58 18.667 -122.5 33.5 -193.5 44.5
s-138.833 16.5 -203.5 16.5c-107.333 0 -194.333 -21.5 -261 -64.5s-117.834 -104.667 -153.501 -185s-62.834 -182.833 -81.501 -307.5l-94 -581h811l-33 -209h-811z" />
    <glyph glyph-name="Scommaaccent" unicode="&#x218;" horiz-adv-x="2400" 
d="M254 389c113.333 -58.667 250.998 -108.167 412.998 -148.5s319.333 -60.5 472 -60.5c176.667 0 321 24.5 433 73.5s193.333 116.5 244 202.5s76 186.667 76 302c0 126 -26.667 227.833 -80 305.5s-128.833 139.5 -226.5 185.5s-230.167 91 -397.5 135
c-199.333 52 -363.666 110.667 -492.999 176s-231 153 -305 263s-111 250.667 -111 422c0 144.667 35.5 274.334 106.5 389c71 114.667 178.667 205.334 323 272c144.333 66.667 321.833 100 532.5 100c133.333 0 267.833 -16.5 403.5 -49.5s252.5 -76.5 350.5 -130.5v-233
c-110 58 -231 104.5 -363 139.5s-263.667 52.5 -395 52.5c-155.333 0 -285 -22 -389 -66s-181.167 -105.5 -231.5 -184.5s-75.5 -171.5 -75.5 -277.5c0 -126 26.667 -227.833 80 -305.5s128.833 -139.5 226.5 -185.5s230.167 -91.333 397.5 -136
c198.667 -52 362.834 -110.5 492.501 -175.5s231.5 -152.5 305.5 -262.5s111 -250.667 111 -422c0 -158 -39.167 -298 -117.5 -420s-194.5 -217.667 -348.5 -287s-340 -104 -558 -104c-172.667 0 -334.167 17.167 -484.5 51.5s-280.833 81.5 -391.5 141.5v237zM875.998 -844
l226.001 270.999l-62 327h148c67.333 0 116.833 -15.667 148.5 -47s47.5 -75.666 47.5 -132.999c0 -65.333 -11.833 -121.5 -35.5 -168.5s-64.834 -100.167 -123.501 -159.5l-209 -209z" />
    <glyph glyph-name="scommaaccent" unicode="&#x219;" horiz-adv-x="2048" 
d="M262 319c90 -41.333 198.498 -76.1719 325.498 -104.505s250.5 -42.5 370.5 -42.5c136.667 0 248.834 15.5 336.501 46.5s151.834 74.833 192.501 131.5s61 124.334 61 203.001c0 80.667 -21 145.334 -63 194.001s-99.5 87 -172.5 115s-174.5 57.333 -304.5 88
c-166 39.333 -300.333 82.166 -403 128.499s-182 108 -238 185s-84 176.167 -84 297.5c0 112 27.167 211.5 81.5 298.5s139.166 155.833 254.499 206.5s261.333 76 438 76c110 0 219.5 -12.167 328.5 -36.5s202.833 -57.166 281.5 -98.5v-213
c-88 40.667 -185.667 73.334 -293 98.001s-214.333 37 -321 37c-121.333 0 -220.666 -14.333 -297.999 -43s-133.833 -69 -169.5 -121s-53.5 -114.667 -53.5 -188c0 -80.667 21 -145.5 63 -194.5s99.667 -87.5 173 -115.5s175 -57 305 -87
c166 -39.333 300.333 -82.166 403 -128.499s182 -108 238 -185s84 -176.167 84 -297.5s-31 -227.666 -93 -318.999s-156.5 -162.666 -283.5 -213.999s-284.167 -77 -471.5 -77c-130 0 -255.167 12.833 -375.5 38.5s-224.5 60.5 -312.5 104.5v217zM679.998 -844.006
l226.001 270.999l-62 327h148c67.333 0 116.833 -15.667 148.5 -47s47.5 -75.666 47.5 -132.999c0 -65.333 -11.833 -121.5 -35.5 -168.5s-64.834 -100.167 -123.501 -159.5l-209 -209z" />
    <glyph glyph-name="uni021A" unicode="&#x21a;" horiz-adv-x="2454" 
d="M1098 0v2744h-971v222h2200v-222h-971v-2744h-258zM901 -844l226.001 270.999l-62 327h148c67.333 0 116.833 -15.667 148.5 -47s47.5 -75.666 47.5 -132.999c0 -65.333 -11.833 -121.5 -35.5 -168.5s-64.834 -100.167 -123.501 -159.5l-209 -209z" />
    <glyph glyph-name="uni021B" unicode="&#x21b;" horiz-adv-x="1749" 
d="M1597 49c-51.333 -24.667 -119.502 -45.833 -204.502 -63.5s-170.833 -26.5 -257.5 -26.5c-122.667 0 -227.167 15.833 -313.5 47.5s-154.666 88.667 -204.999 171s-75.5 196.5 -75.5 342.5v1372h-430v209h430l12 623h238v-623h847v-209h-847v-1343
c0 -103.333 15.333 -182.5 46 -237.5s72.834 -92 126.501 -111s121.5 -28.5 203.5 -28.5c80 0 156.333 7.83301 229 23.5s139.667 36.5 201 62.5v-209zM724.998 -843.999l226.001 270.999l-62 327h148c67.333 0 116.833 -15.667 148.5 -47s47.5 -75.666 47.5 -132.999
c0 -65.333 -11.833 -121.5 -35.5 -168.5s-64.834 -100.167 -123.501 -159.5l-209 -209z" />
    <glyph glyph-name="dotlessj" unicode="&#x237;" horiz-adv-x="1085" 
d="M-197 -721c49.333 -10.667 102.666 -16 159.999 -16c107.333 0 194.333 25.833 261 77.5s115.667 131.5 147 239.5s47 248 47 420v2101h250v-2146c0 -204 -27 -373.333 -81 -508s-132 -234.5 -234 -299.5s-225 -97.5 -369 -97.5c-65.333 0 -125.666 6.66699 -180.999 20
v209z" />
    <glyph glyph-name="schwa" unicode="&#x259;" horiz-adv-x="2343" 
d="M1114 2142c219.333 0 399.502 -43.833 540.502 -131.5s244.5 -213 310.5 -376s99 -359.833 99 -590.5c0 -211.333 -35 -398.833 -105 -562.5s-174 -291.667 -312 -384s-304.667 -138.5 -500 -138.5c-189.333 0 -349.833 42.833 -481.5 128.5s-230.5 203.167 -296.5 352.5
s-99 319.333 -99 510c0 42 3 83 9 123h1523c-4 196.667 -30.333 357.5 -79 482.5s-124.334 218.5 -227.001 280.5s-238 93 -406 93c-138.667 0 -259 -12 -361 -36s-220.667 -63.667 -356 -119v200c85.333 48 190.666 88 315.999 120s267 48 425 48zM1151 172
c122.667 0 231.169 28.5 325.502 85.5s169.166 137.667 224.499 242s87.666 225.833 96.999 364.5h-1270c6 -140 34 -262 84 -366s120.833 -184.333 212.5 -241s200.5 -85 326.5 -85z" />
    <glyph glyph-name="circumflex" unicode="&#x2c6;" horiz-adv-x="1790" 
d="M1233 2454l-340 368l-340 -368h-242l434 552h299l435 -552h-246z" />
    <glyph glyph-name="caron" unicode="&#x2c7;" horiz-adv-x="1790" 
d="M745 2454l-434 552h246l340 -368l340 368h242l-435 -552h-299z" />
    <glyph glyph-name="breve" unicode="&#x2d8;" horiz-adv-x="1790" 
d="M1475 3006c0 -113.333 -25.332 -212.333 -75.999 -297s-120.167 -149.834 -208.5 -195.5c-88.333 -45.667 -187.5 -68.5 -297.5 -68.5c-109.333 0 -207.833 22.833 -295.5 68.5s-156.667 110.834 -207 195.5c-50.333 84.667 -75.5 183.667 -75.5 297h205
c4 -74.667 22.333 -138.5 55 -191.5s76.667 -93 132 -120s118.666 -40.5 189.999 -40.5c72.667 0 136.167 13.5 190.5 40.5s97.333 66.833 129 119.5s49.5 116.667 53.5 192h205z" />
    <glyph glyph-name="dotaccent" unicode="&#x2d9;" horiz-adv-x="1790" 
d="M766 2605v361h250v-361h-250z" />
    <glyph glyph-name="ring" unicode="&#x2da;" horiz-adv-x="1794" 
d="M1356 2867c0 -81.333 -17.667 -156.5 -53 -225.5s-87.5 -124.333 -156.5 -166s-152.167 -62.5 -249.5 -62.5c-98.667 0 -182.5 20.5 -251.5 61.5s-120.833 95.667 -155.5 164s-52 143.166 -52 224.5c0 81.333 17.667 156.666 53 226
c35.333 69.333 87.5 124.833 156.5 166.5s152.167 62.5 249.5 62.5c98.667 0 182.5 -20.5 251.5 -61.5s120.833 -95.667 155.5 -164s52 -143.5 52 -225.5zM1151 2863c0 49.333 -9.83203 95.166 -29.499 137.5c-19.667 42.333 -48.5 76.5 -86.5 102.5s-84 39 -138 39
c-54.667 0 -101.167 -12.833 -139.5 -38.5s-67 -59.5 -86 -101.5s-28.5 -87 -28.5 -135c0 -49.333 9.66699 -95.166 29 -137.5c19.333 -42.333 48.166 -76.333 86.499 -102s84.5 -38.5 138.5 -38.5c54.667 0 101.167 12.833 139.5 38.5s67 59.334 86 101
c19 41.667 28.5 86.5 28.5 134.5z" />
    <glyph glyph-name="ogonek" unicode="&#x2db;" horiz-adv-x="1790" 
d="M1225 -901c-80.667 -24.667 -165.333 -37.0029 -254 -37.0029c-92 0 -170 16.667 -234 50s-112 78.333 -144 135s-48 119.334 -48 188.001c0 107.333 34.5 215.5 103.5 324.5s161.5 202.833 277.5 281.5h250c-104.667 -91.333 -184.667 -170.166 -240 -236.499
s-93.333 -126.5 -114 -180.5s-31 -111.667 -31 -173c0 -65.333 19.167 -115.166 57.5 -149.499s92.833 -51.5 163.5 -51.5c72 0 143 9.66699 213 29v-180z" />
    <glyph glyph-name="tilde" unicode="&#x2dc;" horiz-adv-x="1790" 
d="M1552 2941c0 -66.667 -7.5 -128.167 -22.5 -184.5s-38 -105.166 -69 -146.5c-31 -41.333 -70 -73.666 -117 -97c-47 -23.333 -102.833 -35 -167.5 -35c-44 0 -84.833 6.33301 -122.5 19s-73.167 28.667 -106.5 48s-65 40 -95 62l-87 62c-28 19.333 -55.333 35.333 -82 48
s-53.667 19 -81 19c-58 0 -99.833 -21.333 -125.5 -64s-38.5 -107.334 -38.5 -194h-205c0 66.667 7.5 128.167 22.5 184.5s38 105.166 69 146.5c31 41.333 70.167 73.666 117.5 97c47.333 23.333 103.333 35 168 35c43.333 0 84 -6.33301 122 -19s73.667 -28.667 107 -48
s65 -40 95 -62l86.5 -62c27.667 -19.333 55 -35.333 82 -48s54.167 -19 81.5 -19c57.333 0 99 21.333 125 64s39 107.334 39 194h204z" />
    <glyph glyph-name="hungarumlaut" unicode="&#x2dd;" horiz-adv-x="1790" 
d="M283 2454l258 552h299l-340 -552h-217zM946 2454l258 552h299l-340 -552h-217z" />
    <glyph glyph-name="commatop" unicode="&#x312;" horiz-adv-x="1790" 
d="M877 2454c-68 0 -117.833 15.5 -149.5 46.5s-47.5 75.5 -47.5 133.5c0 66.667 12 124.667 36 174s65.333 103.333 124 162l209 208l139 -118l-225 -271l61 -335h-147z" />
    <glyph glyph-name="caronslovak" unicode="&#x315;" horiz-adv-x="1790" 
d="M676 2257l94 434l-49 389h131c64 0 110.667 -17.667 140 -53s44 -88.666 44 -160c0 -46.667 -8 -100.5 -24 -161.5s-39.333 -134.167 -70 -219.5l-82 -229h-184z" />
    <glyph glyph-name="commaaccent" unicode="&#x326;" horiz-adv-x="1790" 
d="M655 -844l226.001 270.999l-62 327h148c67.333 0 116.833 -15.667 148.5 -47s47.5 -75.666 47.5 -132.999c0 -65.333 -11.833 -121.5 -35.5 -168.5s-64.834 -100.167 -123.501 -159.5l-209 -209z" />
    <glyph glyph-name="tonos" unicode="&#x384;" horiz-adv-x="1790" 
d="M741 3125h308l-91 -671h-127z" />
    <glyph glyph-name="dieresistonos" unicode="&#x385;" horiz-adv-x="1790" 
d="M274 2966h250v-361h-250v361zM741 3125h308l-91 -671h-127zM1257 2966h250v-361h-250v361z" />
    <glyph glyph-name="Alphatonos" unicode="&#x386;" horiz-adv-x="2720" 
d="M2343 0l-307 836h-1368l-308 -836h-270l1122 2966h299l1119 -2966h-287zM1442 2462c-34.667 94.667 -63.333 180.667 -86 258c-28 -92.667 -56.667 -178.667 -86 -258l-520 -1409h1208zM299.001 3092h308l-91 -671h-127z" />
    <glyph glyph-name="Epsilontonos" unicode="&#x388;" horiz-adv-x="2638" 
d="M627 0v2966h1822v-222h-1564v-1118h1343v-217h-1343v-1188h1564v-221h-1822zM-25 3092h308l-91 -671h-127z" />
    <glyph glyph-name="Etatonos" unicode="&#x389;" horiz-adv-x="3224" 
d="M2515 0v1409h-1630v-1409h-258v2966h258v-1336h1630v1336h258v-2966h-258zM-25 3092h308l-91 -671h-127z" />
    </font>
</defs>
</svg>
